<?xml version="1.0" encoding="utf-8"?>
<!-- Generator: Adobe Illustrator 16.0.0, SVG Export Plug-In . SVG Version: 6.00 Build 0)  -->
<!DOCTYPE svg PUBLIC "-//W3C//DTD SVG 1.1//EN" "http://www.w3.org/Graphics/SVG/1.1/DTD/svg11.dtd">
<svg version="1.1" xmlns="http://www.w3.org/2000/svg" xmlns:xlink="http://www.w3.org/1999/xlink" x="0px" y="0px" width="400px"
	 height="400px" viewBox="0 0 400 400" enable-background="new 0 0 400 400" xml:space="preserve">
<g id="Layer_1" display="none">
	<g display="inline">
		<path fill-rule="evenodd" clip-rule="evenodd" fill="#3C474B" d="M203.937,390c-3.958,0-7.916,0-11.873,0
			c-0.702-0.217-1.39-0.521-2.107-0.635c-22.704-3.604-40.163-19.699-45.628-42.087c-0.374-1.533-0.742-3.067-1.154-4.771
			c-32.065,0-63.939,0-95.814,0c0-5.193,0-10.388,0-15.583c18.859-0.717,32.628-15.31,32.128-36.817
			c-0.813-34.972-0.2-69.978-0.231-104.969c-0.009-10.201,1.109-20.263,4.2-29.979c12.614-39.654,39.971-64.229,78.985-76.754
			c2.139-0.688,4.32-1.243,6.764-1.941c-0.777-0.963-1.229-1.536-1.694-2.098c-17.836-21.518-8.113-54.313,18.554-62.53
			c2.218-0.684,4.492-1.188,6.74-1.775c3.464,0,6.925,0,10.389,0c0.574,0.21,1.133,0.504,1.727,0.621
			c30.51,5.964,42.85,40.318,23.077,64.253c-0.37,0.45-0.646,0.98-0.542,0.822c9.954,4.078,20.344,7.232,29.659,12.342
			c38.468,21.1,60.082,52.707,59.68,97.836c-0.321,36.215-0.071,72.436-0.059,108.654c0.004,10.137,3.994,18.443,11.719,24.958
			c5.82,4.912,12.777,6.774,20.185,7.376c0,5.195,0,10.39,0,15.583c-31.961,0-63.922,0-95.931,0
			c-0.249,1.169-0.391,1.884-0.554,2.591c-5.076,21.991-18.28,36.451-39.961,42.989C209.496,388.9,206.691,389.371,203.937,390z
			 M312.3,326.618c-0.486-0.9-0.661-1.35-0.939-1.72c-7.462-9.973-10.589-21.129-10.5-33.62c0.259-36.354,0.067-72.71,0.101-109.067
			c0.022-23.665-8.086-44.218-24.771-60.829C247.4,92.725,212.36,83.886,173.204,92.13c-42.087,8.86-79.727,45.354-78.341,98.017
			c0.91,34.602,0.118,69.246,0.2,103.87c0.026,11.407-2.991,21.69-10.136,30.678c-0.392,0.493-0.566,1.158-0.926,1.924
			C160.151,326.618,235.93,326.618,312.3,326.618z M190.082,71.349c0-7.186,0-14.273,0-21.433c5.508,0,10.583,0,15.889,0
			c0,3.792,0,7.239,0,10.686c0,3.55,0,7.099,0,10.731c10.089-2.509,16.955-13.474,15.654-24.526
			c-1.423-12.084-11.279-20.905-23.422-20.961c-12.389-0.057-22.352,8.701-23.82,20.938
			C173.058,57.831,179.89,68.771,190.082,71.349z M159.449,342.511c3.362,18.511,21.378,32.609,39.835,31.663
			c18.482-0.947,35.73-15.577,37.062-31.663c-4.827,0-9.641-0.104-14.441,0.094c-0.876,0.037-2.045,1.126-2.497,2.021
			c-4.489,8.894-11.598,13.653-21.595,13.594c-9.842-0.06-16.817-4.833-21.234-13.576c-0.455-0.899-1.613-2.002-2.484-2.037
			C169.294,342.407,164.48,342.511,159.449,342.511z"/>
		<path fill-rule="evenodd" clip-rule="evenodd" fill="#02B0ED" d="M268.918,199.858c-23.665,0-47.101,0-70.728,0
			c0-26.324,0-52.48,0-78.646C231.668,116.11,276.174,142.147,268.918,199.858z"/>
	</g>
</g>
<g id="Layer_2" display="none">
	<path display="inline" fill-rule="evenodd" clip-rule="evenodd" d="M48.695,343.55c0-4.85-0.01-9.073,0.01-13.296
		c0.003-0.731,0.138-1.463,0.228-2.359c2.385-0.385,4.739-0.615,7.017-1.16c14.598-3.493,24.666-16.114,24.691-31.176
		c0.061-35.631,0.688-71.276-0.132-106.887c-1.288-55.936,38.084-99.083,86.888-112.046c1.173-0.312,2.338-0.654,3.984-1.116
		c-8.893-9.568-12.279-20.678-10.481-33.206c1.396-9.723,5.919-17.901,13.438-24.293c14.898-12.667,37.391-12.606,52.172,0.241
		c8.504,7.391,12.959,16.846,13.533,28.123c0.564,11.128-3.084,20.745-10.17,28.37c10.086,4.13,20.445,7.443,29.925,12.428
		c29.006,15.255,49.286,38.088,57.27,70.449c1.915,7.77,2.669,15.997,2.73,24.022c0.278,37.122,0.484,74.254-0.021,111.373
		c-0.277,20.3,14.598,33.843,30.078,34.542c0.485,0.021,0.964,0.169,1.725,0.311c0,5.062,0,10.086,0,15.488
		c-31.921,0-63.869,0-95.993,0c-0.671,2.69-1.189,5.096-1.87,7.453c-7.239,25.082-29.961,41.494-56.089,40.548
		c-24.864-0.901-46.635-19.554-51.736-44.611c-0.572-2.807-1.645-3.251-4.138-3.245c-29.401,0.076-58.802,0.048-88.203,0.048
		C52.082,343.55,50.615,343.55,48.695,343.55z M315.414,327.473c-10.765-17.704-11.392-19.97-11.392-40.563
		c0-35.012-0.011-70.022,0.004-105.034c0.009-23.846-8.243-44.521-25.068-61.245c-28.7-28.529-63.663-37.509-102.719-29.561
		c-43.808,8.916-80.883,46.367-79.831,97.634c0.724,35.247,0.077,70.519,0.172,105.779c0.031,11.768-3.07,22.35-10.565,31.531
		c-0.271,0.331-0.4,0.776-0.738,1.458C162.111,327.473,238.53,327.473,315.414,327.473z M208.324,70.286
		c9.873-2.225,16.844-13.078,15.811-24.236c-1.123-12.132-10.859-21.176-23.2-21.55c-12.371-0.375-22.584,8.276-24.385,20.656
		c-1.619,11.135,5.172,22.294,15.841,25.25c0-7.368,0-14.592,0-21.684c5.604,0,10.632,0,15.933,0
		C208.324,56.104,208.324,63.165,208.324,70.286z M161.478,343.553c3.091,18.282,21.095,32.56,39.678,31.922
		c18.653-0.642,36.041-15.202,37.822-31.922c-4.866,0-9.711-0.079-14.547,0.078c-0.842,0.027-2.04,0.872-2.414,1.655
		c-4.409,9.216-11.629,14.129-21.859,14.088c-10.069-0.037-17.172-4.933-21.573-13.965c-0.416-0.854-1.756-1.738-2.698-1.773
		C171.173,343.455,166.447,343.553,161.478,343.553z"/>
</g>
<g id="Layer_3" display="none">
	<path display="inline" fill-rule="evenodd" clip-rule="evenodd" d="M93.584,319.333c0-77.449,0-154.099,0-230.691
		c104.568-12.909,227.137,64.836,207.601,230.691C232.341,319.333,163.404,319.333,93.584,319.333z"/>
</g>
<g id="Layer_4" display="none">
	<path display="inline" fill-rule="evenodd" clip-rule="evenodd" d="M267.997,288.242c-73.048,58.826-166.478,41.386-218.763-22.406
		C-1.812,203.559,2.784,116.637,60.216,59.208c57.43-57.428,144.355-62.016,206.63-10.971
		c63.698,52.21,81.282,145.634,22.852,218.199c1.166,1.234,2.354,2.55,3.607,3.802c29.47,29.484,58.931,58.98,88.44,88.424
		c4.626,4.618,7.152,9.768,5.36,16.407c-2.911,10.795-15.476,15.146-24.385,8.399c-1.445-1.095-2.718-2.431-4.009-3.72
		c-29.058-29.036-58.109-58.078-87.138-87.145C270.298,291.327,269.269,289.806,267.997,288.242z M169.78,43.853
		C98.804,43.76,44.884,97.587,44.854,168.563C44.826,239.366,98.4,292.978,169.338,293.128
		c71.156,0.148,124.813-53.416,124.791-124.577C294.104,97.616,240.584,43.946,169.78,43.853z"/>
</g>
<g id="Layer_5">
	<path fill-rule="evenodd" clip-rule="evenodd" d="M105.418,174.414c2.613,0,4.238,0,5.863,0c82.776,0,165.553-0.013,248.33,0.012
		c15.938,0.005,27.861,12.078,27.389,27.564c-0.414,13.586-11.64,24.953-25.247,25.545c-1.521,0.064-3.045,0.034-4.566,0.034
		c-82.085,0-164.17,0-246.254,0c-1.5,0-3,0-5.386,0c1.483,1.604,2.419,2.688,3.43,3.698c19.179,19.189,38.404,38.334,57.537,57.57
		c8.158,8.202,10.076,18.826,5.533,29c-4.632,10.372-14.618,16.594-25.837,15.992c-6.336-0.34-11.817-2.794-16.298-7.272
		c-35.935-35.908-71.912-71.775-107.725-107.806c-10.147-10.21-9.957-25.188,0.227-35.76c9.602-9.969,19.518-19.632,29.305-29.421
		c25.838-25.843,51.656-51.706,77.536-77.505c8.252-8.226,19.238-10.218,29.38-5.595c9.853,4.491,16.254,14.888,15.717,25.701
		c-0.355,7.142-3.631,12.861-8.638,17.842c-19.138,19.035-38.193,38.153-57.277,57.243
		C107.661,172.03,106.92,172.839,105.418,174.414z"/>
</g>
</svg>
