<?xml version="1.0" encoding="utf-8"?>
<!-- Generator: Adobe Illustrator 16.0.0, SVG Export Plug-In . SVG Version: 6.00 Build 0)  -->
<!DOCTYPE svg PUBLIC "-//W3C//DTD SVG 1.1//EN" "http://www.w3.org/Graphics/SVG/1.1/DTD/svg11.dtd">
<svg version="1.1" id="Layer_1" xmlns="http://www.w3.org/2000/svg" xmlns:xlink="http://www.w3.org/1999/xlink" x="0px" y="0px"
	 width="400px" height="400px" viewBox="0 0 400 400" enable-background="new 0 0 400 400" xml:space="preserve">
<g id="Layer_1_1_" display="none">
	<g display="inline">
		<path fill="#3C474B" d="M203.938,390c-3.958,0-7.917,0-11.874,0c-0.702-0.217-1.39-0.521-2.107-0.635
			c-22.704-3.604-40.163-19.699-45.628-42.088c-0.374-1.532-0.742-3.066-1.154-4.771c-32.065,0-63.939,0-95.814,0
			c0-5.192,0-10.388,0-15.583c18.859-0.717,32.628-15.311,32.128-36.816c-0.813-34.973-0.2-69.979-0.231-104.969
			c-0.009-10.201,1.109-20.263,4.2-29.979c12.614-39.654,39.971-64.229,78.985-76.754c2.139-0.688,4.32-1.243,6.764-1.941
			c-0.777-0.963-1.229-1.536-1.694-2.098c-17.836-21.518-8.113-54.313,18.554-62.53c2.218-0.684,4.492-1.188,6.74-1.775
			c3.464,0,6.925,0,10.388,0c0.574,0.21,1.134,0.504,1.728,0.621C235.434,16.646,247.773,51,228,74.935
			c-0.37,0.45-0.646,0.98-0.542,0.822c9.954,4.078,20.344,7.232,29.659,12.342c38.468,21.1,60.082,52.707,59.68,97.836
			c-0.321,36.215-0.071,72.436-0.059,108.654c0.004,10.138,3.994,18.443,11.719,24.958c5.82,4.912,12.777,6.773,20.185,7.376
			c0,5.195,0,10.39,0,15.583c-31.961,0-63.921,0-95.931,0c-0.249,1.169-0.391,1.885-0.554,2.592
			c-5.076,21.99-18.28,36.45-39.962,42.988C209.496,388.9,206.691,389.371,203.938,390z M312.3,326.618
			c-0.485-0.9-0.661-1.351-0.938-1.72c-7.463-9.974-10.59-21.129-10.5-33.621c0.259-36.354,0.066-72.709,0.101-109.066
			c0.022-23.665-8.086-44.218-24.771-60.829C247.4,92.725,212.359,83.886,173.204,92.13c-42.087,8.86-79.727,45.354-78.341,98.017
			c0.91,34.602,0.118,69.246,0.2,103.871c0.026,11.406-2.991,21.689-10.136,30.678c-0.392,0.492-0.566,1.158-0.926,1.924
			C160.151,326.618,235.93,326.618,312.3,326.618z M190.082,71.349c0-7.186,0-14.273,0-21.433c5.508,0,10.583,0,15.889,0
			c0,3.792,0,7.239,0,10.686c0,3.55,0,7.099,0,10.731c10.09-2.509,16.955-13.474,15.654-24.526
			c-1.423-12.084-11.279-20.905-23.422-20.961c-12.389-0.057-22.352,8.701-23.82,20.938
			C173.058,57.831,179.89,68.771,190.082,71.349z M159.449,342.511c3.362,18.511,21.378,32.609,39.835,31.663
			c18.481-0.947,35.729-15.576,37.062-31.663c-4.826,0-9.641-0.104-14.441,0.095c-0.875,0.037-2.045,1.125-2.496,2.021
			c-4.489,8.894-11.598,13.653-21.595,13.594c-9.842-0.06-16.817-4.833-21.234-13.575c-0.455-0.899-1.613-2.002-2.484-2.037
			C169.294,342.407,164.48,342.511,159.449,342.511z"/>
		<path fill="#02B0ED" d="M268.918,199.858c-23.665,0-47.102,0-70.728,0c0-26.324,0-52.48,0-78.646
			C231.668,116.11,276.174,142.147,268.918,199.858z"/>
	</g>
</g>
<g id="Layer_2" display="none">
	<path display="inline" d="M48.695,343.55c0-4.85-0.01-9.073,0.01-13.296c0.003-0.73,0.138-1.463,0.228-2.359
		c2.385-0.385,4.739-0.615,7.017-1.16c14.598-3.492,24.666-16.113,24.691-31.176c0.061-35.631,0.688-71.275-0.132-106.887
		c-1.288-55.936,38.084-99.083,86.888-112.046c1.173-0.312,2.338-0.654,3.984-1.116c-8.893-9.568-12.279-20.678-10.481-33.206
		c1.396-9.723,5.919-17.901,13.438-24.293c14.898-12.667,37.391-12.605,52.172,0.241c8.504,7.391,12.959,16.846,13.533,28.123
		c0.564,11.128-3.084,20.745-10.17,28.37c10.086,4.13,20.445,7.443,29.925,12.428c29.007,15.255,49.286,38.088,57.271,70.449
		c1.915,7.77,2.669,15.997,2.729,24.022c0.278,37.122,0.484,74.254-0.021,111.374c-0.277,20.299,14.598,33.842,30.078,34.541
		c0.484,0.021,0.964,0.17,1.725,0.312c0,5.062,0,10.086,0,15.487c-31.921,0-63.869,0-95.993,0c-0.671,2.69-1.188,5.097-1.87,7.453
		c-7.238,25.082-29.961,41.494-56.089,40.549c-24.864-0.901-46.635-19.555-51.736-44.611c-0.572-2.807-1.645-3.251-4.138-3.245
		c-29.401,0.076-58.802,0.048-88.203,0.048C52.082,343.55,50.615,343.55,48.695,343.55z M315.414,327.473
		c-10.766-17.703-11.393-19.97-11.393-40.563c0-35.012-0.01-70.021,0.004-105.034c0.01-23.846-8.242-44.521-25.067-61.245
		c-28.7-28.529-63.663-37.509-102.719-29.561c-43.808,8.916-80.883,46.367-79.831,97.634c0.724,35.247,0.077,70.519,0.172,105.778
		c0.031,11.769-3.07,22.351-10.565,31.531c-0.271,0.332-0.4,0.776-0.738,1.459C162.111,327.473,238.529,327.473,315.414,327.473z
		 M208.324,70.286c9.873-2.225,16.844-13.078,15.811-24.236c-1.123-12.132-10.859-21.176-23.199-21.55
		c-12.372-0.375-22.584,8.276-24.386,20.656c-1.619,11.135,5.172,22.294,15.841,25.25c0-7.368,0-14.592,0-21.684
		c5.604,0,10.632,0,15.933,0C208.324,56.104,208.324,63.165,208.324,70.286z M161.478,343.553
		c3.091,18.282,21.095,32.561,39.678,31.922c18.652-0.642,36.041-15.201,37.822-31.922c-4.867,0-9.711-0.078-14.547,0.078
		c-0.843,0.027-2.041,0.872-2.414,1.655c-4.41,9.216-11.629,14.129-21.859,14.088c-10.069-0.037-17.172-4.933-21.573-13.965
		c-0.416-0.854-1.756-1.738-2.698-1.772C171.173,343.455,166.447,343.553,161.478,343.553z"/>
</g>
<g id="Layer_3" display="none">
	<path display="inline" d="M93.584,319.333c0-77.449,0-154.099,0-230.691c104.568-12.909,227.137,64.836,207.602,230.691
		C232.341,319.333,163.404,319.333,93.584,319.333z"/>
</g>
<g id="Layer_4" display="none">
	<path display="inline" d="M267.997,288.242c-73.048,58.826-166.478,41.386-218.763-22.406
		C-1.812,203.559,2.784,116.637,60.216,59.208C117.646,1.78,204.57-2.808,266.846,48.237
		c63.698,52.21,81.282,145.634,22.853,218.199c1.165,1.234,2.354,2.551,3.606,3.803c29.471,29.484,58.932,58.979,88.44,88.424
		c4.626,4.618,7.152,9.768,5.36,16.406c-2.911,10.796-15.477,15.146-24.386,8.399c-1.444-1.095-2.718-2.431-4.009-3.72
		c-29.058-29.036-58.109-58.078-87.139-87.145C270.298,291.327,269.27,289.807,267.997,288.242z M169.78,43.853
		C98.804,43.76,44.884,97.587,44.854,168.563C44.826,239.366,98.4,292.979,169.338,293.128
		c71.156,0.147,124.813-53.416,124.791-124.577C294.104,97.616,240.584,43.946,169.78,43.853z"/>
</g>
<path fill-rule="evenodd" clip-rule="evenodd" d="M362.881,202.057c0.041,44.896-17.658,87.466-55.221,121.37
	c-30.2,27.254-65.981,41.203-106.346,41.598c-101.606,1-166.559-80.432-167.532-160.864c-0.59-48.624,16.628-90.53,52.117-123.866
	c30.331-28.491,67.129-43.528,108.776-44.007C296.575,35.118,361.443,116.604,362.881,202.057z M192.885,52.632
	c-32.009,0.653-65.154,12.471-93.041,37.648C65.6,121.2,49.169,160.164,50.283,206.033c1.648,67.9,56.23,141.872,148.581,142.585
	c36.983,0.287,69.836-12.37,97.452-37.123c34.633-31.046,51.146-70.328,49.945-116.677
	C344.508,127.249,289.554,53.731,192.885,52.632z"/>
<path fill-rule="evenodd" clip-rule="evenodd" d="M175.752,250.559c5.576-7.164,10.99-14.113,16.398-21.066
	c20.16-25.918,40.318-51.837,60.479-77.755c0.629-0.81,1.225-1.654,1.924-2.401c2.568-2.744,6.582-3.099,9.473-0.879
	c2.863,2.198,3.664,6.29,1.545,9.37c-2.09,3.039-4.457,5.887-6.725,8.803c-25.072,32.237-50.146,64.473-75.224,96.706
	c-4.319,5.552-7.752,5.894-13.111,1.303c-13.095-11.216-26.168-22.457-39.279-33.653c-2.419-2.065-3.493-4.558-2.716-7.647
	c0.685-2.724,2.569-4.396,5.285-5.031c2.777-0.65,4.941,0.579,6.984,2.337c10.966,9.44,21.967,18.841,32.958,28.253
	C174.283,249.36,174.84,249.805,175.752,250.559z"/>
</svg>
