<?xml version="1.0" encoding="utf-8"?>
<!-- Generator: Adobe Illustrator 16.0.0, SVG Export Plug-In . SVG Version: 6.00 Build 0)  -->
<!DOCTYPE svg PUBLIC "-//W3C//DTD SVG 1.1//EN" "http://www.w3.org/Graphics/SVG/1.1/DTD/svg11.dtd">
<svg version="1.1" id="Layer_1" xmlns="http://www.w3.org/2000/svg" xmlns:xlink="http://www.w3.org/1999/xlink" x="0px" y="0px"
	 width="400px" height="400px" viewBox="0 0 400 400" enable-background="new 0 0 400 400" xml:space="preserve">
<g>
	<path fill-rule="evenodd" clip-rule="evenodd" d="M198.773,319.152c-41.672,0-83.344,0.027-125.016-0.01
		c-20.159-0.018-33.554-13.188-33.601-33.441c-0.122-52.213-0.077-104.428-0.02-156.643c0.009-8.271-0.432-16.678,0.849-24.783
		c2.343-14.837,15.467-25.353,30.649-25.427c27.111-0.132,54.224-0.068,81.335-0.068c56.859,0.002,113.719,0.003,170.578,0.03
		c20.397,0.01,33.768,13.098,33.82,33.617c0.135,51.838,0.06,103.677,0.039,155.515c-0.003,7.4,0.283,14.842-0.354,22.197
		c-1.47,16.916-14.748,28.947-31.759,28.984c-39.788,0.086-79.577,0.029-119.367,0.029
		C203.543,319.152,201.158,319.152,198.773,319.152z M198.754,296.555c20.582,0,41.166,0,61.748,0
		c21.336,0,42.669,0.021,64.005-0.018c6.579-0.012,9.938-3.307,10.266-9.857c0.068-1.379,0.032-2.762,0.033-4.141
		c0-45.557,0-91.113,0-136.669c0-11.421,0.068-22.842-0.03-34.261c-0.058-6.809-3.494-10.092-10.273-10.186
		c-1.13-0.017-2.259-0.021-3.388-0.021c-82.08-0.001-164.159-0.002-246.238,0.001c-9.22,0-12.153,2.91-12.154,12.126
		c-0.007,56.976-0.007,113.954,0,170.93c0.001,9.256,2.854,12.09,12.16,12.094C116.173,296.561,157.464,296.555,198.754,296.555z"/>
	<path fill-rule="evenodd" clip-rule="evenodd" d="M155.655,210.295c-18.279,18.068-36.384,35.967-54.387,53.762
		c-5.175-5.326-10.299-10.602-15.69-16.15c17.168-16.873,34.95-34.348,53.108-52.193c-18.143-15.623-35.495-30.563-53.156-45.77
		c4.877-5.699,9.648-11.275,14.674-17.148c5.38,4.604,10.598,9.045,15.791,13.514c25.682,22.101,51.351,44.217,77.042,66.307
		c5.078,4.367,6.699,4.305,11.917-0.201c29.447-25.424,58.893-50.851,88.341-76.274c1.22-1.053,2.468-2.074,3.932-3.302
		c4.951,5.731,9.767,11.302,14.747,17.066c-17.566,15.185-34.912,30.179-52.886,45.714c18.049,17.662,35.882,35.113,53.539,52.395
		c-5.621,5.678-10.73,10.84-15.623,15.781c-17.974-17.846-36.005-35.748-54.208-53.822c-1.304,0.973-2.206,1.568-3.02,2.268
		c-7.233,6.215-14.447,12.455-21.675,18.678c-11.542,9.943-26.909,9.959-38.436,0.043
		C171.595,224.02,163.529,217.072,155.655,210.295z"/>
</g>
</svg>
