<?xml version="1.0" encoding="utf-8"?>
<!-- Generator: Adobe Illustrator 16.0.0, SVG Export Plug-In . SVG Version: 6.00 Build 0)  -->
<!DOCTYPE svg PUBLIC "-//W3C//DTD SVG 1.1//EN" "http://www.w3.org/Graphics/SVG/1.1/DTD/svg11.dtd">
<svg version="1.1" xmlns="http://www.w3.org/2000/svg" xmlns:xlink="http://www.w3.org/1999/xlink" x="0px" y="0px" width="400px"
	 height="400px" viewBox="0 0 400 400" enable-background="new 0 0 400 400" xml:space="preserve">
<g id="Layer_1" display="none">
	<g id="Layer_1_1_">
		<g display="inline">
			<path fill="#3C474B" d="M203.938,390c-3.958,0-7.917,0-11.874,0c-0.702-0.217-1.39-0.521-2.107-0.635
				c-22.704-3.604-40.163-19.699-45.628-42.088c-0.374-1.532-0.742-3.066-1.154-4.771c-32.065,0-63.939,0-95.814,0
				c0-5.192,0-10.388,0-15.583c18.859-0.717,32.628-15.311,32.128-36.816c-0.813-34.973-0.2-69.979-0.231-104.969
				c-0.009-10.201,1.109-20.263,4.2-29.979c12.614-39.654,39.971-64.229,78.985-76.754c2.139-0.688,4.32-1.243,6.764-1.941
				c-0.777-0.963-1.229-1.536-1.694-2.098c-17.836-21.518-8.113-54.313,18.554-62.53c2.218-0.684,4.492-1.188,6.74-1.775
				c3.464,0,6.925,0,10.388,0c0.574,0.21,1.134,0.504,1.728,0.621C235.434,16.646,247.773,51,228,74.935
				c-0.37,0.45-0.646,0.98-0.542,0.822c9.954,4.078,20.344,7.232,29.659,12.342c38.468,21.1,60.082,52.707,59.68,97.836
				c-0.321,36.215-0.071,72.436-0.059,108.654c0.004,10.138,3.994,18.443,11.719,24.958c5.82,4.912,12.777,6.773,20.185,7.376
				c0,5.195,0,10.39,0,15.583c-31.961,0-63.921,0-95.931,0c-0.249,1.169-0.391,1.885-0.554,2.592
				c-5.076,21.99-18.28,36.45-39.962,42.988C209.496,388.9,206.691,389.371,203.938,390z M312.3,326.618
				c-0.485-0.9-0.661-1.351-0.938-1.72c-7.463-9.974-10.59-21.129-10.5-33.621c0.259-36.354,0.066-72.709,0.101-109.066
				c0.022-23.665-8.086-44.218-24.771-60.829C247.4,92.725,212.359,83.886,173.204,92.13c-42.087,8.86-79.727,45.354-78.341,98.017
				c0.91,34.602,0.118,69.246,0.2,103.871c0.026,11.406-2.991,21.689-10.136,30.678c-0.392,0.492-0.566,1.158-0.926,1.924
				C160.151,326.618,235.93,326.618,312.3,326.618z M190.082,71.349c0-7.186,0-14.273,0-21.433c5.508,0,10.583,0,15.889,0
				c0,3.792,0,7.239,0,10.686c0,3.55,0,7.099,0,10.731c10.09-2.509,16.955-13.474,15.654-24.526
				c-1.423-12.084-11.279-20.905-23.422-20.961c-12.389-0.057-22.352,8.701-23.82,20.938
				C173.058,57.831,179.89,68.771,190.082,71.349z M159.449,342.511c3.362,18.511,21.378,32.609,39.835,31.663
				c18.481-0.947,35.729-15.576,37.062-31.663c-4.826,0-9.641-0.104-14.441,0.095c-0.875,0.037-2.045,1.125-2.496,2.021
				c-4.489,8.894-11.598,13.653-21.595,13.594c-9.842-0.06-16.817-4.833-21.234-13.575c-0.455-0.899-1.613-2.002-2.484-2.037
				C169.294,342.407,164.48,342.511,159.449,342.511z"/>
			<path fill="#02B0ED" d="M268.918,199.858c-23.665,0-47.102,0-70.728,0c0-26.324,0-52.48,0-78.646
				C231.668,116.11,276.174,142.147,268.918,199.858z"/>
		</g>
	</g>
	<g id="Layer_2">
		<path display="inline" d="M48.695,343.55c0-4.85-0.01-9.073,0.01-13.296c0.003-0.73,0.138-1.463,0.228-2.359
			c2.385-0.385,4.739-0.615,7.017-1.16c14.598-3.492,24.666-16.113,24.691-31.176c0.061-35.631,0.688-71.275-0.132-106.887
			c-1.288-55.936,38.084-99.083,86.888-112.046c1.173-0.312,2.338-0.654,3.984-1.116c-8.893-9.568-12.279-20.678-10.481-33.206
			c1.396-9.723,5.919-17.901,13.438-24.293c14.898-12.667,37.391-12.605,52.172,0.241c8.504,7.391,12.959,16.846,13.533,28.123
			c0.564,11.128-3.084,20.745-10.17,28.37c10.086,4.13,20.445,7.443,29.925,12.428c29.007,15.255,49.286,38.088,57.271,70.449
			c1.915,7.77,2.669,15.997,2.729,24.022c0.278,37.122,0.484,74.254-0.021,111.374c-0.277,20.299,14.598,33.842,30.078,34.541
			c0.484,0.021,0.964,0.17,1.725,0.312c0,5.062,0,10.086,0,15.487c-31.921,0-63.869,0-95.993,0c-0.671,2.69-1.188,5.097-1.87,7.453
			c-7.238,25.082-29.961,41.494-56.089,40.549c-24.864-0.901-46.635-19.555-51.736-44.611c-0.572-2.807-1.645-3.251-4.138-3.245
			c-29.401,0.076-58.802,0.048-88.203,0.048C52.082,343.55,50.615,343.55,48.695,343.55z M315.414,327.473
			c-10.766-17.703-11.393-19.97-11.393-40.563c0-35.012-0.01-70.021,0.004-105.034c0.01-23.846-8.242-44.521-25.067-61.245
			c-28.7-28.529-63.663-37.509-102.719-29.561c-43.808,8.916-80.883,46.367-79.831,97.634c0.724,35.247,0.077,70.519,0.172,105.778
			c0.031,11.769-3.07,22.351-10.565,31.531c-0.271,0.332-0.4,0.776-0.738,1.459C162.111,327.473,238.529,327.473,315.414,327.473z
			 M208.324,70.286c9.873-2.225,16.844-13.078,15.811-24.236c-1.123-12.132-10.859-21.176-23.199-21.55
			c-12.372-0.375-22.584,8.276-24.386,20.656c-1.619,11.135,5.172,22.294,15.841,25.25c0-7.368,0-14.592,0-21.684
			c5.604,0,10.632,0,15.933,0C208.324,56.104,208.324,63.165,208.324,70.286z M161.478,343.553
			c3.091,18.282,21.095,32.561,39.678,31.922c18.652-0.642,36.041-15.201,37.822-31.922c-4.867,0-9.711-0.078-14.547,0.078
			c-0.843,0.027-2.041,0.872-2.414,1.655c-4.41,9.216-11.629,14.129-21.859,14.088c-10.069-0.037-17.172-4.933-21.573-13.965
			c-0.416-0.854-1.756-1.738-2.698-1.772C171.173,343.455,166.447,343.553,161.478,343.553z"/>
	</g>
	<g id="Layer_3">
		<path display="inline" d="M93.584,319.333c0-77.449,0-154.099,0-230.691c104.568-12.909,227.137,64.836,207.602,230.691
			C232.341,319.333,163.404,319.333,93.584,319.333z"/>
	</g>
	<g id="Layer_4">
		<path display="inline" d="M267.997,288.242c-73.048,58.826-166.478,41.386-218.763-22.406
			C-1.812,203.559,2.784,116.637,60.216,59.208C117.646,1.78,204.57-2.808,266.846,48.237
			c63.698,52.21,81.282,145.634,22.853,218.199c1.165,1.234,2.354,2.551,3.606,3.803c29.471,29.484,58.932,58.979,88.44,88.424
			c4.626,4.618,7.152,9.768,5.36,16.406c-2.911,10.796-15.477,15.146-24.386,8.399c-1.444-1.095-2.718-2.431-4.009-3.72
			c-29.058-29.036-58.109-58.078-87.139-87.145C270.298,291.327,269.27,289.807,267.997,288.242z M169.78,43.853
			C98.804,43.76,44.884,97.587,44.854,168.563C44.826,239.366,98.4,292.979,169.338,293.128
			c71.156,0.147,124.813-53.416,124.791-124.577C294.104,97.616,240.584,43.946,169.78,43.853z"/>
	</g>
	<g id="Layer_5" display="inline">
		<path d="M105.418,174.414c2.613,0,4.238,0,5.863,0c82.776,0,165.553-0.013,248.331,0.012c15.938,0.005,27.86,12.078,27.389,27.564
			c-0.414,13.586-11.64,24.953-25.247,25.545c-1.521,0.064-3.045,0.033-4.566,0.033c-82.085,0-164.169,0-246.253,0
			c-1.5,0-3,0-5.386,0c1.483,1.604,2.419,2.688,3.43,3.699c19.179,19.188,38.404,38.334,57.537,57.569
			c8.158,8.202,10.076,18.826,5.533,29c-4.632,10.372-14.618,16.595-25.837,15.992c-6.336-0.341-11.817-2.794-16.298-7.272
			C93.977,290.648,58,254.782,22.187,218.751c-10.147-10.21-9.957-25.188,0.227-35.76c9.602-9.969,19.518-19.632,29.305-29.421
			c25.838-25.843,51.656-51.706,77.536-77.505c8.252-8.226,19.238-10.218,29.38-5.595c9.853,4.491,16.254,14.888,15.717,25.701
			c-0.355,7.142-3.631,12.861-8.638,17.842c-19.138,19.035-38.193,38.153-57.277,57.243
			C107.661,172.03,106.92,172.839,105.418,174.414z"/>
	</g>
</g>
<g id="Layer_2_1_" display="none">
	<g display="inline">
		<path fill-rule="evenodd" clip-rule="evenodd" d="M199.428,386.322c-48.34-0.001-96.679-0.064-145.018,0.04
			c-13.813,0.03-25.364-4.629-33.762-15.695c-8.446-11.128-9.894-23.27-3.497-35.955c15.883-31.491,40.832-53.793,71.573-70.09
			c6.519-3.457,13.265-6.563,20.124-9.28c11.315-4.482,22.649-3.527,33.201,2.208c38.725,21.053,77.269,21.009,115.648-0.599
			c11.076-6.236,22.686-7.067,33.977-2.569c38.079,15.167,68.774,39.254,88.847,75.769c13.911,25.302-2.665,51.43-27.396,55.647
			c-3.264,0.556-6.652,0.503-9.984,0.505C295.234,386.332,247.332,386.322,199.428,386.322z"/>
		<path fill-rule="evenodd" clip-rule="evenodd" d="M292.494,126.506c-0.529,29.429-8.635,56.664-28.324,79.574
			c-37.175,43.256-96.384,41.98-131.75-2.814c-19.479-24.674-27.198-53.172-25.598-84.289c1.457-28.285,10.662-53.706,29.831-74.896
			c17.165-18.974,38.338-29.866,64.438-29.316c26.958,0.568,48.058,13.04,64.733,33.415
			C284.315,70.774,292.021,97.258,292.494,126.506z"/>
	</g>
</g>
<g id="Layer_3_1_" display="none">
	<path display="inline" fill-rule="evenodd" clip-rule="evenodd" d="M265.808,287.559c-73.495,59.65-167.989,38.958-217.76-25.075
		C-0.416,200.133,6.197,114.755,64.109,59.556c58.075-55.354,143.253-57.531,204.068-4.893
		c60.072,51.996,74.929,141.422,18.806,211.408c1.123,1.193,2.277,2.479,3.496,3.698c28.986,29,57.963,58.014,86.991,86.972
		c4.541,4.531,7.112,9.559,5.39,16.106c-2.852,10.839-15.466,15.114-24.276,8.187c-1.403-1.104-2.643-2.425-3.912-3.692
		c-28.473-28.457-56.943-56.913-85.385-85.399C268.025,290.679,267.045,289.136,265.808,287.559z M168.835,47.192
		C99.026,47.234,46.096,100.28,46.2,170.091c0.106,69.642,52.907,122.272,122.677,122.28
		c69.825,0.009,122.403-52.49,122.503-122.319C291.48,100.117,238.649,47.149,168.835,47.192z"/>
</g>
<g id="Layer_4_1_" display="none">
	<g display="inline">
		<path fill-rule="evenodd" clip-rule="evenodd" d="M301.213,189.566c-22.456,0-44.912,0.025-67.368-0.009
			c-12.852-0.02-18.009-5.235-18.013-18.133c-0.01-40.456-0.011-80.91,0.001-121.365c0.004-12.971,5.376-18.262,18.511-18.264
			c44.568-0.007,89.139-0.01,133.707,0.001c12.883,0.003,18.455,5.571,18.462,18.511c0.021,40.284,0.02,80.567,0.001,120.851
			c-0.006,13.028-5.373,18.383-18.448,18.401C345.781,189.588,323.497,189.567,301.213,189.566z"/>
		<path fill-rule="evenodd" clip-rule="evenodd" d="M99.06,212.615c22.457,0,44.914-0.02,67.371,0.008
			c12.516,0.015,17.905,5.322,17.914,17.75c0.031,40.799,0.033,81.599-0.003,122.397c-0.011,12.051-5.558,17.501-17.663,17.505
			c-45.084,0.013-90.17,0.013-135.255,0c-12.09-0.003-17.708-5.459-17.725-17.517c-0.058-40.8-0.055-81.6-0.004-122.398
			c0.016-12.414,5.479-17.726,17.994-17.738C54.146,212.597,76.603,212.615,99.06,212.615z"/>
		<path fill-rule="evenodd" clip-rule="evenodd" d="M99.002,189.567c-22.286,0-44.571,0.018-66.857-0.007
			c-13.199-0.015-18.451-5.199-18.46-18.316c-0.029-40.286-0.028-80.571,0-120.857c0.009-13.303,5.406-18.59,18.827-18.592
			c44.4-0.006,88.8-0.007,133.199,0.001c13.318,0.002,18.636,5.321,18.641,18.698c0.015,40.114,0.013,80.229,0.002,120.342
			c-0.004,13.81-4.992,18.719-19.008,18.728C143.231,189.577,121.117,189.567,99.002,189.567z"/>
		<path fill-rule="evenodd" clip-rule="evenodd" d="M301.358,212.615c22.285,0,44.57-0.017,66.854,0.006
			c12.76,0.012,18.287,5.426,18.296,18.025c0.029,40.627,0.033,81.255-0.003,121.881c-0.01,12.047-5.687,17.742-17.566,17.746
			c-45.256,0.017-90.512,0.017-135.767,0c-11.763-0.004-17.327-5.533-17.334-17.271c-0.025-40.971-0.024-81.94-0.001-122.91
			c0.006-12.072,5.445-17.453,17.638-17.469C256.104,212.594,278.731,212.616,301.358,212.615z"/>
	</g>
</g>
<g id="Layer_5_1_">
	<g>
		<path fill-rule="evenodd" clip-rule="evenodd" d="M33.175,14.542c111.627,0,223.099,0,334.661,0
			c0.022,0.521,0.061,0.973,0.061,1.424c0.003,11.484,0.017,22.968-0.03,34.451c-0.004,0.761-0.3,1.652-0.756,2.261
			c-36.638,48.91-73.308,97.796-109.949,146.702c-0.636,0.848-1.277,1.128-2.307,1.127c-36.217-0.025-72.436-0.025-108.653,0.003
			c-1.087,0-1.752-0.327-2.406-1.201c-36.618-48.871-73.262-97.722-109.881-146.591c-0.413-0.551-0.773-1.311-0.776-1.975
			c-0.047-11.716-0.034-23.433-0.031-35.149C33.107,15.275,33.147,14.958,33.175,14.542z"/>
		<path fill-rule="evenodd" clip-rule="evenodd" d="M256.225,386.415c-0.66-0.321-1.19-0.572-1.716-0.833
			c-36.161-18.08-72.321-36.167-108.498-54.216c-1.03-0.514-1.334-1.099-1.333-2.209c0.03-36.122,0.024-72.243,0.024-108.365
			c0-0.502,0-1.005,0-1.598c37.226,0,74.338,0,111.523,0C256.225,274.902,256.225,330.562,256.225,386.415z"/>
	</g>
</g>
</svg>
