<?xml version="1.0" encoding="utf-8"?>
<!-- Generator: Adobe Illustrator 16.0.0, SVG Export Plug-In . SVG Version: 6.00 Build 0)  -->
<!DOCTYPE svg PUBLIC "-//W3C//DTD SVG 1.1//EN" "http://www.w3.org/Graphics/SVG/1.1/DTD/svg11.dtd">
<svg version="1.1" xmlns="http://www.w3.org/2000/svg" xmlns:xlink="http://www.w3.org/1999/xlink" x="0px" y="0px" width="400px"
	 height="400px" viewBox="0 0 400 400" enable-background="new 0 0 400 400" xml:space="preserve">
<g id="Layer_1" display="none">
	<g display="inline">
		<path fill-rule="evenodd" clip-rule="evenodd" d="M342.771,391.5c-95.655,0-190.903,0-286.764,0c0-3.009,0-5.818,0-8.629
			c0.007-29.106,0.046-58.212,0.012-87.317c-0.04-34.168,26.604-66.141,60.571-70.818c14.981-2.063,30.347-1.686,45.543-1.78
			c35.438-0.224,70.878-0.045,106.318-0.06c35.818-0.014,65.733,24.007,73.021,58.792c0.799,3.813,1.427,7.746,1.439,11.626
			c0.112,31.669,0.062,63.339,0.05,95.008C342.961,389.218,342.856,390.116,342.771,391.5z M315.666,363.96
			c0-24.185,0.921-47.881-0.256-71.475c-1.198-24.056-20.775-41.742-45.007-41.892c-47.193-0.291-94.39-0.306-141.583,0.037
			c-25.751,0.186-45.623,21.07-45.657,46.923c-0.027,20.656-0.007,41.314-0.008,61.973c0,1.446,0,2.894,0,4.434
			C160.952,363.96,238.114,363.96,315.666,363.96z"/>
		<path fill-rule="evenodd" clip-rule="evenodd" d="M277.481,144.475c-7.637,33.076-37.011,55.629-70.98,56.34
			c-15.018,0.314-29.957-0.025-43.791-6.741c-27.35-13.283-42.267-35.312-43.652-65.634c-0.79-17.296-0.633-34.721,0.474-52
			c2.191-34.213,31.407-63.382,65.535-66.498c14.947-1.364,29.88-1.602,44.287,3.386c31.356,10.857,50.625,38.333,50.881,72.151
			c0.051,6.638,0.007,13.276,0.007,19.914C280.58,105.422,280.393,131.859,277.481,144.475z M145.878,104.853
			c0.181,0.006,0.361,0.013,0.542,0.019c0,7.841-0.155,15.686,0.031,23.522c0.443,18.653,12.464,35.205,29.981,41.884
			c11.092,4.229,22.565,3.354,33.961,2.686c22.274-1.305,41.553-21.086,42.101-43.322c0.386-15.673,0.331-31.366,0.085-47.044
			c-0.327-20.782-13.314-38.411-33.519-43.631c-8.843-2.284-18.492-2.074-27.761-1.951c-21.391,0.281-40.052,15.654-43.759,36.767
			C145.76,83.923,146.358,94.482,145.878,104.853z"/>
	</g>
</g>
<g id="Layer_2" display="none">
	<g display="inline">
		<path fill-rule="evenodd" clip-rule="evenodd" d="M302.895,135.745c28.963,2.365,47.621,22.667,47.617,51.148
			c-0.007,51.155,0.031,102.312-0.021,153.467c-0.025,25.351-15.317,44.994-39.304,49.589c-7.592,1.456-15.567,1.208-23.368,1.217
			c-62.592,0.076-125.181,0.063-187.772-0.004c-23.13-0.024-41.36-12.461-48.184-33.012c-1.492-4.493-2.499-9.383-2.514-14.093
			c-0.167-54.015-0.259-108.028-0.024-162.042c0.107-24.683,21.997-45.952,47.05-46.015c58.227-0.147,116.455-0.066,174.681-0.078
			c1.351,0,2.7,0,4.345,0c0.146-1.077,0.397-2.061,0.397-3.044c0.03-25.879,0.082-51.758,0.018-77.636
			c-0.027-10.985-7.422-18.571-18.383-18.6c-37.914-0.1-75.831-0.115-113.746,0.007c-11.906,0.038-19.77,8.385-19.794,20.377
			c-0.02,9.589-0.004,19.178-0.004,29.007c-9.272,0-18.077,0-27.545,0c0.688-14.482-1.792-28.98,1.896-43.125
			c4.838-18.555,23.242-33.078,42.613-33.229c39.871-0.313,79.747-0.352,119.616,0.006c22.85,0.204,42.229,20.336,42.37,43.255
			c0.159,25.877,0.049,51.757,0.056,77.636C302.896,132.207,302.895,133.839,302.895,135.745z M199.499,363.671
			c0,0.009,0,0.02,0,0.028c33.843,0,67.684,0.028,101.525-0.013c13.143-0.016,21.964-8.611,21.978-21.573
			c0.056-52.342,0.057-104.685,0.002-157.025c-0.013-13.093-9.126-22.079-22.148-22.08c-67.232-0.007-134.464-0.004-201.696,0.024
			c-13.873,0.006-22.838,8.991-22.847,22.888c-0.032,51.589,0.098,103.18-0.119,154.769c-0.057,13.604,10.224,23.27,22.685,23.12
			C132.414,363.403,165.958,363.671,199.499,363.671z"/>
		<path fill-rule="evenodd" clip-rule="evenodd" d="M213.512,313.587c-9.143,0-17.801,0-26.868,0
			c-0.066-1.517-0.185-2.959-0.187-4.401c-0.011-12.93,0.092-25.861-0.106-38.786c-0.027-1.765-1.07-4.054-2.416-5.167
			c-9.423-7.791-12.886-19.865-8.645-31.264c3.913-10.515,14.775-17.859,25.959-17.553c11.506,0.317,22.135,8.267,25.411,19.003
			c3.517,11.528-0.287,23.367-10.158,30.305c-2.478,1.741-3.061,3.556-3.039,6.306C213.569,285.703,213.512,299.379,213.512,313.587
			z"/>
	</g>
</g>
<g id="Layer_3">
	<path fill-rule="evenodd" clip-rule="evenodd" d="M142.419,355.212c-0.489-0.754-0.897-1.578-1.478-2.252
		c-30.938-35.92-61.891-71.826-92.839-107.736c-0.165-0.191-0.291-0.418-0.583-0.843c2.744-3.349,5.527-6.747,8.386-10.237
		c24.826,14.024,49.523,27.976,74.298,41.972c5.167-6.932,10.196-13.771,15.322-20.538c30.391-40.116,63.613-77.706,100.561-111.913
		c28.852-26.713,59.594-50.98,93.75-70.687c0.727-0.42,1.462-0.828,2.413-1.366c1.343,1.794,2.653,3.543,3.961,5.295
		c1.312,1.76,2.62,3.523,4.037,5.429c-2.932,2.733-5.78,5.405-8.647,8.057c-59.21,54.781-108.793,117.268-149.617,186.782
		c-14.637,24.924-28.116,50.463-40.893,76.38c-0.251,0.511-0.334,1.104-0.497,1.658
		C147.869,355.212,145.144,355.212,142.419,355.212z"/>
</g>
</svg>
