<svg xmlns="http://www.w3.org/2000/svg">

<symbol id="userIco" viewBox="0 0 400 400">
<g>
	<g>

	<path fill-rule="evenodd" clip-rule="evenodd" d="M342.771,391.5c-95.655,0-190.903,0-286.764,0c0-3.009,0-5.818,0-8.629
		c0.007-29.106,0.046-58.212,0.012-87.317c-0.04-34.168,26.604-66.141,60.571-70.818c14.981-2.063,30.347-1.686,45.543-1.78
		c35.438-0.224,70.878-0.045,106.318-0.06c35.818-0.014,65.733,24.007,73.021,58.792c0.799,3.813,1.427,7.746,1.439,11.626
		c0.112,31.669,0.062,63.339,0.05,95.008C342.961,389.218,342.856,390.116,342.771,391.5z M315.666,363.96
		c0-24.185,0.921-47.881-0.256-71.475c-1.198-24.056-20.775-41.742-45.007-41.892c-47.193-0.291-94.39-0.306-141.583,0.037
		c-25.751,0.186-45.623,21.07-45.657,46.923c-0.027,20.656-0.007,41.314-0.008,61.973c0,1.446,0,2.894,0,4.434
		C160.952,363.96,238.114,363.96,315.666,363.96z"/>
	<path fill-rule="evenodd" clip-rule="evenodd" d="M277.481,144.475c-7.637,33.076-37.011,55.629-70.98,56.34
		c-15.018,0.314-29.957-0.025-43.791-6.741c-27.35-13.283-42.267-35.312-43.652-65.634c-0.79-17.296-0.633-34.721,0.474-52
		c2.191-34.213,31.407-63.382,65.535-66.498c14.947-1.364,29.88-1.602,44.287,3.386c31.356,10.857,50.625,38.333,50.881,72.151
		c0.051,6.638,0.007,13.276,0.007,19.914C280.58,105.422,280.393,131.859,277.481,144.475z M145.878,104.853
		c0.181,0.006,0.361,0.013,0.542,0.019c0,7.841-0.155,15.686,0.031,23.522c0.443,18.653,12.464,35.205,29.981,41.884
		c11.092,4.229,22.565,3.354,33.961,2.686c22.274-1.305,41.553-21.086,42.101-43.322c0.386-15.673,0.331-31.366,0.085-47.044
		c-0.327-20.782-13.314-38.411-33.519-43.631c-8.843-2.284-18.492-2.074-27.761-1.951c-21.391,0.281-40.052,15.654-43.759,36.767
		C145.76,83.923,146.358,94.482,145.878,104.853z"/>

	</g>
</g>
</symbol>

<symbol id="lockIco" viewBox="0 0 400 400">
<g id="Layer_1" display="none">
	<g display="inline">
		<path fill-rule="evenodd" clip-rule="evenodd" d="M342.771,391.5c-95.655,0-190.903,0-286.764,0c0-3.009,0-5.818,0-8.629
			c0.007-29.106,0.046-58.212,0.012-87.317c-0.04-34.168,26.604-66.141,60.571-70.818c14.981-2.063,30.347-1.686,45.543-1.78
			c35.438-0.224,70.878-0.045,106.318-0.06c35.818-0.014,65.733,24.007,73.021,58.792c0.799,3.813,1.427,7.746,1.439,11.626
			c0.112,31.669,0.062,63.339,0.05,95.008C342.961,389.218,342.856,390.116,342.771,391.5z M315.666,363.96
			c0-24.185,0.921-47.881-0.256-71.475c-1.198-24.056-20.775-41.742-45.007-41.892c-47.193-0.291-94.39-0.306-141.583,0.037
			c-25.751,0.186-45.623,21.07-45.657,46.923c-0.027,20.656-0.007,41.314-0.008,61.973c0,1.446,0,2.894,0,4.434
			C160.952,363.96,238.114,363.96,315.666,363.96z"/>
		<path fill-rule="evenodd" clip-rule="evenodd" d="M277.481,144.475c-7.637,33.076-37.011,55.629-70.98,56.34
			c-15.018,0.314-29.957-0.025-43.791-6.741c-27.35-13.283-42.267-35.312-43.652-65.634c-0.79-17.296-0.633-34.721,0.474-52
			c2.191-34.213,31.407-63.382,65.535-66.498c14.947-1.364,29.88-1.602,44.287,3.386c31.356,10.857,50.625,38.333,50.881,72.151
			c0.051,6.638,0.007,13.276,0.007,19.914C280.58,105.422,280.393,131.859,277.481,144.475z M145.878,104.853
			c0.181,0.006,0.361,0.013,0.542,0.019c0,7.841-0.155,15.686,0.031,23.522c0.443,18.653,12.464,35.205,29.981,41.884
			c11.092,4.229,22.565,3.354,33.961,2.686c22.274-1.305,41.553-21.086,42.101-43.322c0.386-15.673,0.331-31.366,0.085-47.044
			c-0.327-20.782-13.314-38.411-33.519-43.631c-8.843-2.284-18.492-2.074-27.761-1.951c-21.391,0.281-40.052,15.654-43.759,36.767
			C145.76,83.923,146.358,94.482,145.878,104.853z"/>
	</g>
</g>
<g id="Layer_2">
	<g>
		<path fill-rule="evenodd" clip-rule="evenodd" d="M302.895,135.745c28.963,2.365,47.621,22.667,47.617,51.148
			c-0.007,51.155,0.031,102.312-0.021,153.467c-0.025,25.351-15.317,44.994-39.304,49.589c-7.592,1.456-15.567,1.208-23.368,1.217
			c-62.592,0.076-125.181,0.063-187.772-0.004c-23.13-0.024-41.36-12.461-48.184-33.012c-1.492-4.493-2.499-9.383-2.514-14.093
			c-0.167-54.015-0.259-108.028-0.024-162.042c0.107-24.683,21.997-45.952,47.05-46.015c58.227-0.147,116.455-0.066,174.681-0.078
			c1.351,0,2.7,0,4.345,0c0.146-1.077,0.397-2.061,0.397-3.044c0.03-25.879,0.082-51.758,0.018-77.636
			c-0.027-10.985-7.422-18.571-18.383-18.6c-37.914-0.1-75.831-0.115-113.746,0.007c-11.906,0.038-19.77,8.385-19.794,20.377
			c-0.02,9.589-0.004,19.178-0.004,29.007c-9.272,0-18.077,0-27.545,0c0.688-14.482-1.792-28.98,1.896-43.125
			c4.838-18.555,23.242-33.078,42.613-33.229c39.871-0.313,79.747-0.352,119.616,0.006c22.85,0.204,42.229,20.336,42.37,43.255
			c0.159,25.877,0.049,51.757,0.056,77.636C302.896,132.207,302.895,133.839,302.895,135.745z M199.499,363.671
			c0,0.009,0,0.02,0,0.028c33.843,0,67.684,0.028,101.525-0.013c13.143-0.016,21.964-8.611,21.978-21.573
			c0.056-52.342,0.057-104.685,0.002-157.025c-0.013-13.093-9.126-22.079-22.148-22.08c-67.232-0.007-134.464-0.004-201.696,0.024
			c-13.873,0.006-22.838,8.991-22.847,22.888c-0.032,51.589,0.098,103.18-0.119,154.769c-0.057,13.604,10.224,23.27,22.685,23.12
			C132.414,363.403,165.958,363.671,199.499,363.671z"/>
		<path fill-rule="evenodd" clip-rule="evenodd" d="M213.512,313.587c-9.143,0-17.801,0-26.868,0
			c-0.066-1.517-0.185-2.959-0.187-4.401c-0.011-12.93,0.092-25.861-0.106-38.786c-0.027-1.765-1.07-4.054-2.416-5.167
			c-9.423-7.791-12.886-19.865-8.645-31.264c3.913-10.515,14.775-17.859,25.959-17.553c11.506,0.317,22.135,8.267,25.411,19.003
			c3.517,11.528-0.287,23.367-10.158,30.305c-2.478,1.741-3.061,3.556-3.039,6.306C213.569,285.703,213.512,299.379,213.512,313.587
			z"/>
	</g>
</g>
<g id="Layer_3" display="none">
	<path display="inline" fill-rule="evenodd" clip-rule="evenodd" d="M142.419,355.212c-0.489-0.754-0.897-1.578-1.478-2.252
		c-30.938-35.92-61.891-71.826-92.839-107.736c-0.165-0.191-0.291-0.418-0.583-0.843c2.744-3.349,5.527-6.747,8.386-10.237
		c24.826,14.024,49.523,27.976,74.298,41.972c5.167-6.932,10.196-13.771,15.322-20.538c30.391-40.116,63.613-77.706,100.561-111.913
		c28.852-26.713,59.594-50.98,93.75-70.687c0.727-0.42,1.462-0.828,2.413-1.366c1.343,1.794,2.653,3.543,3.961,5.295
		c1.312,1.76,2.62,3.523,4.037,5.429c-2.932,2.733-5.78,5.405-8.647,8.057c-59.21,54.781-108.793,117.268-149.617,186.782
		c-14.637,24.924-28.116,50.463-40.893,76.38c-0.251,0.511-0.334,1.104-0.497,1.658
		C147.869,355.212,145.144,355.212,142.419,355.212z"/>
</g>
</symbol>

<symbol id="emailIco" viewBox="0 0 400 400">
<g>
	<path fill-rule="evenodd" clip-rule="evenodd" d="M198.773,319.152c-41.672,0-83.344,0.027-125.016-0.01
		c-20.159-0.018-33.554-13.188-33.601-33.441c-0.122-52.213-0.077-104.428-0.02-156.643c0.009-8.271-0.432-16.678,0.849-24.783
		c2.343-14.837,15.467-25.353,30.649-25.427c27.111-0.132,54.224-0.068,81.335-0.068c56.859,0.002,113.719,0.003,170.578,0.03
		c20.397,0.01,33.768,13.098,33.82,33.617c0.135,51.838,0.06,103.677,0.039,155.515c-0.003,7.4,0.283,14.842-0.354,22.197
		c-1.47,16.916-14.748,28.947-31.759,28.984c-39.788,0.086-79.577,0.029-119.367,0.029
		C203.543,319.152,201.158,319.152,198.773,319.152z M198.754,296.555c20.582,0,41.166,0,61.748,0
		c21.336,0,42.669,0.021,64.005-0.018c6.579-0.012,9.938-3.307,10.266-9.857c0.068-1.379,0.032-2.762,0.033-4.141
		c0-45.557,0-91.113,0-136.669c0-11.421,0.068-22.842-0.03-34.261c-0.058-6.809-3.494-10.092-10.273-10.186
		c-1.13-0.017-2.259-0.021-3.388-0.021c-82.08-0.001-164.159-0.002-246.238,0.001c-9.22,0-12.153,2.91-12.154,12.126
		c-0.007,56.976-0.007,113.954,0,170.93c0.001,9.256,2.854,12.09,12.16,12.094C116.173,296.561,157.464,296.555,198.754,296.555z"/>
	<path fill-rule="evenodd" clip-rule="evenodd" d="M155.655,210.295c-18.279,18.068-36.384,35.967-54.387,53.762
		c-5.175-5.326-10.299-10.602-15.69-16.15c17.168-16.873,34.95-34.348,53.108-52.193c-18.143-15.623-35.495-30.563-53.156-45.77
		c4.877-5.699,9.648-11.275,14.674-17.148c5.38,4.604,10.598,9.045,15.791,13.514c25.682,22.101,51.351,44.217,77.042,66.307
		c5.078,4.367,6.699,4.305,11.917-0.201c29.447-25.424,58.893-50.851,88.341-76.274c1.22-1.053,2.468-2.074,3.932-3.302
		c4.951,5.731,9.767,11.302,14.747,17.066c-17.566,15.185-34.912,30.179-52.886,45.714c18.049,17.662,35.882,35.113,53.539,52.395
		c-5.621,5.678-10.73,10.84-15.623,15.781c-17.974-17.846-36.005-35.748-54.208-53.822c-1.304,0.973-2.206,1.568-3.02,2.268
		c-7.233,6.215-14.447,12.455-21.675,18.678c-11.542,9.943-26.909,9.959-38.436,0.043
		C171.595,224.02,163.529,217.072,155.655,210.295z"/>
</g>
</symbol>

<symbol id="backIco" viewBox="0 0 400 400">
<g id="Layer_1" display="none">
	<g display="inline">
		<path fill-rule="evenodd" clip-rule="evenodd" fill="#3C474B" d="M203.937,390c-3.958,0-7.916,0-11.873,0
			c-0.702-0.217-1.39-0.521-2.107-0.635c-22.704-3.604-40.163-19.699-45.628-42.087c-0.374-1.533-0.742-3.067-1.154-4.771
			c-32.065,0-63.939,0-95.814,0c0-5.193,0-10.388,0-15.583c18.859-0.717,32.628-15.31,32.128-36.817
			c-0.813-34.972-0.2-69.978-0.231-104.969c-0.009-10.201,1.109-20.263,4.2-29.979c12.614-39.654,39.971-64.229,78.985-76.754
			c2.139-0.688,4.32-1.243,6.764-1.941c-0.777-0.963-1.229-1.536-1.694-2.098c-17.836-21.518-8.113-54.313,18.554-62.53
			c2.218-0.684,4.492-1.188,6.74-1.775c3.464,0,6.925,0,10.389,0c0.574,0.21,1.133,0.504,1.727,0.621
			c30.51,5.964,42.85,40.318,23.077,64.253c-0.37,0.45-0.646,0.98-0.542,0.822c9.954,4.078,20.344,7.232,29.659,12.342
			c38.468,21.1,60.082,52.707,59.68,97.836c-0.321,36.215-0.071,72.436-0.059,108.654c0.004,10.137,3.994,18.443,11.719,24.958
			c5.82,4.912,12.777,6.774,20.185,7.376c0,5.195,0,10.39,0,15.583c-31.961,0-63.922,0-95.931,0
			c-0.249,1.169-0.391,1.884-0.554,2.591c-5.076,21.991-18.28,36.451-39.961,42.989C209.496,388.9,206.691,389.371,203.937,390z
			 M312.3,326.618c-0.486-0.9-0.661-1.35-0.939-1.72c-7.462-9.973-10.589-21.129-10.5-33.62c0.259-36.354,0.067-72.71,0.101-109.067
			c0.022-23.665-8.086-44.218-24.771-60.829C247.4,92.725,212.36,83.886,173.204,92.13c-42.087,8.86-79.727,45.354-78.341,98.017
			c0.91,34.602,0.118,69.246,0.2,103.87c0.026,11.407-2.991,21.69-10.136,30.678c-0.392,0.493-0.566,1.158-0.926,1.924
			C160.151,326.618,235.93,326.618,312.3,326.618z M190.082,71.349c0-7.186,0-14.273,0-21.433c5.508,0,10.583,0,15.889,0
			c0,3.792,0,7.239,0,10.686c0,3.55,0,7.099,0,10.731c10.089-2.509,16.955-13.474,15.654-24.526
			c-1.423-12.084-11.279-20.905-23.422-20.961c-12.389-0.057-22.352,8.701-23.82,20.938
			C173.058,57.831,179.89,68.771,190.082,71.349z M159.449,342.511c3.362,18.511,21.378,32.609,39.835,31.663
			c18.482-0.947,35.73-15.577,37.062-31.663c-4.827,0-9.641-0.104-14.441,0.094c-0.876,0.037-2.045,1.126-2.497,2.021
			c-4.489,8.894-11.598,13.653-21.595,13.594c-9.842-0.06-16.817-4.833-21.234-13.576c-0.455-0.899-1.613-2.002-2.484-2.037
			C169.294,342.407,164.48,342.511,159.449,342.511z"/>
		<path fill-rule="evenodd" clip-rule="evenodd" fill="#02B0ED" d="M268.918,199.858c-23.665,0-47.101,0-70.728,0
			c0-26.324,0-52.48,0-78.646C231.668,116.11,276.174,142.147,268.918,199.858z"/>
	</g>
</g>
<g id="Layer_2" display="none">
	<path display="inline" fill-rule="evenodd" clip-rule="evenodd" d="M48.695,343.55c0-4.85-0.01-9.073,0.01-13.296
		c0.003-0.731,0.138-1.463,0.228-2.359c2.385-0.385,4.739-0.615,7.017-1.16c14.598-3.493,24.666-16.114,24.691-31.176
		c0.061-35.631,0.688-71.276-0.132-106.887c-1.288-55.936,38.084-99.083,86.888-112.046c1.173-0.312,2.338-0.654,3.984-1.116
		c-8.893-9.568-12.279-20.678-10.481-33.206c1.396-9.723,5.919-17.901,13.438-24.293c14.898-12.667,37.391-12.606,52.172,0.241
		c8.504,7.391,12.959,16.846,13.533,28.123c0.564,11.128-3.084,20.745-10.17,28.37c10.086,4.13,20.445,7.443,29.925,12.428
		c29.006,15.255,49.286,38.088,57.27,70.449c1.915,7.77,2.669,15.997,2.73,24.022c0.278,37.122,0.484,74.254-0.021,111.373
		c-0.277,20.3,14.598,33.843,30.078,34.542c0.485,0.021,0.964,0.169,1.725,0.311c0,5.062,0,10.086,0,15.488
		c-31.921,0-63.869,0-95.993,0c-0.671,2.69-1.189,5.096-1.87,7.453c-7.239,25.082-29.961,41.494-56.089,40.548
		c-24.864-0.901-46.635-19.554-51.736-44.611c-0.572-2.807-1.645-3.251-4.138-3.245c-29.401,0.076-58.802,0.048-88.203,0.048
		C52.082,343.55,50.615,343.55,48.695,343.55z M315.414,327.473c-10.765-17.704-11.392-19.97-11.392-40.563
		c0-35.012-0.011-70.022,0.004-105.034c0.009-23.846-8.243-44.521-25.068-61.245c-28.7-28.529-63.663-37.509-102.719-29.561
		c-43.808,8.916-80.883,46.367-79.831,97.634c0.724,35.247,0.077,70.519,0.172,105.779c0.031,11.768-3.07,22.35-10.565,31.531
		c-0.271,0.331-0.4,0.776-0.738,1.458C162.111,327.473,238.53,327.473,315.414,327.473z M208.324,70.286
		c9.873-2.225,16.844-13.078,15.811-24.236c-1.123-12.132-10.859-21.176-23.2-21.55c-12.371-0.375-22.584,8.276-24.385,20.656
		c-1.619,11.135,5.172,22.294,15.841,25.25c0-7.368,0-14.592,0-21.684c5.604,0,10.632,0,15.933,0
		C208.324,56.104,208.324,63.165,208.324,70.286z M161.478,343.553c3.091,18.282,21.095,32.56,39.678,31.922
		c18.653-0.642,36.041-15.202,37.822-31.922c-4.866,0-9.711-0.079-14.547,0.078c-0.842,0.027-2.04,0.872-2.414,1.655
		c-4.409,9.216-11.629,14.129-21.859,14.088c-10.069-0.037-17.172-4.933-21.573-13.965c-0.416-0.854-1.756-1.738-2.698-1.773
		C171.173,343.455,166.447,343.553,161.478,343.553z"/>
</g>
<g id="Layer_3" display="none">
	<path display="inline" fill-rule="evenodd" clip-rule="evenodd" d="M93.584,319.333c0-77.449,0-154.099,0-230.691
		c104.568-12.909,227.137,64.836,207.601,230.691C232.341,319.333,163.404,319.333,93.584,319.333z"/>
</g>
<g id="Layer_4" display="none">
	<path display="inline" fill-rule="evenodd" clip-rule="evenodd" d="M267.997,288.242c-73.048,58.826-166.478,41.386-218.763-22.406
		C-1.812,203.559,2.784,116.637,60.216,59.208c57.43-57.428,144.355-62.016,206.63-10.971
		c63.698,52.21,81.282,145.634,22.852,218.199c1.166,1.234,2.354,2.55,3.607,3.802c29.47,29.484,58.931,58.98,88.44,88.424
		c4.626,4.618,7.152,9.768,5.36,16.407c-2.911,10.795-15.476,15.146-24.385,8.399c-1.445-1.095-2.718-2.431-4.009-3.72
		c-29.058-29.036-58.109-58.078-87.138-87.145C270.298,291.327,269.269,289.806,267.997,288.242z M169.78,43.853
		C98.804,43.76,44.884,97.587,44.854,168.563C44.826,239.366,98.4,292.978,169.338,293.128
		c71.156,0.148,124.813-53.416,124.791-124.577C294.104,97.616,240.584,43.946,169.78,43.853z"/>
</g>
<g id="Layer_5">
	<path fill-rule="evenodd" clip-rule="evenodd" d="M105.418,174.414c2.613,0,4.238,0,5.863,0c82.776,0,165.553-0.013,248.33,0.012
		c15.938,0.005,27.861,12.078,27.389,27.564c-0.414,13.586-11.64,24.953-25.247,25.545c-1.521,0.064-3.045,0.034-4.566,0.034
		c-82.085,0-164.17,0-246.254,0c-1.5,0-3,0-5.386,0c1.483,1.604,2.419,2.688,3.43,3.698c19.179,19.189,38.404,38.334,57.537,57.57
		c8.158,8.202,10.076,18.826,5.533,29c-4.632,10.372-14.618,16.594-25.837,15.992c-6.336-0.34-11.817-2.794-16.298-7.272
		c-35.935-35.908-71.912-71.775-107.725-107.806c-10.147-10.21-9.957-25.188,0.227-35.76c9.602-9.969,19.518-19.632,29.305-29.421
		c25.838-25.843,51.656-51.706,77.536-77.505c8.252-8.226,19.238-10.218,29.38-5.595c9.853,4.491,16.254,14.888,15.717,25.701
		c-0.355,7.142-3.631,12.861-8.638,17.842c-19.138,19.035-38.193,38.153-57.277,57.243
		C107.661,172.03,106.92,172.839,105.418,174.414z"/>
</g>
</symbol>

<symbol id="questionIco" viewBox="0 0 400 400">
    <g id="Layer_1_1_" display="none">
	<g display="inline">
		<path fill="#3C474B" d="M203.938,390c-3.958,0-7.917,0-11.874,0c-0.702-0.217-1.39-0.521-2.107-0.635
			c-22.704-3.604-40.163-19.699-45.628-42.088c-0.374-1.532-0.742-3.066-1.154-4.771c-32.065,0-63.939,0-95.814,0
			c0-5.191,0-10.388,0-15.583c18.859-0.717,32.628-15.311,32.128-36.815c-0.813-34.974-0.2-69.979-0.231-104.97
			c-0.009-10.201,1.109-20.263,4.2-29.979c12.614-39.654,39.971-64.229,78.985-76.754c2.139-0.688,4.32-1.243,6.764-1.941
			c-0.777-0.963-1.229-1.536-1.694-2.098c-17.836-21.518-8.113-54.313,18.554-62.53c2.218-0.684,4.492-1.188,6.74-1.775
			c3.464,0,6.925,0,10.388,0c0.574,0.21,1.134,0.504,1.728,0.621C235.434,16.646,247.773,51,228,74.935
			c-0.37,0.45-0.646,0.98-0.542,0.822c9.954,4.078,20.344,7.232,29.659,12.342c38.468,21.1,60.082,52.707,59.68,97.836
			c-0.32,36.215-0.07,72.436-0.059,108.654c0.004,10.138,3.994,18.443,11.719,24.958c5.82,4.912,12.777,6.773,20.186,7.376
			c0,5.195,0,10.391,0,15.583c-31.961,0-63.922,0-95.932,0c-0.249,1.169-0.391,1.885-0.554,2.592
			c-5.076,21.99-18.28,36.45-39.962,42.988C209.496,388.9,206.691,389.371,203.938,390z M312.3,326.618
			c-0.485-0.9-0.661-1.352-0.938-1.72c-7.463-9.975-10.59-21.129-10.5-33.621c0.26-36.354,0.066-72.709,0.102-109.066
			c0.021-23.665-8.086-44.218-24.771-60.829C247.4,92.725,212.359,83.886,173.204,92.13c-42.087,8.86-79.727,45.354-78.341,98.017
			c0.91,34.602,0.118,69.246,0.2,103.871c0.026,11.406-2.991,21.689-10.136,30.679c-0.392,0.492-0.566,1.157-0.926,1.924
			C160.151,326.618,235.93,326.618,312.3,326.618z M190.082,71.349c0-7.186,0-14.273,0-21.433c5.508,0,10.583,0,15.889,0
			c0,3.792,0,7.239,0,10.686c0,3.55,0,7.099,0,10.731c10.09-2.509,16.955-13.474,15.654-24.526
			c-1.423-12.084-11.279-20.905-23.422-20.961c-12.389-0.057-22.352,8.701-23.82,20.938
			C173.058,57.831,179.89,68.771,190.082,71.349z M159.449,342.511c3.362,18.511,21.378,32.609,39.835,31.663
			c18.481-0.947,35.729-15.576,37.062-31.663c-4.826,0-9.641-0.104-14.44,0.096c-0.875,0.036-2.046,1.125-2.496,2.021
			c-4.489,8.895-11.599,13.653-21.595,13.594c-9.842-0.06-16.817-4.833-21.234-13.575c-0.455-0.898-1.613-2.002-2.484-2.036
			C169.294,342.407,164.48,342.511,159.449,342.511z"/>
		<path fill="#02B0ED" d="M268.918,199.858c-23.665,0-47.102,0-70.728,0c0-26.324,0-52.48,0-78.646
			C231.668,116.11,276.174,142.147,268.918,199.858z"/>
	</g>
</g>
<g id="Layer_2" display="none">
	<path display="inline" d="M48.695,343.55c0-4.85-0.01-9.073,0.01-13.296c0.003-0.729,0.138-1.463,0.228-2.359
		c2.385-0.385,4.739-0.614,7.017-1.159c14.598-3.492,24.666-16.113,24.691-31.177c0.061-35.631,0.688-71.274-0.132-106.887
		c-1.288-55.936,38.084-99.083,86.888-112.046c1.173-0.312,2.338-0.654,3.984-1.116c-8.893-9.568-12.279-20.678-10.481-33.206
		c1.396-9.723,5.919-17.901,13.438-24.293c14.898-12.667,37.391-12.604,52.172,0.241c8.504,7.391,12.959,16.846,13.533,28.123
		c0.564,11.128-3.084,20.745-10.17,28.37c10.086,4.13,20.445,7.443,29.925,12.428c29.007,15.255,49.286,38.088,57.271,70.449
		c1.916,7.77,2.67,15.997,2.729,24.022c0.278,37.122,0.484,74.254-0.021,111.374c-0.277,20.3,14.598,33.843,30.078,34.541
		c0.483,0.021,0.963,0.171,1.725,0.313c0,5.062,0,10.086,0,15.487c-31.921,0-63.869,0-95.993,0c-0.671,2.689-1.188,5.097-1.87,7.452
		c-7.238,25.082-29.961,41.494-56.089,40.55c-24.864-0.901-46.635-19.556-51.736-44.611c-0.572-2.807-1.645-3.251-4.138-3.245
		c-29.401,0.076-58.802,0.048-88.203,0.048C52.082,343.55,50.615,343.55,48.695,343.55z M315.414,327.473
		c-10.766-17.703-11.393-19.97-11.393-40.563c0-35.012-0.011-70.021,0.004-105.034c0.01-23.846-8.242-44.521-25.067-61.245
		c-28.7-28.529-63.663-37.509-102.719-29.561c-43.808,8.916-80.883,46.367-79.831,97.634c0.724,35.247,0.077,70.519,0.172,105.778
		c0.031,11.769-3.07,22.351-10.565,31.53c-0.271,0.332-0.4,0.776-0.738,1.459C162.111,327.473,238.529,327.473,315.414,327.473z
		 M208.324,70.286c9.873-2.225,16.844-13.078,15.811-24.236c-1.123-12.132-10.859-21.176-23.199-21.55
		c-12.372-0.375-22.583,8.276-24.386,20.656c-1.619,11.135,5.172,22.294,15.841,25.25c0-7.368,0-14.592,0-21.684
		c5.604,0,10.632,0,15.933,0C208.324,56.104,208.324,63.165,208.324,70.286z M161.478,343.553
		c3.091,18.282,21.095,32.562,39.678,31.922c18.652-0.642,36.041-15.2,37.822-31.922c-4.867,0-9.711-0.078-14.547,0.078
		c-0.844,0.027-2.041,0.872-2.414,1.655c-4.41,9.216-11.629,14.129-21.859,14.088c-10.069-0.037-17.172-4.933-21.573-13.965
		c-0.416-0.854-1.756-1.738-2.698-1.772C171.173,343.455,166.447,343.553,161.478,343.553z"/>
</g>
<g id="Layer_3" display="none">
	<path display="inline" d="M93.584,319.333c0-77.449,0-154.099,0-230.691c104.568-12.909,227.137,64.836,207.602,230.691
		C232.341,319.333,163.404,319.333,93.584,319.333z"/>
</g>
<g id="Layer_4" display="none">
	<path display="inline" d="M267.997,288.242c-73.048,58.826-166.478,41.386-218.763-22.406
		C-1.812,203.559,2.784,116.637,60.216,59.208C117.646,1.78,204.57-2.808,266.846,48.237
		c63.698,52.21,81.282,145.634,22.854,218.199c1.165,1.234,2.354,2.551,3.605,3.804c29.471,29.483,58.932,58.979,88.44,88.424
		c4.626,4.618,7.151,9.768,5.36,16.406c-2.912,10.796-15.478,15.146-24.387,8.398c-1.443-1.095-2.718-2.431-4.009-3.72
		c-29.058-29.036-58.108-58.078-87.14-87.145C270.298,291.327,269.27,289.807,267.997,288.242z M169.78,43.853
		C98.804,43.76,44.884,97.587,44.854,168.563C44.826,239.366,98.4,292.979,169.338,293.128
		c71.156,0.147,124.813-53.416,124.791-124.577C294.104,97.616,240.584,43.946,169.78,43.853z"/>
</g>
<path fill-rule="evenodd" clip-rule="evenodd" d="M41.347,195.096c0.492-88.024,71.861-158.975,159.315-158.382
	c87.707,0.594,158.408,71.757,157.991,159.022c-0.419,87.622-71.646,158.614-158.796,158.274
	C112.085,353.667,40.859,282.261,41.347,195.096z M200.102,50.462c-79.75-0.157-144.591,64.58-144.854,144.622
	c-0.263,79.986,64.481,144.883,144.678,145.023c79.839,0.139,144.484-64.311,144.963-144.523
	C345.363,116.007,280.128,50.62,200.102,50.462z"/>
<path fill-rule="evenodd" clip-rule="evenodd" d="M172.204,167.791c-5.901,0-11.579,0-17.926,0c0.427-3.957,0.632-7.776,1.277-11.52
	c3.695-21.418,18.876-35.186,40.576-36.651c12.234-0.826,23.855,1.121,33.825,8.982c12.527,9.878,17.992,27.644,12.844,42.771
	c-1.148,3.377-3.115,6.678-5.416,9.418c-4.492,5.349-9.476,10.287-14.278,15.375c-1.553,1.644-3.154,3.241-4.767,4.827
	c-7.147,7.033-11.233,15.396-11.233,25.576c0,1.703-0.232,3.406-0.368,5.267c-5.877,0-11.637,0-17.649,0
	c-0.163-11.885,1.051-23.293,8.933-32.644c5.607-6.651,11.833-12.791,17.902-19.041c4.691-4.83,8.131-10.25,9.264-16.997
	c2.393-14.262-6.674-26.333-21.027-27.604c-3.712-0.329-7.579-0.269-11.235,0.389c-10.549,1.899-17.006,8.933-19.145,20.427
	C173.093,160.052,172.744,163.802,172.204,167.791z"/>
<path fill-rule="evenodd" clip-rule="evenodd" d="M188.702,248.915c6.728,0,13.141,0,19.75,0c0,6.926,0,13.735,0,20.708
	c-6.609,0-13.115,0-19.75,0C188.702,262.694,188.702,255.957,188.702,248.915z"/>
</symbol>
<symbol id="uniqueidIco" viewBox="0 0 400 400">
 <g id="Layer_1_1_" display="none">
	<g display="inline">
		<path fill="#3C474B" d="M203.938,390c-3.958,0-7.917,0-11.874,0c-0.702-0.217-1.39-0.521-2.107-0.635
			c-22.704-3.604-40.163-19.699-45.628-42.088c-0.374-1.532-0.742-3.066-1.154-4.771c-32.065,0-63.939,0-95.814,0
			c0-5.192,0-10.388,0-15.583c18.859-0.717,32.628-15.311,32.128-36.816c-0.813-34.973-0.2-69.979-0.231-104.969
			c-0.009-10.201,1.109-20.263,4.2-29.979c12.614-39.654,39.971-64.229,78.985-76.754c2.139-0.688,4.32-1.243,6.764-1.941
			c-0.777-0.963-1.229-1.536-1.694-2.098c-17.836-21.518-8.113-54.313,18.554-62.53c2.218-0.684,4.492-1.188,6.74-1.775
			c3.464,0,6.925,0,10.388,0c0.574,0.21,1.134,0.504,1.728,0.621C235.434,16.646,247.773,51,228,74.935
			c-0.37,0.45-0.646,0.98-0.542,0.822c9.954,4.078,20.344,7.232,29.659,12.342c38.468,21.1,60.082,52.707,59.68,97.836
			c-0.321,36.215-0.071,72.436-0.059,108.654c0.004,10.138,3.994,18.443,11.719,24.958c5.82,4.912,12.777,6.773,20.185,7.376
			c0,5.195,0,10.39,0,15.583c-31.961,0-63.921,0-95.931,0c-0.249,1.169-0.391,1.885-0.554,2.592
			c-5.076,21.99-18.28,36.45-39.962,42.988C209.496,388.9,206.691,389.371,203.938,390z M312.3,326.618
			c-0.485-0.9-0.661-1.351-0.938-1.72c-7.463-9.974-10.59-21.129-10.5-33.621c0.259-36.354,0.066-72.709,0.101-109.066
			c0.022-23.665-8.086-44.218-24.771-60.829C247.4,92.725,212.359,83.886,173.204,92.13c-42.087,8.86-79.727,45.354-78.341,98.017
			c0.91,34.602,0.118,69.246,0.2,103.871c0.026,11.406-2.991,21.689-10.136,30.678c-0.392,0.492-0.566,1.158-0.926,1.924
			C160.151,326.618,235.93,326.618,312.3,326.618z M190.082,71.349c0-7.186,0-14.273,0-21.433c5.508,0,10.583,0,15.889,0
			c0,3.792,0,7.239,0,10.686c0,3.55,0,7.099,0,10.731c10.09-2.509,16.955-13.474,15.654-24.526
			c-1.423-12.084-11.279-20.905-23.422-20.961c-12.389-0.057-22.352,8.701-23.82,20.938
			C173.058,57.831,179.89,68.771,190.082,71.349z M159.449,342.511c3.362,18.511,21.378,32.609,39.835,31.663
			c18.481-0.947,35.729-15.576,37.062-31.663c-4.826,0-9.641-0.104-14.441,0.095c-0.875,0.037-2.045,1.125-2.496,2.021
			c-4.489,8.894-11.598,13.653-21.595,13.594c-9.842-0.06-16.817-4.833-21.234-13.575c-0.455-0.899-1.613-2.002-2.484-2.037
			C169.294,342.407,164.48,342.511,159.449,342.511z"/>
		<path fill="#02B0ED" d="M268.918,199.858c-23.665,0-47.102,0-70.728,0c0-26.324,0-52.48,0-78.646
			C231.668,116.11,276.174,142.147,268.918,199.858z"/>
	</g>
</g>
<g id="Layer_2" display="none">
	<path display="inline" d="M48.695,343.55c0-4.85-0.01-9.073,0.01-13.296c0.003-0.73,0.138-1.463,0.228-2.359
		c2.385-0.385,4.739-0.615,7.017-1.16c14.598-3.492,24.666-16.113,24.691-31.176c0.061-35.631,0.688-71.275-0.132-106.887
		c-1.288-55.936,38.084-99.083,86.888-112.046c1.173-0.312,2.338-0.654,3.984-1.116c-8.893-9.568-12.279-20.678-10.481-33.206
		c1.396-9.723,5.919-17.901,13.438-24.293c14.898-12.667,37.391-12.605,52.172,0.241c8.504,7.391,12.959,16.846,13.533,28.123
		c0.564,11.128-3.084,20.745-10.17,28.37c10.086,4.13,20.445,7.443,29.925,12.428c29.007,15.255,49.286,38.088,57.271,70.449
		c1.915,7.77,2.669,15.997,2.729,24.022c0.278,37.122,0.484,74.254-0.021,111.374c-0.277,20.299,14.598,33.842,30.078,34.541
		c0.484,0.021,0.964,0.17,1.725,0.312c0,5.062,0,10.086,0,15.487c-31.921,0-63.869,0-95.993,0c-0.671,2.69-1.188,5.097-1.87,7.453
		c-7.238,25.082-29.961,41.494-56.089,40.549c-24.864-0.901-46.635-19.555-51.736-44.611c-0.572-2.807-1.645-3.251-4.138-3.245
		c-29.401,0.076-58.802,0.048-88.203,0.048C52.082,343.55,50.615,343.55,48.695,343.55z M315.414,327.473
		c-10.766-17.703-11.393-19.97-11.393-40.563c0-35.012-0.01-70.021,0.004-105.034c0.01-23.846-8.242-44.521-25.067-61.245
		c-28.7-28.529-63.663-37.509-102.719-29.561c-43.808,8.916-80.883,46.367-79.831,97.634c0.724,35.247,0.077,70.519,0.172,105.778
		c0.031,11.769-3.07,22.351-10.565,31.531c-0.271,0.332-0.4,0.776-0.738,1.459C162.111,327.473,238.529,327.473,315.414,327.473z
		 M208.324,70.286c9.873-2.225,16.844-13.078,15.811-24.236c-1.123-12.132-10.859-21.176-23.199-21.55
		c-12.372-0.375-22.584,8.276-24.386,20.656c-1.619,11.135,5.172,22.294,15.841,25.25c0-7.368,0-14.592,0-21.684
		c5.604,0,10.632,0,15.933,0C208.324,56.104,208.324,63.165,208.324,70.286z M161.478,343.553
		c3.091,18.282,21.095,32.561,39.678,31.922c18.652-0.642,36.041-15.201,37.822-31.922c-4.867,0-9.711-0.078-14.547,0.078
		c-0.843,0.027-2.041,0.872-2.414,1.655c-4.41,9.216-11.629,14.129-21.859,14.088c-10.069-0.037-17.172-4.933-21.573-13.965
		c-0.416-0.854-1.756-1.738-2.698-1.772C171.173,343.455,166.447,343.553,161.478,343.553z"/>
</g>
<g id="Layer_3" display="none">
	<path display="inline" d="M93.584,319.333c0-77.449,0-154.099,0-230.691c104.568-12.909,227.137,64.836,207.602,230.691
		C232.341,319.333,163.404,319.333,93.584,319.333z"/>
</g>
<g id="Layer_4" display="none">
	<path display="inline" d="M267.997,288.242c-73.048,58.826-166.478,41.386-218.763-22.406
		C-1.812,203.559,2.784,116.637,60.216,59.208C117.646,1.78,204.57-2.808,266.846,48.237
		c63.698,52.21,81.282,145.634,22.853,218.199c1.165,1.234,2.354,2.551,3.606,3.803c29.471,29.484,58.932,58.979,88.44,88.424
		c4.626,4.618,7.152,9.768,5.36,16.406c-2.911,10.796-15.477,15.146-24.386,8.399c-1.444-1.095-2.718-2.431-4.009-3.72
		c-29.058-29.036-58.109-58.078-87.139-87.145C270.298,291.327,269.27,289.807,267.997,288.242z M169.78,43.853
		C98.804,43.76,44.884,97.587,44.854,168.563C44.826,239.366,98.4,292.979,169.338,293.128
		c71.156,0.147,124.813-53.416,124.791-124.577C294.104,97.616,240.584,43.946,169.78,43.853z"/>
</g>
<g>
	<path fill-rule="evenodd" clip-rule="evenodd" d="M282.444,83.221c-29.333-24.042-62.087-35.486-99.571-30.972
		c-37.301,4.493-66.574,22.937-88.783,53.211c-6.171-4.642-12.112-9.11-18.038-13.567c41.25-66.221,150.408-90.497,220.877-25.421
		C292.099,72.059,287.256,77.657,282.444,83.221z"/>
	<path fill-rule="evenodd" clip-rule="evenodd" d="M301.776,224.175c-7.905,0-15.303,0-23.121,0c0-7.403,0.003-14.591-0.001-21.78
		c-0.005-8.545,0.095-17.093-0.043-25.637c-0.832-51.456-49.626-89.118-99.618-76.937c-1.269,0.31-2.544,0.598-4.101,0.962
		c-2.301-7.235-4.548-14.301-7.089-22.289c6.118-1.219,11.891-2.784,17.765-3.474c53.143-6.25,101.541,27.918,113.65,80.035
		c2.947,12.691,2.538,25.583,2.555,38.456C301.786,203.613,301.776,213.717,301.776,224.175z"/>
	<path fill-rule="evenodd" clip-rule="evenodd" d="M163.411,247.27c-7.884,0-15.283,0-23.138,0c0-4.613,0-9.031,0-13.45
		c0-17.938,0.206-35.88-0.04-53.815c-0.603-43.966,41.607-70.276,79.749-55.269c20.439,8.044,34.953,28.65,35.526,50.578
		c0.022,0.822,0.003,1.645,0.003,2.702c-7.652,0-15.063,0-22.647,0c-0.457-2.81-0.752-5.668-1.403-8.444
		c-3.901-16.602-19.384-27.459-36.771-25.87c-17.041,1.557-30.515,14.713-31.011,31.619c-0.594,20.209-0.223,40.446-0.267,60.67
		C163.404,239.688,163.411,243.386,163.411,247.27z"/>
	<path fill-rule="evenodd" clip-rule="evenodd" d="M347.853,293.457c-7.83,0-15.23,0-23.064,0c0-9.304-0.003-18.406,0-27.509
		c0.008-28.643-0.037-57.285,0.043-85.927c0.084-29.508-8.354-56.159-26.347-79.67c-0.359-0.47-0.707-0.95-1.32-1.777
		c6.071-4.564,12.077-9.079,18.639-14.011c3.8,5.77,7.742,11.187,11.093,16.946c13.978,24.022,20.998,49.958,20.967,77.792
		c-0.041,36.707-0.01,73.414-0.01,110.12C347.853,290.617,347.853,291.815,347.853,293.457z"/>
	<path fill-rule="evenodd" clip-rule="evenodd" d="M60.788,117.071c7.451,3.15,14.501,6.131,21.132,8.935
		c-2.663,8.297-5.938,16.118-7.584,24.268c-1.843,9.133-2.898,18.55-3.083,27.868c-0.432,21.879-0.141,43.774-0.142,65.662
		c0,1.057,0,2.115,0,3.421c-7.687,0-15.083,0-22.806,0c-0.076-1.008-0.219-2.036-0.22-3.065c-0.008-22.73-0.149-45.462,0.051-68.19
		c0.171-19.44,4.126-38.183,11.461-56.198C59.909,119.005,60.263,118.258,60.788,117.071z"/>
	<path fill-rule="evenodd" clip-rule="evenodd" d="M278.938,247.621c7.641,0,15.046,0,22.645,0c0,42.25,0,84.297,0,126.576
		c-7.552,0-14.95,0-22.645,0C278.938,332.069,278.938,290.043,278.938,247.621z"/>
	<path fill-rule="evenodd" clip-rule="evenodd" d="M140.572,270.704c7.598,0,14.991,0,22.619,0c0,34.536,0,68.866,0,103.461
		c-7.556,0-14.937,0-22.619,0C140.572,339.767,140.572,305.443,140.572,270.704z"/>
	<path fill-rule="evenodd" clip-rule="evenodd" d="M94.433,178.029c-0.979-33.213,17.999-69.88,50.551-88.503
		c3.755,6.358,7.517,12.728,11.408,19.317c-25.56,15.938-38.1,39.284-39.307,69.186C109.494,178.029,102.093,178.029,94.433,178.029
		z"/>
	<path fill-rule="evenodd" clip-rule="evenodd" d="M116.983,293.449c-7.596,0-14.991,0-22.611,0c0-30.691,0-61.188,0-91.927
		c7.502,0,14.91,0,22.611,0C116.983,231.999,116.983,262.494,116.983,293.449z"/>
	<path fill-rule="evenodd" clip-rule="evenodd" d="M255.331,291.222c-7.602,0-14.906,0-22.524,0c0-29.866,0-59.63,0-89.667
		c7.432,0,14.818,0,22.524,0C255.331,231.285,255.331,261.053,255.331,291.222z"/>
	<path fill-rule="evenodd" clip-rule="evenodd" d="M186.542,316.5c0-23.058,0-45.772,0-68.785c7.588,0,15.069,0,22.771,0
		c0,22.93,0,45.728,0,68.785C201.73,316.5,194.342,316.5,186.542,316.5z"/>
	<path fill-rule="evenodd" clip-rule="evenodd" d="M70.875,328.069c-7.648,0-15.051,0-22.625,0c0-19.194,0-38.154,0-57.343
		c7.557,0,14.96,0,22.625,0C70.875,289.769,70.875,308.732,70.875,328.069z"/>
	<path fill-rule="evenodd" clip-rule="evenodd" d="M94.469,316.903c7.502,0,14.895,0,22.547,0c0,19.083,0,38.021,0,57.243
		c-7.453,0-14.838,0-22.547,0C94.469,355.154,94.469,336.142,94.469,316.903z"/>
	<path fill-rule="evenodd" clip-rule="evenodd" d="M232.531,317.976c7.837,0,15.226,0,22.863,0c0,18.778,0,37.354,0,56.422
		c-7.151,0-14.205,0.078-21.25-0.146c-0.577-0.019-1.552-2.087-1.561-3.207c-0.101-14.428-0.058-28.857-0.053-43.285
		C232.531,324.549,232.531,321.337,232.531,317.976z"/>
	<path fill-rule="evenodd" clip-rule="evenodd" d="M209.182,224.228c-7.583,0-14.885,0-22.493,0c0-15.257,0-30.347,0-45.733
		c7.352,0,14.748,0,22.493,0C209.182,193.521,209.182,208.712,209.182,224.228z"/>
	<path fill-rule="evenodd" clip-rule="evenodd" d="M325.059,316.913c7.638,0,15.036,0,22.613,0c0,11.487,0,22.74,0,34.239
		c-7.536,0-14.938,0-22.613,0C325.059,339.795,325.059,328.559,325.059,316.913z"/>
	<path fill-rule="evenodd" clip-rule="evenodd" d="M186.632,339.932c7.732,0,15.025,0,22.605,0c0,11.44,0,22.756,0,34.282
		c-7.585,0-14.969,0-22.605,0C186.632,362.774,186.632,351.55,186.632,339.932z"/>
</g>
</symbol>


<symbol id="rejectIco" viewBox="0 0 400 400">
<g id="Layer_1_1_" display="none">
	<g display="inline">
		<path fill="#3C474B" d="M203.938,390c-3.958,0-7.917,0-11.874,0c-0.702-0.217-1.39-0.521-2.107-0.635
			c-22.704-3.604-40.163-19.699-45.628-42.088c-0.374-1.532-0.742-3.066-1.154-4.771c-32.065,0-63.939,0-95.814,0
			c0-5.192,0-10.388,0-15.583c18.859-0.717,32.628-15.311,32.128-36.816c-0.813-34.973-0.2-69.979-0.231-104.969
			c-0.009-10.201,1.109-20.263,4.2-29.979c12.614-39.654,39.971-64.229,78.985-76.754c2.139-0.688,4.32-1.243,6.764-1.941
			c-0.777-0.963-1.229-1.536-1.694-2.098c-17.836-21.518-8.113-54.313,18.554-62.53c2.218-0.684,4.492-1.188,6.74-1.775
			c3.464,0,6.925,0,10.388,0c0.574,0.21,1.134,0.504,1.728,0.621C235.434,16.646,247.773,51,228,74.935
			c-0.37,0.45-0.646,0.98-0.542,0.822c9.954,4.078,20.344,7.232,29.659,12.342c38.468,21.1,60.082,52.707,59.68,97.836
			c-0.321,36.215-0.071,72.436-0.059,108.654c0.004,10.138,3.994,18.443,11.719,24.958c5.82,4.912,12.777,6.773,20.185,7.376
			c0,5.195,0,10.39,0,15.583c-31.961,0-63.921,0-95.931,0c-0.249,1.169-0.391,1.885-0.554,2.592
			c-5.076,21.99-18.28,36.45-39.962,42.988C209.496,388.9,206.691,389.371,203.938,390z M312.3,326.618
			c-0.485-0.9-0.661-1.351-0.938-1.72c-7.463-9.974-10.59-21.129-10.5-33.621c0.259-36.354,0.066-72.709,0.101-109.066
			c0.022-23.665-8.086-44.218-24.771-60.829C247.4,92.725,212.359,83.886,173.204,92.13c-42.087,8.86-79.727,45.354-78.341,98.017
			c0.91,34.602,0.118,69.246,0.2,103.871c0.026,11.406-2.991,21.689-10.136,30.678c-0.392,0.492-0.566,1.158-0.926,1.924
			C160.151,326.618,235.93,326.618,312.3,326.618z M190.082,71.349c0-7.186,0-14.273,0-21.433c5.508,0,10.583,0,15.889,0
			c0,3.792,0,7.239,0,10.686c0,3.55,0,7.099,0,10.731c10.09-2.509,16.955-13.474,15.654-24.526
			c-1.423-12.084-11.279-20.905-23.422-20.961c-12.389-0.057-22.352,8.701-23.82,20.938
			C173.058,57.831,179.89,68.771,190.082,71.349z M159.449,342.511c3.362,18.511,21.378,32.609,39.835,31.663
			c18.481-0.947,35.729-15.576,37.062-31.663c-4.826,0-9.641-0.104-14.441,0.095c-0.875,0.037-2.045,1.125-2.496,2.021
			c-4.489,8.894-11.598,13.653-21.595,13.594c-9.842-0.06-16.817-4.833-21.234-13.575c-0.455-0.899-1.613-2.002-2.484-2.037
			C169.294,342.407,164.48,342.511,159.449,342.511z"/>
		<path fill="#02B0ED" d="M268.918,199.858c-23.665,0-47.102,0-70.728,0c0-26.324,0-52.48,0-78.646
			C231.668,116.11,276.174,142.147,268.918,199.858z"/>
	</g>
</g>
<g id="Layer_2" display="none">
	<path display="inline" d="M48.695,343.55c0-4.85-0.01-9.073,0.01-13.296c0.003-0.73,0.138-1.463,0.228-2.359
		c2.385-0.385,4.739-0.615,7.017-1.16c14.598-3.492,24.666-16.113,24.691-31.176c0.061-35.631,0.688-71.275-0.132-106.887
		c-1.288-55.936,38.084-99.083,86.888-112.046c1.173-0.312,2.338-0.654,3.984-1.116c-8.893-9.568-12.279-20.678-10.481-33.206
		c1.396-9.723,5.919-17.901,13.438-24.293c14.898-12.667,37.391-12.605,52.172,0.241c8.504,7.391,12.959,16.846,13.533,28.123
		c0.564,11.128-3.084,20.745-10.17,28.37c10.086,4.13,20.445,7.443,29.925,12.428c29.007,15.255,49.286,38.088,57.271,70.449
		c1.915,7.77,2.669,15.997,2.729,24.022c0.278,37.122,0.484,74.254-0.021,111.374c-0.277,20.299,14.598,33.842,30.078,34.541
		c0.484,0.021,0.964,0.17,1.725,0.312c0,5.062,0,10.086,0,15.487c-31.921,0-63.869,0-95.993,0c-0.671,2.69-1.188,5.097-1.87,7.453
		c-7.238,25.082-29.961,41.494-56.089,40.549c-24.864-0.901-46.635-19.555-51.736-44.611c-0.572-2.807-1.645-3.251-4.138-3.245
		c-29.401,0.076-58.802,0.048-88.203,0.048C52.082,343.55,50.615,343.55,48.695,343.55z M315.414,327.473
		c-10.766-17.703-11.393-19.97-11.393-40.563c0-35.012-0.01-70.021,0.004-105.034c0.01-23.846-8.242-44.521-25.067-61.245
		c-28.7-28.529-63.663-37.509-102.719-29.561c-43.808,8.916-80.883,46.367-79.831,97.634c0.724,35.247,0.077,70.519,0.172,105.778
		c0.031,11.769-3.07,22.351-10.565,31.531c-0.271,0.332-0.4,0.776-0.738,1.459C162.111,327.473,238.529,327.473,315.414,327.473z
		 M208.324,70.286c9.873-2.225,16.844-13.078,15.811-24.236c-1.123-12.132-10.859-21.176-23.199-21.55
		c-12.372-0.375-22.584,8.276-24.386,20.656c-1.619,11.135,5.172,22.294,15.841,25.25c0-7.368,0-14.592,0-21.684
		c5.604,0,10.632,0,15.933,0C208.324,56.104,208.324,63.165,208.324,70.286z M161.478,343.553
		c3.091,18.282,21.095,32.561,39.678,31.922c18.652-0.642,36.041-15.201,37.822-31.922c-4.867,0-9.711-0.078-14.547,0.078
		c-0.843,0.027-2.041,0.872-2.414,1.655c-4.41,9.216-11.629,14.129-21.859,14.088c-10.069-0.037-17.172-4.933-21.573-13.965
		c-0.416-0.854-1.756-1.738-2.698-1.772C171.173,343.455,166.447,343.553,161.478,343.553z"/>
</g>
<g id="Layer_3" display="none">
	<path display="inline" d="M93.584,319.333c0-77.449,0-154.099,0-230.691c104.568-12.909,227.137,64.836,207.602,230.691
		C232.341,319.333,163.404,319.333,93.584,319.333z"/>
</g>
<g id="Layer_4" display="none">
	<path display="inline" d="M267.997,288.242c-73.048,58.826-166.478,41.386-218.763-22.406
		C-1.812,203.559,2.784,116.637,60.216,59.208C117.646,1.78,204.57-2.808,266.846,48.237
		c63.698,52.21,81.282,145.634,22.853,218.199c1.165,1.234,2.354,2.551,3.606,3.803c29.471,29.484,58.932,58.979,88.44,88.424
		c4.626,4.618,7.152,9.768,5.36,16.406c-2.911,10.796-15.477,15.146-24.386,8.399c-1.444-1.095-2.718-2.431-4.009-3.72
		c-29.058-29.036-58.109-58.078-87.139-87.145C270.298,291.327,269.27,289.807,267.997,288.242z M169.78,43.853
		C98.804,43.76,44.884,97.587,44.854,168.563C44.826,239.366,98.4,292.979,169.338,293.128
		c71.156,0.147,124.813-53.416,124.791-124.577C294.104,97.616,240.584,43.946,169.78,43.853z"/>
</g>
<g>
	<path fill-rule="evenodd" clip-rule="evenodd" d="M362.881,202.057c0.041,44.896-17.658,87.466-55.221,121.37
		c-30.2,27.254-65.981,41.203-106.346,41.598c-101.606,1-166.559-80.432-167.532-160.864c-0.59-48.624,16.628-90.53,52.117-123.866
		c30.331-28.491,67.129-43.528,108.776-44.007C296.575,35.118,361.443,116.604,362.881,202.057z M192.885,52.632
		c-32.009,0.653-65.154,12.471-93.041,37.648C65.6,121.2,49.169,160.164,50.283,206.033c1.648,67.9,56.23,141.872,148.581,142.585
		c36.983,0.287,69.836-12.37,97.452-37.123c34.633-31.046,51.146-70.328,49.945-116.677
		C344.508,127.249,289.554,53.731,192.885,52.632z"/>
	<path fill-rule="evenodd" clip-rule="evenodd" d="M208.917,200.405c13.479,13.482,26.609,26.583,39.684,39.735
		c1.249,1.255,2.53,2.688,3.17,4.291c1.39,3.479,0.173,7.209-2.53,9.035c-2.805,1.897-7.363,1.553-10.015-0.974
		c-3.486-3.324-6.838-6.79-10.248-10.197c-9.286-9.286-18.57-18.575-27.864-27.854c-0.922-0.922-1.89-1.799-3.15-2.992
		c-8.275,8.359-16.377,16.563-24.505,24.745c-5.258,5.293-10.471,10.634-15.852,15.801c-4.841,4.648-11.229,3.194-13.189-2.853
		c-1.158-3.573,0.954-6.04,3.153-8.267c8.715-8.826,17.513-17.568,26.305-26.314c4.506-4.487,9.065-8.918,14.197-13.961
		c-2.027-1.735-3.857-3.108-5.463-4.707c-11.703-11.641-23.434-23.257-34.951-35.08c-1.682-1.727-3.205-4.551-3.111-6.798
		c0.091-2.207,1.868-4.978,3.747-6.319c2.501-1.786,5.756-1.567,8.401,0.617c0.926,0.765,1.763,1.64,2.614,2.491
		c12.017,12.01,24.038,24.014,36.023,36.053c0.929,0.931,1.6,2.118,2.542,3.393c1.464-1.332,2.35-2.071,3.163-2.882
		c12.523-12.508,25.013-25.05,37.57-37.527c5.065-5.034,11.452-3.982,13.456,2.242c1.183,3.677-0.914,6.429-3.366,8.883
		c-12.249,12.257-24.502,24.51-36.767,36.752C211.078,198.568,210.134,199.324,208.917,200.405z"/>
</g>
</symbol>

<symbol id="corectIco" viewBox="0 0 400 400">
<g id="Layer_1_1_" display="none">
	<g display="inline">
		<path fill="#3C474B" d="M203.938,390c-3.958,0-7.917,0-11.874,0c-0.702-0.217-1.39-0.521-2.107-0.635
			c-22.704-3.604-40.163-19.699-45.628-42.088c-0.374-1.532-0.742-3.066-1.154-4.771c-32.065,0-63.939,0-95.814,0
			c0-5.192,0-10.388,0-15.583c18.859-0.717,32.628-15.311,32.128-36.816c-0.813-34.973-0.2-69.979-0.231-104.969
			c-0.009-10.201,1.109-20.263,4.2-29.979c12.614-39.654,39.971-64.229,78.985-76.754c2.139-0.688,4.32-1.243,6.764-1.941
			c-0.777-0.963-1.229-1.536-1.694-2.098c-17.836-21.518-8.113-54.313,18.554-62.53c2.218-0.684,4.492-1.188,6.74-1.775
			c3.464,0,6.925,0,10.388,0c0.574,0.21,1.134,0.504,1.728,0.621C235.434,16.646,247.773,51,228,74.935
			c-0.37,0.45-0.646,0.98-0.542,0.822c9.954,4.078,20.344,7.232,29.659,12.342c38.468,21.1,60.082,52.707,59.68,97.836
			c-0.321,36.215-0.071,72.436-0.059,108.654c0.004,10.138,3.994,18.443,11.719,24.958c5.82,4.912,12.777,6.773,20.185,7.376
			c0,5.195,0,10.39,0,15.583c-31.961,0-63.921,0-95.931,0c-0.249,1.169-0.391,1.885-0.554,2.592
			c-5.076,21.99-18.28,36.45-39.962,42.988C209.496,388.9,206.691,389.371,203.938,390z M312.3,326.618
			c-0.485-0.9-0.661-1.351-0.938-1.72c-7.463-9.974-10.59-21.129-10.5-33.621c0.259-36.354,0.066-72.709,0.101-109.066
			c0.022-23.665-8.086-44.218-24.771-60.829C247.4,92.725,212.359,83.886,173.204,92.13c-42.087,8.86-79.727,45.354-78.341,98.017
			c0.91,34.602,0.118,69.246,0.2,103.871c0.026,11.406-2.991,21.689-10.136,30.678c-0.392,0.492-0.566,1.158-0.926,1.924
			C160.151,326.618,235.93,326.618,312.3,326.618z M190.082,71.349c0-7.186,0-14.273,0-21.433c5.508,0,10.583,0,15.889,0
			c0,3.792,0,7.239,0,10.686c0,3.55,0,7.099,0,10.731c10.09-2.509,16.955-13.474,15.654-24.526
			c-1.423-12.084-11.279-20.905-23.422-20.961c-12.389-0.057-22.352,8.701-23.82,20.938
			C173.058,57.831,179.89,68.771,190.082,71.349z M159.449,342.511c3.362,18.511,21.378,32.609,39.835,31.663
			c18.481-0.947,35.729-15.576,37.062-31.663c-4.826,0-9.641-0.104-14.441,0.095c-0.875,0.037-2.045,1.125-2.496,2.021
			c-4.489,8.894-11.598,13.653-21.595,13.594c-9.842-0.06-16.817-4.833-21.234-13.575c-0.455-0.899-1.613-2.002-2.484-2.037
			C169.294,342.407,164.48,342.511,159.449,342.511z"/>
		<path fill="#02B0ED" d="M268.918,199.858c-23.665,0-47.102,0-70.728,0c0-26.324,0-52.48,0-78.646
			C231.668,116.11,276.174,142.147,268.918,199.858z"/>
	</g>
</g>
<g id="Layer_2" display="none">
	<path display="inline" d="M48.695,343.55c0-4.85-0.01-9.073,0.01-13.296c0.003-0.73,0.138-1.463,0.228-2.359
		c2.385-0.385,4.739-0.615,7.017-1.16c14.598-3.492,24.666-16.113,24.691-31.176c0.061-35.631,0.688-71.275-0.132-106.887
		c-1.288-55.936,38.084-99.083,86.888-112.046c1.173-0.312,2.338-0.654,3.984-1.116c-8.893-9.568-12.279-20.678-10.481-33.206
		c1.396-9.723,5.919-17.901,13.438-24.293c14.898-12.667,37.391-12.605,52.172,0.241c8.504,7.391,12.959,16.846,13.533,28.123
		c0.564,11.128-3.084,20.745-10.17,28.37c10.086,4.13,20.445,7.443,29.925,12.428c29.007,15.255,49.286,38.088,57.271,70.449
		c1.915,7.77,2.669,15.997,2.729,24.022c0.278,37.122,0.484,74.254-0.021,111.374c-0.277,20.299,14.598,33.842,30.078,34.541
		c0.484,0.021,0.964,0.17,1.725,0.312c0,5.062,0,10.086,0,15.487c-31.921,0-63.869,0-95.993,0c-0.671,2.69-1.188,5.097-1.87,7.453
		c-7.238,25.082-29.961,41.494-56.089,40.549c-24.864-0.901-46.635-19.555-51.736-44.611c-0.572-2.807-1.645-3.251-4.138-3.245
		c-29.401,0.076-58.802,0.048-88.203,0.048C52.082,343.55,50.615,343.55,48.695,343.55z M315.414,327.473
		c-10.766-17.703-11.393-19.97-11.393-40.563c0-35.012-0.01-70.021,0.004-105.034c0.01-23.846-8.242-44.521-25.067-61.245
		c-28.7-28.529-63.663-37.509-102.719-29.561c-43.808,8.916-80.883,46.367-79.831,97.634c0.724,35.247,0.077,70.519,0.172,105.778
		c0.031,11.769-3.07,22.351-10.565,31.531c-0.271,0.332-0.4,0.776-0.738,1.459C162.111,327.473,238.529,327.473,315.414,327.473z
		 M208.324,70.286c9.873-2.225,16.844-13.078,15.811-24.236c-1.123-12.132-10.859-21.176-23.199-21.55
		c-12.372-0.375-22.584,8.276-24.386,20.656c-1.619,11.135,5.172,22.294,15.841,25.25c0-7.368,0-14.592,0-21.684
		c5.604,0,10.632,0,15.933,0C208.324,56.104,208.324,63.165,208.324,70.286z M161.478,343.553
		c3.091,18.282,21.095,32.561,39.678,31.922c18.652-0.642,36.041-15.201,37.822-31.922c-4.867,0-9.711-0.078-14.547,0.078
		c-0.843,0.027-2.041,0.872-2.414,1.655c-4.41,9.216-11.629,14.129-21.859,14.088c-10.069-0.037-17.172-4.933-21.573-13.965
		c-0.416-0.854-1.756-1.738-2.698-1.772C171.173,343.455,166.447,343.553,161.478,343.553z"/>
</g>
<g id="Layer_3" display="none">
	<path display="inline" d="M93.584,319.333c0-77.449,0-154.099,0-230.691c104.568-12.909,227.137,64.836,207.602,230.691
		C232.341,319.333,163.404,319.333,93.584,319.333z"/>
</g>
<g id="Layer_4" display="none">
	<path display="inline" d="M267.997,288.242c-73.048,58.826-166.478,41.386-218.763-22.406
		C-1.812,203.559,2.784,116.637,60.216,59.208C117.646,1.78,204.57-2.808,266.846,48.237
		c63.698,52.21,81.282,145.634,22.853,218.199c1.165,1.234,2.354,2.551,3.606,3.803c29.471,29.484,58.932,58.979,88.44,88.424
		c4.626,4.618,7.152,9.768,5.36,16.406c-2.911,10.796-15.477,15.146-24.386,8.399c-1.444-1.095-2.718-2.431-4.009-3.72
		c-29.058-29.036-58.109-58.078-87.139-87.145C270.298,291.327,269.27,289.807,267.997,288.242z M169.78,43.853
		C98.804,43.76,44.884,97.587,44.854,168.563C44.826,239.366,98.4,292.979,169.338,293.128
		c71.156,0.147,124.813-53.416,124.791-124.577C294.104,97.616,240.584,43.946,169.78,43.853z"/>
</g>
<path fill-rule="evenodd" clip-rule="evenodd" d="M362.881,202.057c0.041,44.896-17.658,87.466-55.221,121.37
	c-30.2,27.254-65.981,41.203-106.346,41.598c-101.606,1-166.559-80.432-167.532-160.864c-0.59-48.624,16.628-90.53,52.117-123.866
	c30.331-28.491,67.129-43.528,108.776-44.007C296.575,35.118,361.443,116.604,362.881,202.057z M192.885,52.632
	c-32.009,0.653-65.154,12.471-93.041,37.648C65.6,121.2,49.169,160.164,50.283,206.033c1.648,67.9,56.23,141.872,148.581,142.585
	c36.983,0.287,69.836-12.37,97.452-37.123c34.633-31.046,51.146-70.328,49.945-116.677
	C344.508,127.249,289.554,53.731,192.885,52.632z"/>
<path fill-rule="evenodd" clip-rule="evenodd" d="M175.752,250.559c5.576-7.164,10.99-14.113,16.398-21.066
	c20.16-25.918,40.318-51.837,60.479-77.755c0.629-0.81,1.225-1.654,1.924-2.401c2.568-2.744,6.582-3.099,9.473-0.879
	c2.863,2.198,3.664,6.29,1.545,9.37c-2.09,3.039-4.457,5.887-6.725,8.803c-25.072,32.237-50.146,64.473-75.224,96.706
	c-4.319,5.552-7.752,5.894-13.111,1.303c-13.095-11.216-26.168-22.457-39.279-33.653c-2.419-2.065-3.493-4.558-2.716-7.647
	c0.685-2.724,2.569-4.396,5.285-5.031c2.777-0.65,4.941,0.579,6.984,2.337c10.966,9.44,21.967,18.841,32.958,28.253
	C174.283,249.36,174.84,249.805,175.752,250.559z"/>
</symbol>

<symbol id="userbgIco" viewBox="0 0 400 400">
<g id="Layer_1" display="none">
	<g display="inline">
		<path fill-rule="evenodd" clip-rule="evenodd" d="M198.773,319.152c-41.672,0-83.344,0.027-125.016-0.01
			c-20.159-0.018-33.554-13.188-33.601-33.441c-0.122-52.213-0.077-104.428-0.02-156.643c0.009-8.271-0.432-16.678,0.849-24.783
			c2.343-14.837,15.467-25.353,30.649-25.427c27.111-0.132,54.224-0.068,81.335-0.068c56.859,0.002,113.719,0.003,170.578,0.03
			c20.397,0.01,33.768,13.098,33.82,33.617c0.135,51.838,0.06,103.677,0.039,155.515c-0.003,7.4,0.283,14.842-0.354,22.197
			c-1.47,16.916-14.748,28.947-31.759,28.984c-39.788,0.086-79.577,0.029-119.367,0.029
			C203.543,319.152,201.158,319.152,198.773,319.152z M198.754,296.555c20.582,0,41.166,0,61.748,0
			c21.336,0,42.669,0.021,64.005-0.018c6.579-0.012,9.938-3.307,10.266-9.857c0.068-1.379,0.032-2.762,0.033-4.141
			c0-45.557,0-91.113,0-136.669c0-11.421,0.068-22.842-0.03-34.261c-0.058-6.809-3.494-10.092-10.273-10.186
			c-1.13-0.017-2.259-0.021-3.388-0.021c-82.08-0.001-164.159-0.002-246.238,0.001c-9.22,0-12.153,2.91-12.154,12.126
			c-0.007,56.976-0.007,113.954,0,170.93c0.001,9.256,2.854,12.09,12.16,12.094C116.173,296.561,157.464,296.555,198.754,296.555z"
			/>
		<path fill-rule="evenodd" clip-rule="evenodd" d="M155.655,210.295c-18.279,18.068-36.384,35.967-54.387,53.762
			c-5.175-5.326-10.299-10.602-15.69-16.15c17.168-16.873,34.95-34.348,53.108-52.193c-18.143-15.623-35.495-30.563-53.156-45.77
			c4.877-5.699,9.648-11.275,14.674-17.148c5.38,4.604,10.598,9.045,15.791,13.514c25.682,22.101,51.351,44.217,77.042,66.307
			c5.078,4.367,6.699,4.305,11.917-0.201c29.447-25.424,58.893-50.851,88.341-76.274c1.22-1.053,2.468-2.074,3.932-3.302
			c4.951,5.731,9.767,11.302,14.747,17.066c-17.566,15.185-34.912,30.179-52.886,45.714c18.049,17.662,35.882,35.113,53.539,52.395
			c-5.621,5.678-10.73,10.84-15.623,15.781c-17.974-17.846-36.005-35.748-54.208-53.822c-1.304,0.973-2.206,1.568-3.02,2.268
			c-7.233,6.215-14.447,12.455-21.675,18.678c-11.542,9.943-26.909,9.959-38.436,0.043
			C171.595,224.02,163.529,217.072,155.655,210.295z"/>
	</g>
</g>
<g id="Layer_3">
	<circle fill-rule="evenodd" clip-rule="evenodd" fill="#AFB6B7" cx="199.77" cy="199.968" r="190.969"/>
	<g>
		<path fill-rule="evenodd" clip-rule="evenodd" fill="#FFFFFF" d="M200.554,311.582c-28.86,0-57.718-0.028-86.577,0.018
			c-8.562,0.013-15.742-2.842-20.854-9.864c-4.807-6.604-5.599-13.739-1.865-21.153c9.569-18.998,24.621-32.439,43.163-42.26
			c3.914-2.074,7.961-3.947,12.092-5.545c6.697-2.591,13.447-2.106,19.688,1.296c23.417,12.768,46.672,12.691,69.863-0.456
			c6.542-3.707,13.521-4.021,20.176-1.361c22.224,8.875,40.363,22.82,52.424,43.94c3.41,5.972,5.149,12.127,3.06,18.98
			c-2.68,8.779-10.958,15.497-20.157,16.201c-1.736,0.134-3.48,0.195-5.223,0.196C257.746,311.585,229.148,311.582,200.554,311.582z
			"/>
		<path fill-rule="evenodd" clip-rule="evenodd" fill="#FFFFFF" d="M144.842,156.728c0.471-19.881,5.638-36.503,17.956-50.486
			c20.91-23.738,54.604-23.899,75.712-0.333c11.107,12.403,16.71,27.129,17.873,43.619c1.314,18.665-3.076,35.797-14.344,50.878
			c-8.038,10.757-18.466,18.227-31.805,20.893c-16.616,3.321-31.046-1.586-43.334-12.832c-11.967-10.953-18.414-24.926-20.94-40.784
			C145.305,163.565,145.103,159.375,144.842,156.728z"/>
	</g>
</g>
</symbol>



<symbol id="menuIco" viewBox="0 0 400 400">
<g id="Layer_1" display="none">
	<g id="Layer_1_1_">
		<g display="inline">
			<path fill="#3C474B" d="M203.938,390c-3.958,0-7.917,0-11.874,0c-0.702-0.217-1.39-0.521-2.107-0.635
				c-22.704-3.604-40.163-19.699-45.628-42.088c-0.374-1.532-0.742-3.066-1.154-4.771c-32.065,0-63.939,0-95.814,0
				c0-5.192,0-10.388,0-15.583c18.859-0.717,32.628-15.311,32.128-36.816c-0.813-34.973-0.2-69.979-0.231-104.969
				c-0.009-10.201,1.109-20.263,4.2-29.979c12.614-39.654,39.971-64.229,78.985-76.754c2.139-0.688,4.32-1.243,6.764-1.941
				c-0.777-0.963-1.229-1.536-1.694-2.098c-17.836-21.518-8.113-54.313,18.554-62.53c2.218-0.684,4.492-1.188,6.74-1.775
				c3.464,0,6.925,0,10.388,0c0.574,0.21,1.134,0.504,1.728,0.621C235.434,16.646,247.773,51,228,74.935
				c-0.37,0.45-0.646,0.98-0.542,0.822c9.954,4.078,20.344,7.232,29.659,12.342c38.468,21.1,60.082,52.707,59.68,97.836
				c-0.321,36.215-0.071,72.436-0.059,108.654c0.004,10.138,3.994,18.443,11.719,24.958c5.82,4.912,12.777,6.773,20.185,7.376
				c0,5.195,0,10.39,0,15.583c-31.961,0-63.921,0-95.931,0c-0.249,1.169-0.391,1.885-0.554,2.592
				c-5.076,21.99-18.28,36.45-39.962,42.988C209.496,388.9,206.691,389.371,203.938,390z M312.3,326.618
				c-0.485-0.9-0.661-1.351-0.938-1.72c-7.463-9.974-10.59-21.129-10.5-33.621c0.259-36.354,0.066-72.709,0.101-109.066
				c0.022-23.665-8.086-44.218-24.771-60.829C247.4,92.725,212.359,83.886,173.204,92.13c-42.087,8.86-79.727,45.354-78.341,98.017
				c0.91,34.602,0.118,69.246,0.2,103.871c0.026,11.406-2.991,21.689-10.136,30.678c-0.392,0.492-0.566,1.158-0.926,1.924
				C160.151,326.618,235.93,326.618,312.3,326.618z M190.082,71.349c0-7.186,0-14.273,0-21.433c5.508,0,10.583,0,15.889,0
				c0,3.792,0,7.239,0,10.686c0,3.55,0,7.099,0,10.731c10.09-2.509,16.955-13.474,15.654-24.526
				c-1.423-12.084-11.279-20.905-23.422-20.961c-12.389-0.057-22.352,8.701-23.82,20.938
				C173.058,57.831,179.89,68.771,190.082,71.349z M159.449,342.511c3.362,18.511,21.378,32.609,39.835,31.663
				c18.481-0.947,35.729-15.576,37.062-31.663c-4.826,0-9.641-0.104-14.441,0.095c-0.875,0.037-2.045,1.125-2.496,2.021
				c-4.489,8.894-11.598,13.653-21.595,13.594c-9.842-0.06-16.817-4.833-21.234-13.575c-0.455-0.899-1.613-2.002-2.484-2.037
				C169.294,342.407,164.48,342.511,159.449,342.511z"/>
			<path fill="#02B0ED" d="M268.918,199.858c-23.665,0-47.102,0-70.728,0c0-26.324,0-52.48,0-78.646
				C231.668,116.11,276.174,142.147,268.918,199.858z"/>
		</g>
	</g>
	<g id="Layer_2">
		<path display="inline" d="M48.695,343.55c0-4.85-0.01-9.073,0.01-13.296c0.003-0.73,0.138-1.463,0.228-2.359
			c2.385-0.385,4.739-0.615,7.017-1.16c14.598-3.492,24.666-16.113,24.691-31.176c0.061-35.631,0.688-71.275-0.132-106.887
			c-1.288-55.936,38.084-99.083,86.888-112.046c1.173-0.312,2.338-0.654,3.984-1.116c-8.893-9.568-12.279-20.678-10.481-33.206
			c1.396-9.723,5.919-17.901,13.438-24.293c14.898-12.667,37.391-12.605,52.172,0.241c8.504,7.391,12.959,16.846,13.533,28.123
			c0.564,11.128-3.084,20.745-10.17,28.37c10.086,4.13,20.445,7.443,29.925,12.428c29.007,15.255,49.286,38.088,57.271,70.449
			c1.915,7.77,2.669,15.997,2.729,24.022c0.278,37.122,0.484,74.254-0.021,111.374c-0.277,20.299,14.598,33.842,30.078,34.541
			c0.484,0.021,0.964,0.17,1.725,0.312c0,5.062,0,10.086,0,15.487c-31.921,0-63.869,0-95.993,0c-0.671,2.69-1.188,5.097-1.87,7.453
			c-7.238,25.082-29.961,41.494-56.089,40.549c-24.864-0.901-46.635-19.555-51.736-44.611c-0.572-2.807-1.645-3.251-4.138-3.245
			c-29.401,0.076-58.802,0.048-88.203,0.048C52.082,343.55,50.615,343.55,48.695,343.55z M315.414,327.473
			c-10.766-17.703-11.393-19.97-11.393-40.563c0-35.012-0.01-70.021,0.004-105.034c0.01-23.846-8.242-44.521-25.067-61.245
			c-28.7-28.529-63.663-37.509-102.719-29.561c-43.808,8.916-80.883,46.367-79.831,97.634c0.724,35.247,0.077,70.519,0.172,105.778
			c0.031,11.769-3.07,22.351-10.565,31.531c-0.271,0.332-0.4,0.776-0.738,1.459C162.111,327.473,238.529,327.473,315.414,327.473z
			 M208.324,70.286c9.873-2.225,16.844-13.078,15.811-24.236c-1.123-12.132-10.859-21.176-23.199-21.55
			c-12.372-0.375-22.584,8.276-24.386,20.656c-1.619,11.135,5.172,22.294,15.841,25.25c0-7.368,0-14.592,0-21.684
			c5.604,0,10.632,0,15.933,0C208.324,56.104,208.324,63.165,208.324,70.286z M161.478,343.553
			c3.091,18.282,21.095,32.561,39.678,31.922c18.652-0.642,36.041-15.201,37.822-31.922c-4.867,0-9.711-0.078-14.547,0.078
			c-0.843,0.027-2.041,0.872-2.414,1.655c-4.41,9.216-11.629,14.129-21.859,14.088c-10.069-0.037-17.172-4.933-21.573-13.965
			c-0.416-0.854-1.756-1.738-2.698-1.772C171.173,343.455,166.447,343.553,161.478,343.553z"/>
	</g>
	<g id="Layer_3">
		<path display="inline" d="M93.584,319.333c0-77.449,0-154.099,0-230.691c104.568-12.909,227.137,64.836,207.602,230.691
			C232.341,319.333,163.404,319.333,93.584,319.333z"/>
	</g>
	<g id="Layer_4">
		<path display="inline" d="M267.997,288.242c-73.048,58.826-166.478,41.386-218.763-22.406
			C-1.812,203.559,2.784,116.637,60.216,59.208C117.646,1.78,204.57-2.808,266.846,48.237
			c63.698,52.21,81.282,145.634,22.853,218.199c1.165,1.234,2.354,2.551,3.606,3.803c29.471,29.484,58.932,58.979,88.44,88.424
			c4.626,4.618,7.152,9.768,5.36,16.406c-2.911,10.796-15.477,15.146-24.386,8.399c-1.444-1.095-2.718-2.431-4.009-3.72
			c-29.058-29.036-58.109-58.078-87.139-87.145C270.298,291.327,269.27,289.807,267.997,288.242z M169.78,43.853
			C98.804,43.76,44.884,97.587,44.854,168.563C44.826,239.366,98.4,292.979,169.338,293.128
			c71.156,0.147,124.813-53.416,124.791-124.577C294.104,97.616,240.584,43.946,169.78,43.853z"/>
	</g>
	<g id="Layer_5" display="inline">
		<path d="M105.418,174.414c2.613,0,4.238,0,5.863,0c82.776,0,165.553-0.013,248.331,0.012c15.938,0.005,27.86,12.078,27.389,27.564
			c-0.414,13.586-11.64,24.953-25.247,25.545c-1.521,0.064-3.045,0.033-4.566,0.033c-82.085,0-164.169,0-246.253,0
			c-1.5,0-3,0-5.386,0c1.483,1.604,2.419,2.688,3.43,3.699c19.179,19.188,38.404,38.334,57.537,57.569
			c8.158,8.202,10.076,18.826,5.533,29c-4.632,10.372-14.618,16.595-25.837,15.992c-6.336-0.341-11.817-2.794-16.298-7.272
			C93.977,290.648,58,254.782,22.187,218.751c-10.147-10.21-9.957-25.188,0.227-35.76c9.602-9.969,19.518-19.632,29.305-29.421
			c25.838-25.843,51.656-51.706,77.536-77.505c8.252-8.226,19.238-10.218,29.38-5.595c9.853,4.491,16.254,14.888,15.717,25.701
			c-0.355,7.142-3.631,12.861-8.638,17.842c-19.138,19.035-38.193,38.153-57.277,57.243
			C107.661,172.03,106.92,172.839,105.418,174.414z"/>
	</g>
</g>
<g id="Layer_2_1_" display="none">
	<g display="inline">
		<path fill-rule="evenodd" clip-rule="evenodd" d="M199.428,386.322c-48.34-0.001-96.679-0.064-145.018,0.04
			c-13.813,0.03-25.364-4.629-33.762-15.695c-8.446-11.128-9.894-23.27-3.497-35.955c15.883-31.491,40.832-53.793,71.573-70.09
			c6.519-3.457,13.265-6.563,20.124-9.28c11.315-4.482,22.649-3.527,33.201,2.208c38.725,21.053,77.269,21.009,115.648-0.599
			c11.076-6.236,22.686-7.067,33.977-2.569c38.079,15.167,68.774,39.254,88.847,75.769c13.911,25.302-2.665,51.43-27.396,55.647
			c-3.264,0.556-6.652,0.503-9.984,0.505C295.234,386.332,247.332,386.322,199.428,386.322z"/>
		<path fill-rule="evenodd" clip-rule="evenodd" d="M292.494,126.506c-0.529,29.429-8.635,56.664-28.324,79.574
			c-37.175,43.256-96.384,41.98-131.75-2.814c-19.479-24.674-27.198-53.172-25.598-84.289c1.457-28.285,10.662-53.706,29.831-74.896
			c17.165-18.974,38.338-29.866,64.438-29.316c26.958,0.568,48.058,13.04,64.733,33.415
			C284.315,70.774,292.021,97.258,292.494,126.506z"/>
	</g>
</g>
<g id="Layer_3_1_" display="none">
	<path display="inline" fill-rule="evenodd" clip-rule="evenodd" d="M265.808,287.559c-73.495,59.65-167.989,38.958-217.76-25.075
		C-0.416,200.133,6.197,114.755,64.109,59.556c58.075-55.354,143.253-57.531,204.068-4.893
		c60.072,51.996,74.929,141.422,18.806,211.408c1.123,1.193,2.277,2.479,3.496,3.698c28.986,29,57.963,58.014,86.991,86.972
		c4.541,4.531,7.112,9.559,5.39,16.106c-2.852,10.839-15.466,15.114-24.276,8.187c-1.403-1.104-2.643-2.425-3.912-3.692
		c-28.473-28.457-56.943-56.913-85.385-85.399C268.025,290.679,267.045,289.136,265.808,287.559z M168.835,47.192
		C99.026,47.234,46.096,100.28,46.2,170.091c0.106,69.642,52.907,122.272,122.677,122.28
		c69.825,0.009,122.403-52.49,122.503-122.319C291.48,100.117,238.649,47.149,168.835,47.192z"/>
</g>
<g id="Layer_4_1_">
	<g>
		<path fill-rule="evenodd" clip-rule="evenodd" d="M301.213,189.566c-22.456,0-44.912,0.025-67.368-0.009
			c-12.852-0.02-18.009-5.235-18.013-18.133c-0.01-40.456-0.011-80.91,0.001-121.365c0.004-12.971,5.376-18.262,18.511-18.264
			c44.568-0.007,89.139-0.01,133.707,0.001c12.883,0.003,18.455,5.571,18.462,18.511c0.021,40.284,0.02,80.567,0.001,120.851
			c-0.006,13.028-5.373,18.383-18.448,18.401C345.781,189.588,323.497,189.567,301.213,189.566z"/>
		<path fill-rule="evenodd" clip-rule="evenodd" d="M99.06,212.615c22.457,0,44.914-0.02,67.371,0.008
			c12.516,0.015,17.905,5.322,17.914,17.75c0.031,40.799,0.033,81.599-0.003,122.397c-0.011,12.051-5.558,17.501-17.663,17.505
			c-45.084,0.013-90.17,0.013-135.255,0c-12.09-0.003-17.708-5.459-17.725-17.517c-0.058-40.8-0.055-81.6-0.004-122.398
			c0.016-12.414,5.479-17.726,17.994-17.738C54.146,212.597,76.603,212.615,99.06,212.615z"/>
		<path fill-rule="evenodd" clip-rule="evenodd" d="M99.002,189.567c-22.286,0-44.571,0.018-66.857-0.007
			c-13.199-0.015-18.451-5.199-18.46-18.316c-0.029-40.286-0.028-80.571,0-120.857c0.009-13.303,5.406-18.59,18.827-18.592
			c44.4-0.006,88.8-0.007,133.199,0.001c13.318,0.002,18.636,5.321,18.641,18.698c0.015,40.114,0.013,80.229,0.002,120.342
			c-0.004,13.81-4.992,18.719-19.008,18.728C143.231,189.577,121.117,189.567,99.002,189.567z"/>
		<path fill-rule="evenodd" clip-rule="evenodd" d="M301.358,212.615c22.285,0,44.57-0.017,66.854,0.006
			c12.76,0.012,18.287,5.426,18.296,18.025c0.029,40.627,0.033,81.255-0.003,121.881c-0.01,12.047-5.687,17.742-17.566,17.746
			c-45.256,0.017-90.512,0.017-135.767,0c-11.763-0.004-17.327-5.533-17.334-17.271c-0.025-40.971-0.024-81.94-0.001-122.91
			c0.006-12.072,5.445-17.453,17.638-17.469C256.104,212.594,278.731,212.616,301.358,212.615z"/>
	</g>
</g>
</symbol>



<symbol id="searchIco" viewBox="0 0 400 400">
<g id="Layer_1" display="none">
	<g id="Layer_1_1_">
		<g display="inline">
			<path fill="#3C474B" d="M203.938,390c-3.958,0-7.917,0-11.874,0c-0.702-0.217-1.39-0.521-2.107-0.635
				c-22.704-3.604-40.163-19.699-45.628-42.088c-0.374-1.532-0.742-3.066-1.154-4.771c-32.065,0-63.939,0-95.814,0
				c0-5.192,0-10.388,0-15.583c18.859-0.717,32.628-15.311,32.128-36.816c-0.813-34.973-0.2-69.979-0.231-104.969
				c-0.009-10.201,1.109-20.263,4.2-29.979c12.614-39.654,39.971-64.229,78.985-76.754c2.139-0.688,4.32-1.243,6.764-1.941
				c-0.777-0.963-1.229-1.536-1.694-2.098c-17.836-21.518-8.113-54.313,18.554-62.53c2.218-0.684,4.492-1.188,6.74-1.775
				c3.464,0,6.925,0,10.388,0c0.574,0.21,1.134,0.504,1.728,0.621C235.434,16.646,247.773,51,228,74.935
				c-0.37,0.45-0.646,0.98-0.542,0.822c9.954,4.078,20.344,7.232,29.659,12.342c38.468,21.1,60.082,52.707,59.68,97.836
				c-0.321,36.215-0.071,72.436-0.059,108.654c0.004,10.138,3.994,18.443,11.719,24.958c5.82,4.912,12.777,6.773,20.185,7.376
				c0,5.195,0,10.39,0,15.583c-31.961,0-63.921,0-95.931,0c-0.249,1.169-0.391,1.885-0.554,2.592
				c-5.076,21.99-18.28,36.45-39.962,42.988C209.496,388.9,206.691,389.371,203.938,390z M312.3,326.618
				c-0.485-0.9-0.661-1.351-0.938-1.72c-7.463-9.974-10.59-21.129-10.5-33.621c0.259-36.354,0.066-72.709,0.101-109.066
				c0.022-23.665-8.086-44.218-24.771-60.829C247.4,92.725,212.359,83.886,173.204,92.13c-42.087,8.86-79.727,45.354-78.341,98.017
				c0.91,34.602,0.118,69.246,0.2,103.871c0.026,11.406-2.991,21.689-10.136,30.678c-0.392,0.492-0.566,1.158-0.926,1.924
				C160.151,326.618,235.93,326.618,312.3,326.618z M190.082,71.349c0-7.186,0-14.273,0-21.433c5.508,0,10.583,0,15.889,0
				c0,3.792,0,7.239,0,10.686c0,3.55,0,7.099,0,10.731c10.09-2.509,16.955-13.474,15.654-24.526
				c-1.423-12.084-11.279-20.905-23.422-20.961c-12.389-0.057-22.352,8.701-23.82,20.938
				C173.058,57.831,179.89,68.771,190.082,71.349z M159.449,342.511c3.362,18.511,21.378,32.609,39.835,31.663
				c18.481-0.947,35.729-15.576,37.062-31.663c-4.826,0-9.641-0.104-14.441,0.095c-0.875,0.037-2.045,1.125-2.496,2.021
				c-4.489,8.894-11.598,13.653-21.595,13.594c-9.842-0.06-16.817-4.833-21.234-13.575c-0.455-0.899-1.613-2.002-2.484-2.037
				C169.294,342.407,164.48,342.511,159.449,342.511z"/>
			<path fill="#02B0ED" d="M268.918,199.858c-23.665,0-47.102,0-70.728,0c0-26.324,0-52.48,0-78.646
				C231.668,116.11,276.174,142.147,268.918,199.858z"/>
		</g>
	</g>
	<g id="Layer_2">
		<path display="inline" d="M48.695,343.55c0-4.85-0.01-9.073,0.01-13.296c0.003-0.73,0.138-1.463,0.228-2.359
			c2.385-0.385,4.739-0.615,7.017-1.16c14.598-3.492,24.666-16.113,24.691-31.176c0.061-35.631,0.688-71.275-0.132-106.887
			c-1.288-55.936,38.084-99.083,86.888-112.046c1.173-0.312,2.338-0.654,3.984-1.116c-8.893-9.568-12.279-20.678-10.481-33.206
			c1.396-9.723,5.919-17.901,13.438-24.293c14.898-12.667,37.391-12.605,52.172,0.241c8.504,7.391,12.959,16.846,13.533,28.123
			c0.564,11.128-3.084,20.745-10.17,28.37c10.086,4.13,20.445,7.443,29.925,12.428c29.007,15.255,49.286,38.088,57.271,70.449
			c1.915,7.77,2.669,15.997,2.729,24.022c0.278,37.122,0.484,74.254-0.021,111.374c-0.277,20.299,14.598,33.842,30.078,34.541
			c0.484,0.021,0.964,0.17,1.725,0.312c0,5.062,0,10.086,0,15.487c-31.921,0-63.869,0-95.993,0c-0.671,2.69-1.188,5.097-1.87,7.453
			c-7.238,25.082-29.961,41.494-56.089,40.549c-24.864-0.901-46.635-19.555-51.736-44.611c-0.572-2.807-1.645-3.251-4.138-3.245
			c-29.401,0.076-58.802,0.048-88.203,0.048C52.082,343.55,50.615,343.55,48.695,343.55z M315.414,327.473
			c-10.766-17.703-11.393-19.97-11.393-40.563c0-35.012-0.01-70.021,0.004-105.034c0.01-23.846-8.242-44.521-25.067-61.245
			c-28.7-28.529-63.663-37.509-102.719-29.561c-43.808,8.916-80.883,46.367-79.831,97.634c0.724,35.247,0.077,70.519,0.172,105.778
			c0.031,11.769-3.07,22.351-10.565,31.531c-0.271,0.332-0.4,0.776-0.738,1.459C162.111,327.473,238.529,327.473,315.414,327.473z
			 M208.324,70.286c9.873-2.225,16.844-13.078,15.811-24.236c-1.123-12.132-10.859-21.176-23.199-21.55
			c-12.372-0.375-22.584,8.276-24.386,20.656c-1.619,11.135,5.172,22.294,15.841,25.25c0-7.368,0-14.592,0-21.684
			c5.604,0,10.632,0,15.933,0C208.324,56.104,208.324,63.165,208.324,70.286z M161.478,343.553
			c3.091,18.282,21.095,32.561,39.678,31.922c18.652-0.642,36.041-15.201,37.822-31.922c-4.867,0-9.711-0.078-14.547,0.078
			c-0.843,0.027-2.041,0.872-2.414,1.655c-4.41,9.216-11.629,14.129-21.859,14.088c-10.069-0.037-17.172-4.933-21.573-13.965
			c-0.416-0.854-1.756-1.738-2.698-1.772C171.173,343.455,166.447,343.553,161.478,343.553z"/>
	</g>
	<g id="Layer_3">
		<path display="inline" d="M93.584,319.333c0-77.449,0-154.099,0-230.691c104.568-12.909,227.137,64.836,207.602,230.691
			C232.341,319.333,163.404,319.333,93.584,319.333z"/>
	</g>
	<g id="Layer_4">
		<path display="inline" d="M267.997,288.242c-73.048,58.826-166.478,41.386-218.763-22.406
			C-1.812,203.559,2.784,116.637,60.216,59.208C117.646,1.78,204.57-2.808,266.846,48.237
			c63.698,52.21,81.282,145.634,22.853,218.199c1.165,1.234,2.354,2.551,3.606,3.803c29.471,29.484,58.932,58.979,88.44,88.424
			c4.626,4.618,7.152,9.768,5.36,16.406c-2.911,10.796-15.477,15.146-24.386,8.399c-1.444-1.095-2.718-2.431-4.009-3.72
			c-29.058-29.036-58.109-58.078-87.139-87.145C270.298,291.327,269.27,289.807,267.997,288.242z M169.78,43.853
			C98.804,43.76,44.884,97.587,44.854,168.563C44.826,239.366,98.4,292.979,169.338,293.128
			c71.156,0.147,124.813-53.416,124.791-124.577C294.104,97.616,240.584,43.946,169.78,43.853z"/>
	</g>
	<g id="Layer_5" display="inline">
		<path d="M105.418,174.414c2.613,0,4.238,0,5.863,0c82.776,0,165.553-0.013,248.331,0.012c15.938,0.005,27.86,12.078,27.389,27.564
			c-0.414,13.586-11.64,24.953-25.247,25.545c-1.521,0.064-3.045,0.033-4.566,0.033c-82.085,0-164.169,0-246.253,0
			c-1.5,0-3,0-5.386,0c1.483,1.604,2.419,2.688,3.43,3.699c19.179,19.188,38.404,38.334,57.537,57.569
			c8.158,8.202,10.076,18.826,5.533,29c-4.632,10.372-14.618,16.595-25.837,15.992c-6.336-0.341-11.817-2.794-16.298-7.272
			C93.977,290.648,58,254.782,22.187,218.751c-10.147-10.21-9.957-25.188,0.227-35.76c9.602-9.969,19.518-19.632,29.305-29.421
			c25.838-25.843,51.656-51.706,77.536-77.505c8.252-8.226,19.238-10.218,29.38-5.595c9.853,4.491,16.254,14.888,15.717,25.701
			c-0.355,7.142-3.631,12.861-8.638,17.842c-19.138,19.035-38.193,38.153-57.277,57.243
			C107.661,172.03,106.92,172.839,105.418,174.414z"/>
	</g>
</g>
<g id="Layer_2_1_" display="none">
	<g display="inline">
		<path fill-rule="evenodd" clip-rule="evenodd" d="M199.428,386.322c-48.34-0.001-96.679-0.064-145.018,0.04
			c-13.813,0.03-25.364-4.629-33.762-15.695c-8.446-11.128-9.894-23.27-3.497-35.955c15.883-31.491,40.832-53.793,71.573-70.09
			c6.519-3.457,13.265-6.563,20.124-9.28c11.315-4.482,22.649-3.527,33.201,2.208c38.725,21.053,77.269,21.009,115.648-0.599
			c11.076-6.236,22.686-7.067,33.977-2.569c38.079,15.167,68.774,39.254,88.847,75.769c13.911,25.302-2.665,51.43-27.396,55.647
			c-3.264,0.556-6.652,0.503-9.984,0.505C295.234,386.332,247.332,386.322,199.428,386.322z"/>
		<path fill-rule="evenodd" clip-rule="evenodd" d="M292.494,126.506c-0.529,29.429-8.635,56.664-28.324,79.574
			c-37.175,43.256-96.384,41.98-131.75-2.814c-19.479-24.674-27.198-53.172-25.598-84.289c1.457-28.285,10.662-53.706,29.831-74.896
			c17.165-18.974,38.338-29.866,64.438-29.316c26.958,0.568,48.058,13.04,64.733,33.415
			C284.315,70.774,292.021,97.258,292.494,126.506z"/>
	</g>
</g>
<g id="Layer_3_1_">
	<path fill-rule="evenodd" clip-rule="evenodd" d="M265.808,287.559c-73.495,59.65-167.989,38.958-217.76-25.075
		C-0.416,200.133,6.197,114.755,64.109,59.556c58.075-55.354,143.253-57.531,204.068-4.893
		c60.072,51.996,74.929,141.422,18.806,211.408c1.123,1.193,2.277,2.479,3.496,3.698c28.986,29,57.963,58.014,86.991,86.972
		c4.541,4.531,7.112,9.559,5.39,16.106c-2.852,10.839-15.466,15.114-24.276,8.187c-1.403-1.104-2.643-2.425-3.912-3.692
		c-28.473-28.457-56.943-56.913-85.385-85.399C268.025,290.679,267.045,289.136,265.808,287.559z M168.835,47.192
		C99.026,47.234,46.096,100.28,46.2,170.091c0.106,69.642,52.907,122.272,122.677,122.28
		c69.825,0.009,122.403-52.49,122.503-122.319C291.48,100.117,238.649,47.149,168.835,47.192z"/>
</g>
</symbol>

<symbol id="filterIco" viewBox="0 0 400 400">
<g id="Layer_1" display="none">
	<g id="Layer_1_1_">
		<g display="inline">
			<path fill="#3C474B" d="M203.938,390c-3.958,0-7.917,0-11.874,0c-0.702-0.217-1.39-0.521-2.107-0.635
				c-22.704-3.604-40.163-19.699-45.628-42.088c-0.374-1.532-0.742-3.066-1.154-4.771c-32.065,0-63.939,0-95.814,0
				c0-5.192,0-10.388,0-15.583c18.859-0.717,32.628-15.311,32.128-36.816c-0.813-34.973-0.2-69.979-0.231-104.969
				c-0.009-10.201,1.109-20.263,4.2-29.979c12.614-39.654,39.971-64.229,78.985-76.754c2.139-0.688,4.32-1.243,6.764-1.941
				c-0.777-0.963-1.229-1.536-1.694-2.098c-17.836-21.518-8.113-54.313,18.554-62.53c2.218-0.684,4.492-1.188,6.74-1.775
				c3.464,0,6.925,0,10.388,0c0.574,0.21,1.134,0.504,1.728,0.621C235.434,16.646,247.773,51,228,74.935
				c-0.37,0.45-0.646,0.98-0.542,0.822c9.954,4.078,20.344,7.232,29.659,12.342c38.468,21.1,60.082,52.707,59.68,97.836
				c-0.321,36.215-0.071,72.436-0.059,108.654c0.004,10.138,3.994,18.443,11.719,24.958c5.82,4.912,12.777,6.773,20.185,7.376
				c0,5.195,0,10.39,0,15.583c-31.961,0-63.921,0-95.931,0c-0.249,1.169-0.391,1.885-0.554,2.592
				c-5.076,21.99-18.28,36.45-39.962,42.988C209.496,388.9,206.691,389.371,203.938,390z M312.3,326.618
				c-0.485-0.9-0.661-1.351-0.938-1.72c-7.463-9.974-10.59-21.129-10.5-33.621c0.259-36.354,0.066-72.709,0.101-109.066
				c0.022-23.665-8.086-44.218-24.771-60.829C247.4,92.725,212.359,83.886,173.204,92.13c-42.087,8.86-79.727,45.354-78.341,98.017
				c0.91,34.602,0.118,69.246,0.2,103.871c0.026,11.406-2.991,21.689-10.136,30.678c-0.392,0.492-0.566,1.158-0.926,1.924
				C160.151,326.618,235.93,326.618,312.3,326.618z M190.082,71.349c0-7.186,0-14.273,0-21.433c5.508,0,10.583,0,15.889,0
				c0,3.792,0,7.239,0,10.686c0,3.55,0,7.099,0,10.731c10.09-2.509,16.955-13.474,15.654-24.526
				c-1.423-12.084-11.279-20.905-23.422-20.961c-12.389-0.057-22.352,8.701-23.82,20.938
				C173.058,57.831,179.89,68.771,190.082,71.349z M159.449,342.511c3.362,18.511,21.378,32.609,39.835,31.663
				c18.481-0.947,35.729-15.576,37.062-31.663c-4.826,0-9.641-0.104-14.441,0.095c-0.875,0.037-2.045,1.125-2.496,2.021
				c-4.489,8.894-11.598,13.653-21.595,13.594c-9.842-0.06-16.817-4.833-21.234-13.575c-0.455-0.899-1.613-2.002-2.484-2.037
				C169.294,342.407,164.48,342.511,159.449,342.511z"/>
			<path fill="#02B0ED" d="M268.918,199.858c-23.665,0-47.102,0-70.728,0c0-26.324,0-52.48,0-78.646
				C231.668,116.11,276.174,142.147,268.918,199.858z"/>
		</g>
	</g>
	<g id="Layer_2">
		<path display="inline" d="M48.695,343.55c0-4.85-0.01-9.073,0.01-13.296c0.003-0.73,0.138-1.463,0.228-2.359
			c2.385-0.385,4.739-0.615,7.017-1.16c14.598-3.492,24.666-16.113,24.691-31.176c0.061-35.631,0.688-71.275-0.132-106.887
			c-1.288-55.936,38.084-99.083,86.888-112.046c1.173-0.312,2.338-0.654,3.984-1.116c-8.893-9.568-12.279-20.678-10.481-33.206
			c1.396-9.723,5.919-17.901,13.438-24.293c14.898-12.667,37.391-12.605,52.172,0.241c8.504,7.391,12.959,16.846,13.533,28.123
			c0.564,11.128-3.084,20.745-10.17,28.37c10.086,4.13,20.445,7.443,29.925,12.428c29.007,15.255,49.286,38.088,57.271,70.449
			c1.915,7.77,2.669,15.997,2.729,24.022c0.278,37.122,0.484,74.254-0.021,111.374c-0.277,20.299,14.598,33.842,30.078,34.541
			c0.484,0.021,0.964,0.17,1.725,0.312c0,5.062,0,10.086,0,15.487c-31.921,0-63.869,0-95.993,0c-0.671,2.69-1.188,5.097-1.87,7.453
			c-7.238,25.082-29.961,41.494-56.089,40.549c-24.864-0.901-46.635-19.555-51.736-44.611c-0.572-2.807-1.645-3.251-4.138-3.245
			c-29.401,0.076-58.802,0.048-88.203,0.048C52.082,343.55,50.615,343.55,48.695,343.55z M315.414,327.473
			c-10.766-17.703-11.393-19.97-11.393-40.563c0-35.012-0.01-70.021,0.004-105.034c0.01-23.846-8.242-44.521-25.067-61.245
			c-28.7-28.529-63.663-37.509-102.719-29.561c-43.808,8.916-80.883,46.367-79.831,97.634c0.724,35.247,0.077,70.519,0.172,105.778
			c0.031,11.769-3.07,22.351-10.565,31.531c-0.271,0.332-0.4,0.776-0.738,1.459C162.111,327.473,238.529,327.473,315.414,327.473z
			 M208.324,70.286c9.873-2.225,16.844-13.078,15.811-24.236c-1.123-12.132-10.859-21.176-23.199-21.55
			c-12.372-0.375-22.584,8.276-24.386,20.656c-1.619,11.135,5.172,22.294,15.841,25.25c0-7.368,0-14.592,0-21.684
			c5.604,0,10.632,0,15.933,0C208.324,56.104,208.324,63.165,208.324,70.286z M161.478,343.553
			c3.091,18.282,21.095,32.561,39.678,31.922c18.652-0.642,36.041-15.201,37.822-31.922c-4.867,0-9.711-0.078-14.547,0.078
			c-0.843,0.027-2.041,0.872-2.414,1.655c-4.41,9.216-11.629,14.129-21.859,14.088c-10.069-0.037-17.172-4.933-21.573-13.965
			c-0.416-0.854-1.756-1.738-2.698-1.772C171.173,343.455,166.447,343.553,161.478,343.553z"/>
	</g>
	<g id="Layer_3">
		<path display="inline" d="M93.584,319.333c0-77.449,0-154.099,0-230.691c104.568-12.909,227.137,64.836,207.602,230.691
			C232.341,319.333,163.404,319.333,93.584,319.333z"/>
	</g>
	<g id="Layer_4">
		<path display="inline" d="M267.997,288.242c-73.048,58.826-166.478,41.386-218.763-22.406
			C-1.812,203.559,2.784,116.637,60.216,59.208C117.646,1.78,204.57-2.808,266.846,48.237
			c63.698,52.21,81.282,145.634,22.853,218.199c1.165,1.234,2.354,2.551,3.606,3.803c29.471,29.484,58.932,58.979,88.44,88.424
			c4.626,4.618,7.152,9.768,5.36,16.406c-2.911,10.796-15.477,15.146-24.386,8.399c-1.444-1.095-2.718-2.431-4.009-3.72
			c-29.058-29.036-58.109-58.078-87.139-87.145C270.298,291.327,269.27,289.807,267.997,288.242z M169.78,43.853
			C98.804,43.76,44.884,97.587,44.854,168.563C44.826,239.366,98.4,292.979,169.338,293.128
			c71.156,0.147,124.813-53.416,124.791-124.577C294.104,97.616,240.584,43.946,169.78,43.853z"/>
	</g>
	<g id="Layer_5" display="inline">
		<path d="M105.418,174.414c2.613,0,4.238,0,5.863,0c82.776,0,165.553-0.013,248.331,0.012c15.938,0.005,27.86,12.078,27.389,27.564
			c-0.414,13.586-11.64,24.953-25.247,25.545c-1.521,0.064-3.045,0.033-4.566,0.033c-82.085,0-164.169,0-246.253,0
			c-1.5,0-3,0-5.386,0c1.483,1.604,2.419,2.688,3.43,3.699c19.179,19.188,38.404,38.334,57.537,57.569
			c8.158,8.202,10.076,18.826,5.533,29c-4.632,10.372-14.618,16.595-25.837,15.992c-6.336-0.341-11.817-2.794-16.298-7.272
			C93.977,290.648,58,254.782,22.187,218.751c-10.147-10.21-9.957-25.188,0.227-35.76c9.602-9.969,19.518-19.632,29.305-29.421
			c25.838-25.843,51.656-51.706,77.536-77.505c8.252-8.226,19.238-10.218,29.38-5.595c9.853,4.491,16.254,14.888,15.717,25.701
			c-0.355,7.142-3.631,12.861-8.638,17.842c-19.138,19.035-38.193,38.153-57.277,57.243
			C107.661,172.03,106.92,172.839,105.418,174.414z"/>
	</g>
</g>
<g id="Layer_2_1_" display="none">
	<g display="inline">
		<path fill-rule="evenodd" clip-rule="evenodd" d="M199.428,386.322c-48.34-0.001-96.679-0.064-145.018,0.04
			c-13.813,0.03-25.364-4.629-33.762-15.695c-8.446-11.128-9.894-23.27-3.497-35.955c15.883-31.491,40.832-53.793,71.573-70.09
			c6.519-3.457,13.265-6.563,20.124-9.28c11.315-4.482,22.649-3.527,33.201,2.208c38.725,21.053,77.269,21.009,115.648-0.599
			c11.076-6.236,22.686-7.067,33.977-2.569c38.079,15.167,68.774,39.254,88.847,75.769c13.911,25.302-2.665,51.43-27.396,55.647
			c-3.264,0.556-6.652,0.503-9.984,0.505C295.234,386.332,247.332,386.322,199.428,386.322z"/>
		<path fill-rule="evenodd" clip-rule="evenodd" d="M292.494,126.506c-0.529,29.429-8.635,56.664-28.324,79.574
			c-37.175,43.256-96.384,41.98-131.75-2.814c-19.479-24.674-27.198-53.172-25.598-84.289c1.457-28.285,10.662-53.706,29.831-74.896
			c17.165-18.974,38.338-29.866,64.438-29.316c26.958,0.568,48.058,13.04,64.733,33.415
			C284.315,70.774,292.021,97.258,292.494,126.506z"/>
	</g>
</g>
<g id="Layer_3_1_" display="none">
	<path display="inline" fill-rule="evenodd" clip-rule="evenodd" d="M265.808,287.559c-73.495,59.65-167.989,38.958-217.76-25.075
		C-0.416,200.133,6.197,114.755,64.109,59.556c58.075-55.354,143.253-57.531,204.068-4.893
		c60.072,51.996,74.929,141.422,18.806,211.408c1.123,1.193,2.277,2.479,3.496,3.698c28.986,29,57.963,58.014,86.991,86.972
		c4.541,4.531,7.112,9.559,5.39,16.106c-2.852,10.839-15.466,15.114-24.276,8.187c-1.403-1.104-2.643-2.425-3.912-3.692
		c-28.473-28.457-56.943-56.913-85.385-85.399C268.025,290.679,267.045,289.136,265.808,287.559z M168.835,47.192
		C99.026,47.234,46.096,100.28,46.2,170.091c0.106,69.642,52.907,122.272,122.677,122.28
		c69.825,0.009,122.403-52.49,122.503-122.319C291.48,100.117,238.649,47.149,168.835,47.192z"/>
</g>
<g id="Layer_4_1_" display="none">
	<g display="inline">
		<path fill-rule="evenodd" clip-rule="evenodd" d="M301.213,189.566c-22.456,0-44.912,0.025-67.368-0.009
			c-12.852-0.02-18.009-5.235-18.013-18.133c-0.01-40.456-0.011-80.91,0.001-121.365c0.004-12.971,5.376-18.262,18.511-18.264
			c44.568-0.007,89.139-0.01,133.707,0.001c12.883,0.003,18.455,5.571,18.462,18.511c0.021,40.284,0.02,80.567,0.001,120.851
			c-0.006,13.028-5.373,18.383-18.448,18.401C345.781,189.588,323.497,189.567,301.213,189.566z"/>
		<path fill-rule="evenodd" clip-rule="evenodd" d="M99.06,212.615c22.457,0,44.914-0.02,67.371,0.008
			c12.516,0.015,17.905,5.322,17.914,17.75c0.031,40.799,0.033,81.599-0.003,122.397c-0.011,12.051-5.558,17.501-17.663,17.505
			c-45.084,0.013-90.17,0.013-135.255,0c-12.09-0.003-17.708-5.459-17.725-17.517c-0.058-40.8-0.055-81.6-0.004-122.398
			c0.016-12.414,5.479-17.726,17.994-17.738C54.146,212.597,76.603,212.615,99.06,212.615z"/>
		<path fill-rule="evenodd" clip-rule="evenodd" d="M99.002,189.567c-22.286,0-44.571,0.018-66.857-0.007
			c-13.199-0.015-18.451-5.199-18.46-18.316c-0.029-40.286-0.028-80.571,0-120.857c0.009-13.303,5.406-18.59,18.827-18.592
			c44.4-0.006,88.8-0.007,133.199,0.001c13.318,0.002,18.636,5.321,18.641,18.698c0.015,40.114,0.013,80.229,0.002,120.342
			c-0.004,13.81-4.992,18.719-19.008,18.728C143.231,189.577,121.117,189.567,99.002,189.567z"/>
		<path fill-rule="evenodd" clip-rule="evenodd" d="M301.358,212.615c22.285,0,44.57-0.017,66.854,0.006
			c12.76,0.012,18.287,5.426,18.296,18.025c0.029,40.627,0.033,81.255-0.003,121.881c-0.01,12.047-5.687,17.742-17.566,17.746
			c-45.256,0.017-90.512,0.017-135.767,0c-11.763-0.004-17.327-5.533-17.334-17.271c-0.025-40.971-0.024-81.94-0.001-122.91
			c0.006-12.072,5.445-17.453,17.638-17.469C256.104,212.594,278.731,212.616,301.358,212.615z"/>
	</g>
</g>
<g id="Layer_5_1_">
	<g>
		<path fill-rule="evenodd" clip-rule="evenodd" d="M33.175,14.542c111.627,0,223.099,0,334.661,0
			c0.022,0.521,0.061,0.973,0.061,1.424c0.003,11.484,0.017,22.968-0.03,34.451c-0.004,0.761-0.3,1.652-0.756,2.261
			c-36.638,48.91-73.308,97.796-109.949,146.702c-0.636,0.848-1.277,1.128-2.307,1.127c-36.217-0.025-72.436-0.025-108.653,0.003
			c-1.087,0-1.752-0.327-2.406-1.201c-36.618-48.871-73.262-97.722-109.881-146.591c-0.413-0.551-0.773-1.311-0.776-1.975
			c-0.047-11.716-0.034-23.433-0.031-35.149C33.107,15.275,33.147,14.958,33.175,14.542z"/>
		<path fill-rule="evenodd" clip-rule="evenodd" d="M256.225,386.415c-0.66-0.321-1.19-0.572-1.716-0.833
			c-36.161-18.08-72.321-36.167-108.498-54.216c-1.03-0.514-1.334-1.099-1.333-2.209c0.03-36.122,0.024-72.243,0.024-108.365
			c0-0.502,0-1.005,0-1.598c37.226,0,74.338,0,111.523,0C256.225,274.902,256.225,330.562,256.225,386.415z"/>
	</g>
</g>
</symbol>


<symbol id="rightIco" viewBox="0 0 400 400">
<g id="Layer_1" display="none">
	<g display="inline">
		<path fill-rule="evenodd" clip-rule="evenodd" d="M342.771,391.5c-95.655,0-190.903,0-286.764,0c0-3.009,0-5.818,0-8.629
			c0.007-29.106,0.046-58.212,0.012-87.317c-0.04-34.168,26.604-66.141,60.571-70.818c14.981-2.063,30.347-1.686,45.543-1.78
			c35.438-0.224,70.878-0.045,106.318-0.06c35.818-0.014,65.733,24.007,73.021,58.792c0.799,3.813,1.427,7.746,1.439,11.626
			c0.112,31.669,0.062,63.339,0.05,95.008C342.961,389.218,342.856,390.116,342.771,391.5z M315.666,363.96
			c0-24.185,0.921-47.881-0.256-71.475c-1.198-24.056-20.775-41.742-45.007-41.892c-47.193-0.291-94.39-0.306-141.583,0.037
			c-25.751,0.186-45.623,21.07-45.657,46.923c-0.027,20.656-0.007,41.314-0.008,61.973c0,1.446,0,2.894,0,4.434
			C160.952,363.96,238.114,363.96,315.666,363.96z"/>
		<path fill-rule="evenodd" clip-rule="evenodd" d="M277.481,144.475c-7.637,33.076-37.011,55.629-70.98,56.34
			c-15.018,0.314-29.957-0.025-43.791-6.741c-27.35-13.283-42.267-35.312-43.652-65.634c-0.79-17.296-0.633-34.721,0.474-52
			c2.191-34.213,31.407-63.382,65.535-66.498c14.947-1.364,29.88-1.602,44.287,3.386c31.356,10.857,50.625,38.333,50.881,72.151
			c0.051,6.638,0.007,13.276,0.007,19.914C280.58,105.422,280.393,131.859,277.481,144.475z M145.878,104.853
			c0.181,0.006,0.361,0.013,0.542,0.019c0,7.841-0.155,15.686,0.031,23.522c0.443,18.653,12.464,35.205,29.981,41.884
			c11.092,4.229,22.565,3.354,33.961,2.686c22.274-1.305,41.553-21.086,42.101-43.322c0.386-15.673,0.331-31.366,0.085-47.044
			c-0.327-20.782-13.314-38.411-33.519-43.631c-8.843-2.284-18.492-2.074-27.761-1.951c-21.391,0.281-40.052,15.654-43.759,36.767
			C145.76,83.923,146.358,94.482,145.878,104.853z"/>
	</g>
</g>
<g id="Layer_2" display="none">
	<g display="inline">
		<path fill-rule="evenodd" clip-rule="evenodd" d="M302.895,135.745c28.963,2.365,47.621,22.667,47.617,51.148
			c-0.007,51.155,0.031,102.312-0.021,153.467c-0.025,25.351-15.317,44.994-39.304,49.589c-7.592,1.456-15.567,1.208-23.368,1.217
			c-62.592,0.076-125.181,0.063-187.772-0.004c-23.13-0.024-41.36-12.461-48.184-33.012c-1.492-4.493-2.499-9.383-2.514-14.093
			c-0.167-54.015-0.259-108.028-0.024-162.042c0.107-24.683,21.997-45.952,47.05-46.015c58.227-0.147,116.455-0.066,174.681-0.078
			c1.351,0,2.7,0,4.345,0c0.146-1.077,0.397-2.061,0.397-3.044c0.03-25.879,0.082-51.758,0.018-77.636
			c-0.027-10.985-7.422-18.571-18.383-18.6c-37.914-0.1-75.831-0.115-113.746,0.007c-11.906,0.038-19.77,8.385-19.794,20.377
			c-0.02,9.589-0.004,19.178-0.004,29.007c-9.272,0-18.077,0-27.545,0c0.688-14.482-1.792-28.98,1.896-43.125
			c4.838-18.555,23.242-33.078,42.613-33.229c39.871-0.313,79.747-0.352,119.616,0.006c22.85,0.204,42.229,20.336,42.37,43.255
			c0.159,25.877,0.049,51.757,0.056,77.636C302.896,132.207,302.895,133.839,302.895,135.745z M199.499,363.671
			c0,0.009,0,0.02,0,0.028c33.843,0,67.684,0.028,101.525-0.013c13.143-0.016,21.964-8.611,21.978-21.573
			c0.056-52.342,0.057-104.685,0.002-157.025c-0.013-13.093-9.126-22.079-22.148-22.08c-67.232-0.007-134.464-0.004-201.696,0.024
			c-13.873,0.006-22.838,8.991-22.847,22.888c-0.032,51.589,0.098,103.18-0.119,154.769c-0.057,13.604,10.224,23.27,22.685,23.12
			C132.414,363.403,165.958,363.671,199.499,363.671z"/>
		<path fill-rule="evenodd" clip-rule="evenodd" d="M213.512,313.587c-9.143,0-17.801,0-26.868,0
			c-0.066-1.517-0.185-2.959-0.187-4.401c-0.011-12.93,0.092-25.861-0.106-38.786c-0.027-1.765-1.07-4.054-2.416-5.167
			c-9.423-7.791-12.886-19.865-8.645-31.264c3.913-10.515,14.775-17.859,25.959-17.553c11.506,0.317,22.135,8.267,25.411,19.003
			c3.517,11.528-0.287,23.367-10.158,30.305c-2.478,1.741-3.061,3.556-3.039,6.306C213.569,285.703,213.512,299.379,213.512,313.587
			z"/>
	</g>
</g>
<g id="Layer_3">
	<path fill-rule="evenodd" clip-rule="evenodd" d="M142.419,355.212c-0.489-0.754-0.897-1.578-1.478-2.252
		c-30.938-35.92-61.891-71.826-92.839-107.736c-0.165-0.191-0.291-0.418-0.583-0.843c2.744-3.349,5.527-6.747,8.386-10.237
		c24.826,14.024,49.523,27.976,74.298,41.972c5.167-6.932,10.196-13.771,15.322-20.538c30.391-40.116,63.613-77.706,100.561-111.913
		c28.852-26.713,59.594-50.98,93.75-70.687c0.727-0.42,1.462-0.828,2.413-1.366c1.343,1.794,2.653,3.543,3.961,5.295
		c1.312,1.76,2.62,3.523,4.037,5.429c-2.932,2.733-5.78,5.405-8.647,8.057c-59.21,54.781-108.793,117.268-149.617,186.782
		c-14.637,24.924-28.116,50.463-40.893,76.38c-0.251,0.511-0.334,1.104-0.497,1.658
		C147.869,355.212,145.144,355.212,142.419,355.212z"/>
</g>
</symbol>


<symbol id="crossIco" viewBox="0 0 400 400">
<g id="Layer_1" display="none">
	<g id="Layer_1_2_">
		<g id="Layer_1_1_" display="inline">
			<g>
				<path fill="#3C474B" d="M203.938,390c-3.958,0-7.917,0-11.874,0c-0.702-0.217-1.39-0.521-2.107-0.635
					c-22.704-3.604-40.163-19.699-45.628-42.088c-0.374-1.532-0.742-3.066-1.154-4.771c-32.065,0-63.939,0-95.814,0
					c0-5.191,0-10.388,0-15.583c18.859-0.717,32.628-15.312,32.128-36.815c-0.813-34.974-0.2-69.979-0.231-104.969
					c-0.009-10.201,1.109-20.263,4.2-29.979c12.614-39.654,39.971-64.229,78.985-76.754c2.139-0.688,4.32-1.243,6.764-1.941
					c-0.777-0.963-1.229-1.536-1.694-2.098c-17.836-21.518-8.113-54.313,18.554-62.53c2.218-0.684,4.492-1.188,6.74-1.775
					c3.464,0,6.925,0,10.388,0c0.574,0.21,1.134,0.504,1.728,0.621C235.434,16.646,247.773,51,228,74.935
					c-0.37,0.45-0.646,0.98-0.542,0.822c9.954,4.078,20.344,7.232,29.659,12.342c38.468,21.1,60.082,52.707,59.68,97.836
					c-0.321,36.215-0.071,72.436-0.059,108.654c0.004,10.138,3.994,18.443,11.719,24.958c5.82,4.912,12.777,6.773,20.185,7.376
					c0,5.195,0,10.39,0,15.583c-31.961,0-63.921,0-95.931,0c-0.249,1.169-0.391,1.885-0.554,2.592
					c-5.076,21.99-18.28,36.45-39.962,42.988C209.496,388.9,206.691,389.371,203.938,390z M312.3,326.618
					c-0.484-0.9-0.661-1.351-0.938-1.72c-7.464-9.975-10.591-21.129-10.501-33.621c0.26-36.354,0.066-72.709,0.102-109.066
					c0.021-23.665-8.086-44.218-24.771-60.829C247.4,92.725,212.359,83.886,173.204,92.13c-42.087,8.86-79.727,45.354-78.341,98.017
					c0.91,34.602,0.118,69.246,0.2,103.871c0.026,11.406-2.991,21.689-10.136,30.678c-0.392,0.492-0.566,1.158-0.926,1.925
					C160.151,326.618,235.93,326.618,312.3,326.618z M190.082,71.349c0-7.186,0-14.273,0-21.433c5.508,0,10.583,0,15.889,0
					c0,3.792,0,7.239,0,10.686c0,3.55,0,7.099,0,10.731c10.09-2.509,16.955-13.474,15.654-24.526
					c-1.423-12.084-11.279-20.905-23.422-20.961c-12.389-0.057-22.352,8.701-23.82,20.938
					C173.058,57.831,179.89,68.771,190.082,71.349z M159.449,342.511c3.362,18.511,21.378,32.609,39.835,31.663
					c18.481-0.947,35.729-15.576,37.062-31.663c-4.826,0-9.641-0.104-14.441,0.095c-0.875,0.037-2.045,1.125-2.495,2.021
					c-4.489,8.895-11.599,13.652-21.595,13.594c-9.842-0.06-16.817-4.832-21.234-13.574c-0.455-0.899-1.613-2.002-2.484-2.037
					C169.294,342.407,164.48,342.511,159.449,342.511z"/>
				<path fill="#02B0ED" d="M268.918,199.858c-23.665,0-47.102,0-70.728,0c0-26.324,0-52.48,0-78.646
					C231.668,116.11,276.174,142.147,268.918,199.858z"/>
			</g>
		</g>
		<g id="Layer_2" display="inline">
			<path d="M48.695,343.55c0-4.85-0.01-9.073,0.01-13.296c0.003-0.73,0.138-1.463,0.228-2.359c2.385-0.385,4.739-0.615,7.017-1.16
				c14.598-3.491,24.666-16.112,24.691-31.176c0.061-35.631,0.688-71.274-0.132-106.887c-1.288-55.936,38.084-99.083,86.888-112.046
				c1.173-0.312,2.338-0.654,3.984-1.116c-8.893-9.568-12.279-20.678-10.481-33.206c1.396-9.723,5.919-17.901,13.438-24.293
				c14.898-12.667,37.391-12.604,52.172,0.241c8.504,7.391,12.959,16.846,13.533,28.123c0.564,11.128-3.084,20.745-10.17,28.37
				c10.086,4.13,20.445,7.443,29.925,12.428c29.007,15.255,49.286,38.088,57.271,70.449c1.915,7.77,2.669,15.997,2.729,24.022
				c0.278,37.122,0.484,74.254-0.021,111.374c-0.277,20.299,14.598,33.842,30.078,34.541c0.483,0.021,0.964,0.17,1.725,0.313
				c0,5.063,0,10.086,0,15.486c-31.921,0-63.869,0-95.993,0c-0.671,2.69-1.188,5.098-1.87,7.453
				c-7.238,25.082-29.961,41.494-56.089,40.549c-24.864-0.9-46.635-19.555-51.736-44.61c-0.572-2.808-1.645-3.251-4.138-3.245
				c-29.401,0.076-58.802,0.049-88.203,0.049C52.082,343.55,50.615,343.55,48.695,343.55z M315.414,327.473
				c-10.766-17.703-11.393-19.97-11.393-40.563c0-35.012-0.011-70.021,0.004-105.034c0.01-23.846-8.242-44.521-25.067-61.245
				c-28.7-28.529-63.663-37.509-102.719-29.561c-43.808,8.916-80.883,46.367-79.831,97.634c0.724,35.247,0.077,70.519,0.172,105.778
				c0.031,11.769-3.07,22.351-10.565,31.531c-0.271,0.332-0.4,0.775-0.738,1.459C162.111,327.473,238.529,327.473,315.414,327.473z
				 M208.324,70.286c9.873-2.225,16.844-13.078,15.811-24.236c-1.123-12.132-10.859-21.176-23.199-21.55
				c-12.372-0.375-22.583,8.276-24.386,20.656c-1.619,11.135,5.172,22.294,15.841,25.25c0-7.368,0-14.592,0-21.684
				c5.604,0,10.632,0,15.933,0C208.324,56.104,208.324,63.165,208.324,70.286z M161.478,343.553
				c3.091,18.282,21.095,32.562,39.678,31.922c18.652-0.642,36.041-15.201,37.822-31.922c-4.867,0-9.711-0.078-14.547,0.078
				c-0.844,0.027-2.041,0.872-2.414,1.655c-4.41,9.216-11.629,14.129-21.859,14.088c-10.069-0.037-17.172-4.933-21.573-13.965
				c-0.416-0.854-1.756-1.738-2.698-1.772C171.173,343.455,166.447,343.553,161.478,343.553z"/>
		</g>
		<g id="Layer_3" display="inline">
			<path d="M93.584,319.333c0-77.449,0-154.099,0-230.691c104.568-12.909,227.137,64.836,207.602,230.691
				C232.341,319.333,163.404,319.333,93.584,319.333z"/>
		</g>
		<g id="Layer_4" display="inline">
			<path d="M267.997,288.242c-73.048,58.826-166.478,41.386-218.763-22.406C-1.812,203.559,2.784,116.637,60.216,59.208
				C117.646,1.78,204.57-2.808,266.846,48.237c63.698,52.21,81.282,145.634,22.854,218.199c1.165,1.234,2.354,2.551,3.605,3.804
				c29.472,29.483,58.933,58.979,88.44,88.424c4.626,4.618,7.152,9.769,5.36,16.405c-2.911,10.797-15.478,15.146-24.387,8.399
				c-1.443-1.095-2.718-2.431-4.009-3.72c-29.058-29.036-58.108-58.078-87.14-87.145
				C270.298,291.327,269.27,289.807,267.997,288.242z M169.78,43.853C98.804,43.76,44.884,97.587,44.854,168.563
				C44.826,239.366,98.4,292.979,169.338,293.128c71.156,0.147,124.813-53.416,124.791-124.577
				C294.104,97.616,240.584,43.946,169.78,43.853z"/>
		</g>
		<g id="Layer_5" display="inline">
			<path d="M105.418,174.414c2.613,0,4.238,0,5.863,0c82.776,0,165.553-0.013,248.332,0.012
				c15.938,0.005,27.859,12.078,27.389,27.564c-0.414,13.586-11.64,24.953-25.247,25.545c-1.521,0.064-3.045,0.033-4.566,0.033
				c-82.084,0-164.168,0-246.252,0c-1.5,0-3,0-5.386,0c1.483,1.604,2.419,2.688,3.43,3.699
				c19.179,19.188,38.404,38.334,57.537,57.568c8.158,8.202,10.076,18.826,5.533,29c-4.632,10.372-14.618,16.596-25.837,15.992
				c-6.336-0.342-11.817-2.794-16.298-7.271C93.977,290.648,58,254.782,22.187,218.751c-10.147-10.21-9.957-25.188,0.227-35.76
				c9.602-9.969,19.518-19.632,29.305-29.421c25.838-25.843,51.656-51.706,77.536-77.505c8.252-8.226,19.238-10.218,29.38-5.595
				c9.853,4.491,16.254,14.888,15.717,25.701c-0.355,7.142-3.631,12.861-8.638,17.842c-19.138,19.035-38.193,38.153-57.277,57.243
				C107.661,172.03,106.92,172.839,105.418,174.414z"/>
		</g>
	</g>
	<g id="Layer_2_1_" display="inline">
		<g>
			<path d="M199.428,386.322c-48.34-0.002-96.679-0.064-145.018,0.039c-13.813,0.031-25.364-4.629-33.762-15.694
				c-8.446-11.128-9.894-23.271-3.497-35.955c15.883-31.491,40.832-53.793,71.573-70.09c6.519-3.457,13.265-6.563,20.124-9.28
				c11.315-4.482,22.649-3.527,33.201,2.208c38.725,21.054,77.27,21.009,115.648-0.599c11.076-6.236,22.686-7.067,33.977-2.569
				c38.079,15.167,68.774,39.254,88.848,75.769c13.91,25.303-2.665,51.431-27.396,55.647c-3.264,0.556-6.652,0.503-9.984,0.505
				C295.234,386.332,247.332,386.322,199.428,386.322z"/>
			<path d="M292.494,126.506c-0.529,29.429-8.635,56.664-28.324,79.574c-37.175,43.256-96.384,41.98-131.75-2.814
				c-19.479-24.674-27.198-53.172-25.598-84.289c1.457-28.285,10.662-53.706,29.831-74.896
				c17.165-18.974,38.338-29.866,64.438-29.316c26.958,0.568,48.058,13.04,64.733,33.415
				C284.314,70.774,292.021,97.258,292.494,126.506z"/>
		</g>
	</g>
</g>
<g id="Layer_2_2_" display="none">
	<path display="inline" fill-rule="evenodd" clip-rule="evenodd" d="M13.326,200.383C13.371,97.062,97.169,13.322,200.514,13.327
		c103.465,0.005,187.29,83.966,187.158,187.461c-0.131,103.277-84.058,186.98-187.382,186.884
		C96.986,387.577,13.283,303.727,13.326,200.383z M177.35,177.277c0,46.843,0,93.416,0,139.92c15.636,0,31.024,0,46.364,0
		c0-46.773,0-93.26,0-139.92C208.232,177.277,192.932,177.277,177.35,177.277z M177.36,83.681c0,15.667,0,31.049,0,46.339
		c15.641,0,31.023,0,46.345,0c0-15.585,0-30.881,0-46.339C208.218,83.681,192.922,83.681,177.36,83.681z"/>
</g>
<g id="Layer_3_1_">
	<path fill-rule="evenodd" clip-rule="evenodd" d="M46.152,313.258c37.326-37.33,74.63-74.636,112.161-112.172
		c-37.56-37.503-74.959-74.847-112.027-111.86c14.24-14.25,28.043-28.064,41.834-41.864c36.83,36.882,74.184,74.288,111.406,111.562
		c37.914-37.945,75.283-75.344,112.311-112.401c14.567,14.542,28.441,28.392,42.574,42.5
		c-36.99,37.003-74.362,74.389-111.83,111.869c37.612,37.573,74.94,74.862,111.833,111.716
		c-14.21,14.203-28.102,28.09-42.279,42.261c-36.66-36.69-74.041-74.106-111.481-111.577c-37.577,37.6-74.96,75.004-112.164,112.228
		C74.232,341.285,60.414,327.494,46.152,313.258z"/>
</g>
</symbol>



<symbol id="infoIco" viewBox="0 0 400 400">
<g id="Layer_1" display="none">
	<g id="Layer_1_2_">
		<g id="Layer_1_1_" display="inline">
			<g>
				<path fill="#3C474B" d="M203.938,390c-3.958,0-7.917,0-11.874,0c-0.702-0.217-1.39-0.521-2.107-0.635
					c-22.704-3.604-40.163-19.699-45.628-42.088c-0.374-1.532-0.742-3.066-1.154-4.771c-32.065,0-63.939,0-95.814,0
					c0-5.191,0-10.388,0-15.583c18.859-0.717,32.628-15.312,32.128-36.815c-0.813-34.974-0.2-69.979-0.231-104.969
					c-0.009-10.201,1.109-20.263,4.2-29.979c12.614-39.654,39.971-64.229,78.985-76.754c2.139-0.688,4.32-1.243,6.764-1.941
					c-0.777-0.963-1.229-1.536-1.694-2.098c-17.836-21.518-8.113-54.313,18.554-62.53c2.218-0.684,4.492-1.188,6.74-1.775
					c3.464,0,6.925,0,10.388,0c0.574,0.21,1.134,0.504,1.728,0.621C235.434,16.646,247.773,51,228,74.935
					c-0.37,0.45-0.646,0.98-0.542,0.822c9.954,4.078,20.344,7.232,29.659,12.342c38.468,21.1,60.082,52.707,59.68,97.836
					c-0.321,36.215-0.071,72.436-0.059,108.654c0.004,10.138,3.994,18.443,11.719,24.958c5.82,4.912,12.777,6.773,20.185,7.376
					c0,5.195,0,10.39,0,15.583c-31.961,0-63.921,0-95.931,0c-0.249,1.169-0.391,1.885-0.554,2.592
					c-5.076,21.99-18.28,36.45-39.962,42.988C209.496,388.9,206.691,389.371,203.938,390z M312.3,326.618
					c-0.484-0.9-0.661-1.351-0.938-1.72c-7.464-9.975-10.591-21.129-10.501-33.621c0.26-36.354,0.066-72.709,0.102-109.066
					c0.021-23.665-8.086-44.218-24.771-60.829C247.4,92.725,212.359,83.886,173.204,92.13c-42.087,8.86-79.727,45.354-78.341,98.017
					c0.91,34.602,0.118,69.246,0.2,103.871c0.026,11.406-2.991,21.689-10.136,30.678c-0.392,0.492-0.566,1.158-0.926,1.925
					C160.151,326.618,235.93,326.618,312.3,326.618z M190.082,71.349c0-7.186,0-14.273,0-21.433c5.508,0,10.583,0,15.889,0
					c0,3.792,0,7.239,0,10.686c0,3.55,0,7.099,0,10.731c10.09-2.509,16.955-13.474,15.654-24.526
					c-1.423-12.084-11.279-20.905-23.422-20.961c-12.389-0.057-22.352,8.701-23.82,20.938
					C173.058,57.831,179.89,68.771,190.082,71.349z M159.449,342.511c3.362,18.511,21.378,32.609,39.835,31.663
					c18.481-0.947,35.729-15.576,37.062-31.663c-4.826,0-9.641-0.104-14.441,0.095c-0.875,0.037-2.045,1.125-2.495,2.021
					c-4.489,8.895-11.599,13.652-21.595,13.594c-9.842-0.06-16.817-4.832-21.234-13.574c-0.455-0.899-1.613-2.002-2.484-2.037
					C169.294,342.407,164.48,342.511,159.449,342.511z"/>
				<path fill="#02B0ED" d="M268.918,199.858c-23.665,0-47.102,0-70.728,0c0-26.324,0-52.48,0-78.646
					C231.668,116.11,276.174,142.147,268.918,199.858z"/>
			</g>
		</g>
		<g id="Layer_2" display="inline">
			<path d="M48.695,343.55c0-4.85-0.01-9.073,0.01-13.296c0.003-0.73,0.138-1.463,0.228-2.359c2.385-0.385,4.739-0.615,7.017-1.16
				c14.598-3.491,24.666-16.112,24.691-31.176c0.061-35.631,0.688-71.274-0.132-106.887c-1.288-55.936,38.084-99.083,86.888-112.046
				c1.173-0.312,2.338-0.654,3.984-1.116c-8.893-9.568-12.279-20.678-10.481-33.206c1.396-9.723,5.919-17.901,13.438-24.293
				c14.898-12.667,37.391-12.604,52.172,0.241c8.504,7.391,12.959,16.846,13.533,28.123c0.564,11.128-3.084,20.745-10.17,28.37
				c10.086,4.13,20.445,7.443,29.925,12.428c29.007,15.255,49.286,38.088,57.271,70.449c1.915,7.77,2.669,15.997,2.729,24.022
				c0.278,37.122,0.484,74.254-0.021,111.374c-0.277,20.299,14.598,33.842,30.078,34.541c0.483,0.021,0.964,0.17,1.725,0.313
				c0,5.063,0,10.086,0,15.486c-31.921,0-63.869,0-95.993,0c-0.671,2.69-1.188,5.098-1.87,7.453
				c-7.238,25.082-29.961,41.494-56.089,40.549c-24.864-0.9-46.635-19.555-51.736-44.61c-0.572-2.808-1.645-3.251-4.138-3.245
				c-29.401,0.076-58.802,0.049-88.203,0.049C52.082,343.55,50.615,343.55,48.695,343.55z M315.414,327.473
				c-10.766-17.703-11.393-19.97-11.393-40.563c0-35.012-0.011-70.021,0.004-105.034c0.01-23.846-8.242-44.521-25.067-61.245
				c-28.7-28.529-63.663-37.509-102.719-29.561c-43.808,8.916-80.883,46.367-79.831,97.634c0.724,35.247,0.077,70.519,0.172,105.778
				c0.031,11.769-3.07,22.351-10.565,31.531c-0.271,0.332-0.4,0.775-0.738,1.459C162.111,327.473,238.529,327.473,315.414,327.473z
				 M208.324,70.286c9.873-2.225,16.844-13.078,15.811-24.236c-1.123-12.132-10.859-21.176-23.199-21.55
				c-12.372-0.375-22.583,8.276-24.386,20.656c-1.619,11.135,5.172,22.294,15.841,25.25c0-7.368,0-14.592,0-21.684
				c5.604,0,10.632,0,15.933,0C208.324,56.104,208.324,63.165,208.324,70.286z M161.478,343.553
				c3.091,18.282,21.095,32.562,39.678,31.922c18.652-0.642,36.041-15.201,37.822-31.922c-4.867,0-9.711-0.078-14.547,0.078
				c-0.844,0.027-2.041,0.872-2.414,1.655c-4.41,9.216-11.629,14.129-21.859,14.088c-10.069-0.037-17.172-4.933-21.573-13.965
				c-0.416-0.854-1.756-1.738-2.698-1.772C171.173,343.455,166.447,343.553,161.478,343.553z"/>
		</g>
		<g id="Layer_3" display="inline">
			<path d="M93.584,319.333c0-77.449,0-154.099,0-230.691c104.568-12.909,227.137,64.836,207.602,230.691
				C232.341,319.333,163.404,319.333,93.584,319.333z"/>
		</g>
		<g id="Layer_4" display="inline">
			<path d="M267.997,288.242c-73.048,58.826-166.478,41.386-218.763-22.406C-1.812,203.559,2.784,116.637,60.216,59.208
				C117.646,1.78,204.57-2.808,266.846,48.237c63.698,52.21,81.282,145.634,22.854,218.199c1.165,1.234,2.354,2.551,3.605,3.804
				c29.472,29.483,58.933,58.979,88.44,88.424c4.626,4.618,7.152,9.769,5.36,16.405c-2.911,10.797-15.478,15.146-24.387,8.399
				c-1.443-1.095-2.718-2.431-4.009-3.72c-29.058-29.036-58.108-58.078-87.14-87.145
				C270.298,291.327,269.27,289.807,267.997,288.242z M169.78,43.853C98.804,43.76,44.884,97.587,44.854,168.563
				C44.826,239.366,98.4,292.979,169.338,293.128c71.156,0.147,124.813-53.416,124.791-124.577
				C294.104,97.616,240.584,43.946,169.78,43.853z"/>
		</g>
		<g id="Layer_5" display="inline">
			<path d="M105.418,174.414c2.613,0,4.238,0,5.863,0c82.776,0,165.553-0.013,248.332,0.012
				c15.938,0.005,27.859,12.078,27.389,27.564c-0.414,13.586-11.64,24.953-25.247,25.545c-1.521,0.064-3.045,0.033-4.566,0.033
				c-82.084,0-164.168,0-246.252,0c-1.5,0-3,0-5.386,0c1.483,1.604,2.419,2.688,3.43,3.699
				c19.179,19.188,38.404,38.334,57.537,57.568c8.158,8.202,10.076,18.826,5.533,29c-4.632,10.372-14.618,16.596-25.837,15.992
				c-6.336-0.342-11.817-2.794-16.298-7.271C93.977,290.648,58,254.782,22.187,218.751c-10.147-10.21-9.957-25.188,0.227-35.76
				c9.602-9.969,19.518-19.632,29.305-29.421c25.838-25.843,51.656-51.706,77.536-77.505c8.252-8.226,19.238-10.218,29.38-5.595
				c9.853,4.491,16.254,14.888,15.717,25.701c-0.355,7.142-3.631,12.861-8.638,17.842c-19.138,19.035-38.193,38.153-57.277,57.243
				C107.661,172.03,106.92,172.839,105.418,174.414z"/>
		</g>
	</g>
	<g id="Layer_2_1_" display="inline">
		<g>
			<path d="M199.428,386.322c-48.34-0.002-96.679-0.064-145.018,0.039c-13.813,0.031-25.364-4.629-33.762-15.694
				c-8.446-11.128-9.894-23.271-3.497-35.955c15.883-31.491,40.832-53.793,71.573-70.09c6.519-3.457,13.265-6.563,20.124-9.28
				c11.315-4.482,22.649-3.527,33.201,2.208c38.725,21.054,77.27,21.009,115.648-0.599c11.076-6.236,22.686-7.067,33.977-2.569
				c38.079,15.167,68.774,39.254,88.848,75.769c13.91,25.303-2.665,51.431-27.396,55.647c-3.264,0.556-6.652,0.503-9.984,0.505
				C295.234,386.332,247.332,386.322,199.428,386.322z"/>
			<path d="M292.494,126.506c-0.529,29.429-8.635,56.664-28.324,79.574c-37.175,43.256-96.384,41.98-131.75-2.814
				c-19.479-24.674-27.198-53.172-25.598-84.289c1.457-28.285,10.662-53.706,29.831-74.896
				c17.165-18.974,38.338-29.866,64.438-29.316c26.958,0.568,48.058,13.04,64.733,33.415
				C284.314,70.774,292.021,97.258,292.494,126.506z"/>
		</g>
	</g>
</g>
<g id="Layer_2_2_">
	<path fill-rule="evenodd" clip-rule="evenodd" d="M13.326,200.383C13.371,97.062,97.169,13.322,200.514,13.327
		c103.465,0.005,187.29,83.966,187.158,187.461c-0.131,103.277-84.058,186.98-187.382,186.884
		C96.986,387.577,13.283,303.727,13.326,200.383z M177.35,177.277c0,46.843,0,93.416,0,139.92c15.636,0,31.024,0,46.364,0
		c0-46.773,0-93.26,0-139.92C208.232,177.277,192.932,177.277,177.35,177.277z M177.36,83.681c0,15.667,0,31.049,0,46.339
		c15.641,0,31.023,0,46.345,0c0-15.585,0-30.881,0-46.339C208.218,83.681,192.922,83.681,177.36,83.681z"/>
</g>
</symbol>
</svg>

