<?xml version="1.0" encoding="utf-8"?>
<!-- Generator: Adobe Illustrator 16.0.0, SVG Export Plug-In . SVG Version: 6.00 Build 0)  -->
<!DOCTYPE svg PUBLIC "-//W3C//DTD SVG 1.1//EN" "http://www.w3.org/Graphics/SVG/1.1/DTD/svg11.dtd">
<svg version="1.1" id="Layer_1" xmlns="http://www.w3.org/2000/svg" xmlns:xlink="http://www.w3.org/1999/xlink" x="0px" y="0px"
	 width="400px" height="400px" viewBox="0 0 400 400" enable-background="new 0 0 400 400" xml:space="preserve">
<g id="Layer_1_1_" display="none">
	<g display="inline">
		<path fill="#3C474B" d="M203.938,390c-3.958,0-7.917,0-11.874,0c-0.702-0.217-1.39-0.521-2.107-0.635
			c-22.704-3.604-40.163-19.699-45.628-42.088c-0.374-1.532-0.742-3.066-1.154-4.771c-32.065,0-63.939,0-95.814,0
			c0-5.192,0-10.388,0-15.583c18.859-0.717,32.628-15.311,32.128-36.816c-0.813-34.973-0.2-69.979-0.231-104.969
			c-0.009-10.201,1.109-20.263,4.2-29.979c12.614-39.654,39.971-64.229,78.985-76.754c2.139-0.688,4.32-1.243,6.764-1.941
			c-0.777-0.963-1.229-1.536-1.694-2.098c-17.836-21.518-8.113-54.313,18.554-62.53c2.218-0.684,4.492-1.188,6.74-1.775
			c3.464,0,6.925,0,10.388,0c0.574,0.21,1.134,0.504,1.728,0.621C235.434,16.646,247.773,51,228,74.935
			c-0.37,0.45-0.646,0.98-0.542,0.822c9.954,4.078,20.344,7.232,29.659,12.342c38.468,21.1,60.082,52.707,59.68,97.836
			c-0.321,36.215-0.071,72.436-0.059,108.654c0.004,10.138,3.994,18.443,11.719,24.958c5.82,4.912,12.777,6.773,20.185,7.376
			c0,5.195,0,10.39,0,15.583c-31.961,0-63.921,0-95.931,0c-0.249,1.169-0.391,1.885-0.554,2.592
			c-5.076,21.99-18.28,36.45-39.962,42.988C209.496,388.9,206.691,389.371,203.938,390z M312.3,326.618
			c-0.485-0.9-0.661-1.351-0.938-1.72c-7.463-9.974-10.59-21.129-10.5-33.621c0.259-36.354,0.066-72.709,0.101-109.066
			c0.022-23.665-8.086-44.218-24.771-60.829C247.4,92.725,212.359,83.886,173.204,92.13c-42.087,8.86-79.727,45.354-78.341,98.017
			c0.91,34.602,0.118,69.246,0.2,103.871c0.026,11.406-2.991,21.689-10.136,30.678c-0.392,0.492-0.566,1.158-0.926,1.924
			C160.151,326.618,235.93,326.618,312.3,326.618z M190.082,71.349c0-7.186,0-14.273,0-21.433c5.508,0,10.583,0,15.889,0
			c0,3.792,0,7.239,0,10.686c0,3.55,0,7.099,0,10.731c10.09-2.509,16.955-13.474,15.654-24.526
			c-1.423-12.084-11.279-20.905-23.422-20.961c-12.389-0.057-22.352,8.701-23.82,20.938
			C173.058,57.831,179.89,68.771,190.082,71.349z M159.449,342.511c3.362,18.511,21.378,32.609,39.835,31.663
			c18.481-0.947,35.729-15.576,37.062-31.663c-4.826,0-9.641-0.104-14.441,0.095c-0.875,0.037-2.045,1.125-2.496,2.021
			c-4.489,8.894-11.598,13.653-21.595,13.594c-9.842-0.06-16.817-4.833-21.234-13.575c-0.455-0.899-1.613-2.002-2.484-2.037
			C169.294,342.407,164.48,342.511,159.449,342.511z"/>
		<path fill="#02B0ED" d="M268.918,199.858c-23.665,0-47.102,0-70.728,0c0-26.324,0-52.48,0-78.646
			C231.668,116.11,276.174,142.147,268.918,199.858z"/>
	</g>
</g>
<g id="Layer_2" display="none">
	<path display="inline" d="M48.695,343.55c0-4.85-0.01-9.073,0.01-13.296c0.003-0.73,0.138-1.463,0.228-2.359
		c2.385-0.385,4.739-0.615,7.017-1.16c14.598-3.492,24.666-16.113,24.691-31.176c0.061-35.631,0.688-71.275-0.132-106.887
		c-1.288-55.936,38.084-99.083,86.888-112.046c1.173-0.312,2.338-0.654,3.984-1.116c-8.893-9.568-12.279-20.678-10.481-33.206
		c1.396-9.723,5.919-17.901,13.438-24.293c14.898-12.667,37.391-12.605,52.172,0.241c8.504,7.391,12.959,16.846,13.533,28.123
		c0.564,11.128-3.084,20.745-10.17,28.37c10.086,4.13,20.445,7.443,29.925,12.428c29.007,15.255,49.286,38.088,57.271,70.449
		c1.915,7.77,2.669,15.997,2.729,24.022c0.278,37.122,0.484,74.254-0.021,111.374c-0.277,20.299,14.598,33.842,30.078,34.541
		c0.484,0.021,0.964,0.17,1.725,0.312c0,5.062,0,10.086,0,15.487c-31.921,0-63.869,0-95.993,0c-0.671,2.69-1.188,5.097-1.87,7.453
		c-7.238,25.082-29.961,41.494-56.089,40.549c-24.864-0.901-46.635-19.555-51.736-44.611c-0.572-2.807-1.645-3.251-4.138-3.245
		c-29.401,0.076-58.802,0.048-88.203,0.048C52.082,343.55,50.615,343.55,48.695,343.55z M315.414,327.473
		c-10.766-17.703-11.393-19.97-11.393-40.563c0-35.012-0.01-70.021,0.004-105.034c0.01-23.846-8.242-44.521-25.067-61.245
		c-28.7-28.529-63.663-37.509-102.719-29.561c-43.808,8.916-80.883,46.367-79.831,97.634c0.724,35.247,0.077,70.519,0.172,105.778
		c0.031,11.769-3.07,22.351-10.565,31.531c-0.271,0.332-0.4,0.776-0.738,1.459C162.111,327.473,238.529,327.473,315.414,327.473z
		 M208.324,70.286c9.873-2.225,16.844-13.078,15.811-24.236c-1.123-12.132-10.859-21.176-23.199-21.55
		c-12.372-0.375-22.584,8.276-24.386,20.656c-1.619,11.135,5.172,22.294,15.841,25.25c0-7.368,0-14.592,0-21.684
		c5.604,0,10.632,0,15.933,0C208.324,56.104,208.324,63.165,208.324,70.286z M161.478,343.553
		c3.091,18.282,21.095,32.561,39.678,31.922c18.652-0.642,36.041-15.201,37.822-31.922c-4.867,0-9.711-0.078-14.547,0.078
		c-0.843,0.027-2.041,0.872-2.414,1.655c-4.41,9.216-11.629,14.129-21.859,14.088c-10.069-0.037-17.172-4.933-21.573-13.965
		c-0.416-0.854-1.756-1.738-2.698-1.772C171.173,343.455,166.447,343.553,161.478,343.553z"/>
</g>
<g id="Layer_3" display="none">
	<path display="inline" d="M93.584,319.333c0-77.449,0-154.099,0-230.691c104.568-12.909,227.137,64.836,207.602,230.691
		C232.341,319.333,163.404,319.333,93.584,319.333z"/>
</g>
<g id="Layer_4" display="none">
	<path display="inline" d="M267.997,288.242c-73.048,58.826-166.478,41.386-218.763-22.406
		C-1.812,203.559,2.784,116.637,60.216,59.208C117.646,1.78,204.57-2.808,266.846,48.237
		c63.698,52.21,81.282,145.634,22.853,218.199c1.165,1.234,2.354,2.551,3.606,3.803c29.471,29.484,58.932,58.979,88.44,88.424
		c4.626,4.618,7.152,9.768,5.36,16.406c-2.911,10.796-15.477,15.146-24.386,8.399c-1.444-1.095-2.718-2.431-4.009-3.72
		c-29.058-29.036-58.109-58.078-87.139-87.145C270.298,291.327,269.27,289.807,267.997,288.242z M169.78,43.853
		C98.804,43.76,44.884,97.587,44.854,168.563C44.826,239.366,98.4,292.979,169.338,293.128
		c71.156,0.147,124.813-53.416,124.791-124.577C294.104,97.616,240.584,43.946,169.78,43.853z"/>
</g>
<g>
	<path fill-rule="evenodd" clip-rule="evenodd" d="M282.444,83.221c-29.333-24.042-62.087-35.486-99.571-30.972
		c-37.301,4.493-66.574,22.937-88.783,53.211c-6.171-4.642-12.112-9.11-18.038-13.567c41.25-66.221,150.408-90.497,220.877-25.421
		C292.099,72.059,287.256,77.657,282.444,83.221z"/>
	<path fill-rule="evenodd" clip-rule="evenodd" d="M301.776,224.175c-7.905,0-15.303,0-23.121,0c0-7.403,0.003-14.591-0.001-21.78
		c-0.005-8.545,0.095-17.093-0.043-25.637c-0.832-51.456-49.626-89.118-99.618-76.937c-1.269,0.31-2.544,0.598-4.101,0.962
		c-2.301-7.235-4.548-14.301-7.089-22.289c6.118-1.219,11.891-2.784,17.765-3.474c53.143-6.25,101.541,27.918,113.65,80.035
		c2.947,12.691,2.538,25.583,2.555,38.456C301.786,203.613,301.776,213.717,301.776,224.175z"/>
	<path fill-rule="evenodd" clip-rule="evenodd" d="M163.411,247.27c-7.884,0-15.283,0-23.138,0c0-4.613,0-9.031,0-13.45
		c0-17.938,0.206-35.88-0.04-53.815c-0.603-43.966,41.607-70.276,79.749-55.269c20.439,8.044,34.953,28.65,35.526,50.578
		c0.022,0.822,0.003,1.645,0.003,2.702c-7.652,0-15.063,0-22.647,0c-0.457-2.81-0.752-5.668-1.403-8.444
		c-3.901-16.602-19.384-27.459-36.771-25.87c-17.041,1.557-30.515,14.713-31.011,31.619c-0.594,20.209-0.223,40.446-0.267,60.67
		C163.404,239.688,163.411,243.386,163.411,247.27z"/>
	<path fill-rule="evenodd" clip-rule="evenodd" d="M347.853,293.457c-7.83,0-15.23,0-23.064,0c0-9.304-0.003-18.406,0-27.509
		c0.008-28.643-0.037-57.285,0.043-85.927c0.084-29.508-8.354-56.159-26.347-79.67c-0.359-0.47-0.707-0.95-1.32-1.777
		c6.071-4.564,12.077-9.079,18.639-14.011c3.8,5.77,7.742,11.187,11.093,16.946c13.978,24.022,20.998,49.958,20.967,77.792
		c-0.041,36.707-0.01,73.414-0.01,110.12C347.853,290.617,347.853,291.815,347.853,293.457z"/>
	<path fill-rule="evenodd" clip-rule="evenodd" d="M60.788,117.071c7.451,3.15,14.501,6.131,21.132,8.935
		c-2.663,8.297-5.938,16.118-7.584,24.268c-1.843,9.133-2.898,18.55-3.083,27.868c-0.432,21.879-0.141,43.774-0.142,65.662
		c0,1.057,0,2.115,0,3.421c-7.687,0-15.083,0-22.806,0c-0.076-1.008-0.219-2.036-0.22-3.065c-0.008-22.73-0.149-45.462,0.051-68.19
		c0.171-19.44,4.126-38.183,11.461-56.198C59.909,119.005,60.263,118.258,60.788,117.071z"/>
	<path fill-rule="evenodd" clip-rule="evenodd" d="M278.938,247.621c7.641,0,15.046,0,22.645,0c0,42.25,0,84.297,0,126.576
		c-7.552,0-14.95,0-22.645,0C278.938,332.069,278.938,290.043,278.938,247.621z"/>
	<path fill-rule="evenodd" clip-rule="evenodd" d="M140.572,270.704c7.598,0,14.991,0,22.619,0c0,34.536,0,68.866,0,103.461
		c-7.556,0-14.937,0-22.619,0C140.572,339.767,140.572,305.443,140.572,270.704z"/>
	<path fill-rule="evenodd" clip-rule="evenodd" d="M94.433,178.029c-0.979-33.213,17.999-69.88,50.551-88.503
		c3.755,6.358,7.517,12.728,11.408,19.317c-25.56,15.938-38.1,39.284-39.307,69.186C109.494,178.029,102.093,178.029,94.433,178.029
		z"/>
	<path fill-rule="evenodd" clip-rule="evenodd" d="M116.983,293.449c-7.596,0-14.991,0-22.611,0c0-30.691,0-61.188,0-91.927
		c7.502,0,14.91,0,22.611,0C116.983,231.999,116.983,262.494,116.983,293.449z"/>
	<path fill-rule="evenodd" clip-rule="evenodd" d="M255.331,291.222c-7.602,0-14.906,0-22.524,0c0-29.866,0-59.63,0-89.667
		c7.432,0,14.818,0,22.524,0C255.331,231.285,255.331,261.053,255.331,291.222z"/>
	<path fill-rule="evenodd" clip-rule="evenodd" d="M186.542,316.5c0-23.058,0-45.772,0-68.785c7.588,0,15.069,0,22.771,0
		c0,22.93,0,45.728,0,68.785C201.73,316.5,194.342,316.5,186.542,316.5z"/>
	<path fill-rule="evenodd" clip-rule="evenodd" d="M70.875,328.069c-7.648,0-15.051,0-22.625,0c0-19.194,0-38.154,0-57.343
		c7.557,0,14.96,0,22.625,0C70.875,289.769,70.875,308.732,70.875,328.069z"/>
	<path fill-rule="evenodd" clip-rule="evenodd" d="M94.469,316.903c7.502,0,14.895,0,22.547,0c0,19.083,0,38.021,0,57.243
		c-7.453,0-14.838,0-22.547,0C94.469,355.154,94.469,336.142,94.469,316.903z"/>
	<path fill-rule="evenodd" clip-rule="evenodd" d="M232.531,317.976c7.837,0,15.226,0,22.863,0c0,18.778,0,37.354,0,56.422
		c-7.151,0-14.205,0.078-21.25-0.146c-0.577-0.019-1.552-2.087-1.561-3.207c-0.101-14.428-0.058-28.857-0.053-43.285
		C232.531,324.549,232.531,321.337,232.531,317.976z"/>
	<path fill-rule="evenodd" clip-rule="evenodd" d="M209.182,224.228c-7.583,0-14.885,0-22.493,0c0-15.257,0-30.347,0-45.733
		c7.352,0,14.748,0,22.493,0C209.182,193.521,209.182,208.712,209.182,224.228z"/>
	<path fill-rule="evenodd" clip-rule="evenodd" d="M325.059,316.913c7.638,0,15.036,0,22.613,0c0,11.487,0,22.74,0,34.239
		c-7.536,0-14.938,0-22.613,0C325.059,339.795,325.059,328.559,325.059,316.913z"/>
	<path fill-rule="evenodd" clip-rule="evenodd" d="M186.632,339.932c7.732,0,15.025,0,22.605,0c0,11.44,0,22.756,0,34.282
		c-7.585,0-14.969,0-22.605,0C186.632,362.774,186.632,351.55,186.632,339.932z"/>
</g>
</svg>
