<?xml version="1.0" encoding="utf-8"?>
<!-- Generator: Adobe Illustrator 16.0.0, SVG Export Plug-In . SVG Version: 6.00 Build 0)  -->
<!DOCTYPE svg PUBLIC "-//W3C//DTD SVG 1.1//EN" "http://www.w3.org/Graphics/SVG/1.1/DTD/svg11.dtd">
<svg version="1.1" id="Layer_1" xmlns="http://www.w3.org/2000/svg" xmlns:xlink="http://www.w3.org/1999/xlink" x="0px" y="0px"
	 width="400px" height="400px" viewBox="0 0 400 400" enable-background="new 0 0 400 400" xml:space="preserve">
<g>
	<path fill-rule="evenodd" clip-rule="evenodd" d="M342.771,391.5c-95.655,0-190.903,0-286.764,0c0-3.009,0-5.818,0-8.629
		c0.007-29.106,0.046-58.212,0.012-87.317c-0.04-34.168,26.604-66.141,60.571-70.818c14.981-2.063,30.347-1.686,45.543-1.78
		c35.438-0.224,70.878-0.045,106.318-0.06c35.818-0.014,65.733,24.007,73.021,58.792c0.799,3.813,1.427,7.746,1.439,11.626
		c0.112,31.669,0.062,63.339,0.05,95.008C342.961,389.218,342.856,390.116,342.771,391.5z M315.666,363.96
		c0-24.185,0.921-47.881-0.256-71.475c-1.198-24.056-20.775-41.742-45.007-41.892c-47.193-0.291-94.39-0.306-141.583,0.037
		c-25.751,0.186-45.623,21.07-45.657,46.923c-0.027,20.656-0.007,41.314-0.008,61.973c0,1.446,0,2.894,0,4.434
		C160.952,363.96,238.114,363.96,315.666,363.96z"/>
	<path fill-rule="evenodd" clip-rule="evenodd" d="M277.481,144.475c-7.637,33.076-37.011,55.629-70.98,56.34
		c-15.018,0.314-29.957-0.025-43.791-6.741c-27.35-13.283-42.267-35.312-43.652-65.634c-0.79-17.296-0.633-34.721,0.474-52
		c2.191-34.213,31.407-63.382,65.535-66.498c14.947-1.364,29.88-1.602,44.287,3.386c31.356,10.857,50.625,38.333,50.881,72.151
		c0.051,6.638,0.007,13.276,0.007,19.914C280.58,105.422,280.393,131.859,277.481,144.475z M145.878,104.853
		c0.181,0.006,0.361,0.013,0.542,0.019c0,7.841-0.155,15.686,0.031,23.522c0.443,18.653,12.464,35.205,29.981,41.884
		c11.092,4.229,22.565,3.354,33.961,2.686c22.274-1.305,41.553-21.086,42.101-43.322c0.386-15.673,0.331-31.366,0.085-47.044
		c-0.327-20.782-13.314-38.411-33.519-43.631c-8.843-2.284-18.492-2.074-27.761-1.951c-21.391,0.281-40.052,15.654-43.759,36.767
		C145.76,83.923,146.358,94.482,145.878,104.853z"/>
</g>
</svg>
